<?xml version="1.0" standalone="no"?>
<!DOCTYPE svg PUBLIC "-//W3C//DTD SVG 20010904//EN"
 "http://www.w3.org/TR/2001/REC-SVG-20010904/DTD/svg10.dtd">
<svg version="1.0" xmlns="http://www.w3.org/2000/svg"
 width="700.000000pt" height="700.000000pt" viewBox="0 0 700.000000 700.000000"
 preserveAspectRatio="xMidYMid meet">
<metadata>
Created by potrace 1.11, written by Peter Selinger 2001-2013
</metadata>
<g transform="translate(0.000000,700.000000) scale(0.100000,-0.100000)"
fill="#000000" stroke="none">
<path d="M3141 6830 c-40 -44 -71 -84 -69 -88 8 -19 147 -142 161 -142 16 0
147 140 147 158 0 11 -148 152 -160 152 -4 0 -40 -36 -79 -80z"/>
<path d="M2797 6772 c-51 -57 21 -140 82 -95 32 24 38 56 17 89 -20 30 -75 33
-99 6z"/>
<path d="M3626 6729 c-48 -38 -20 -109 42 -109 57 0 83 69 42 110 -26 26 -51
25 -84 -1z"/>
<path d="M2477 6702 c-34 -38 -15 -95 35 -107 21 -5 33 -1 52 19 30 29 33 52
10 84 -19 28 -74 30 -97 4z"/>
<path d="M3982 6659 c-53 -20 -51 -98 3 -119 52 -20 96 25 81 84 -7 29 -51 47
-84 35z"/>
<path d="M2147 6592 c-34 -38 -7 -112 42 -112 29 0 71 39 71 66 0 54 -78 85
-113 46z"/>
<path d="M4266 6518 c-22 -31 -20 -64 4 -88 40 -40 110 -11 110 45 0 57 -83
88 -114 43z"/>
<path d="M1755 6511 c-10 -16 -55 -174 -55 -193 0 -22 16 -30 123 -58 63 -17
91 -20 96 -12 16 27 55 202 46 211 -6 4 -48 18 -94 31 -46 12 -90 24 -97 27
-6 2 -15 0 -19 -6z"/>
<path d="M4637 6405 c-49 -13 -91 -25 -94 -28 -6 -6 37 -190 48 -209 10 -15
209 30 216 49 3 7 -6 57 -19 111 -28 114 -23 111 -151 77z"/>
<path d="M1452 6197 c-12 -13 -22 -33 -22 -45 0 -31 35 -62 68 -62 57 0 83 69
42 110 -27 27 -62 25 -88 -3z"/>
<path d="M4951 6104 c-12 -15 -21 -32 -21 -39 0 -7 9 -24 21 -39 38 -48 112
-23 112 39 0 62 -74 87 -112 39z"/>
<path d="M3165 6109 c-33 -4 -98 -8 -145 -8 -50 -1 -101 -8 -125 -18 -22 -8
-60 -16 -85 -17 -53 -2 -114 -21 -152 -47 -14 -11 -36 -19 -49 -19 -12 0 -37
-11 -55 -25 -18 -14 -45 -25 -61 -25 -42 -1 -244 -84 -277 -114 -16 -14 -34
-26 -40 -26 -7 0 -33 -13 -59 -30 -26 -16 -54 -27 -62 -24 -20 8 -200 -99
-246 -146 -20 -21 -65 -51 -101 -69 -51 -24 -85 -52 -152 -122 -47 -49 -95
-108 -106 -129 -11 -22 -33 -46 -48 -54 -15 -8 -39 -27 -53 -43 -43 -46 -109
-148 -115 -179 -4 -17 -19 -37 -37 -49 -21 -14 -39 -39 -55 -80 -13 -33 -42
-99 -64 -146 -39 -82 -40 -87 -27 -122 13 -36 12 -38 -18 -69 -68 -70 -135
-281 -105 -328 17 -28 15 -43 -14 -86 -22 -32 -28 -55 -35 -144 -4 -58 -9
-125 -10 -150 -3 -82 21 -334 38 -390 10 -35 15 -84 14 -136 -2 -59 3 -96 18
-142 12 -34 21 -69 21 -78 0 -25 52 -177 67 -194 7 -9 22 -45 33 -80 11 -36
36 -94 56 -130 20 -36 45 -83 56 -105 24 -47 87 -141 138 -205 20 -25 48 -65
62 -90 15 -25 90 -108 167 -183 78 -75 141 -141 141 -146 0 -10 106 -91 184
-140 27 -17 60 -46 74 -66 25 -35 130 -94 198 -111 16 -4 63 -31 105 -59 42
-29 93 -55 115 -59 69 -13 148 -39 169 -57 11 -9 40 -20 65 -24 87 -13 255
-57 280 -73 31 -20 184 -18 266 4 37 9 110 14 230 13 148 0 179 3 194 16 10 9
21 12 24 7 7 -12 143 14 170 32 12 7 77 27 146 45 69 17 161 49 205 70 44 22
111 49 148 61 37 12 116 46 175 75 59 29 117 55 129 59 18 6 63 -24 238 -155
l216 -162 -7 -99 c-5 -79 -4 -98 7 -102 8 -2 58 -7 112 -10 93 -5 99 -4 104
14 3 11 8 20 12 20 3 0 51 -35 106 -77 55 -42 233 -176 395 -298 162 -122 413
-311 556 -421 566 -431 656 -492 678 -456 7 11 -64 281 -104 397 -18 52 -35
125 -39 173 -11 112 -28 130 -159 167 -199 57 -332 121 -482 234 -395 298
-444 341 -575 499 -81 97 -101 127 -98 147 4 16 -2 30 -18 45 -13 12 -74 70
-135 129 -60 59 -167 155 -237 215 -81 68 -127 115 -127 127 0 13 18 28 61 49
44 23 64 39 74 63 7 18 28 46 46 62 55 52 116 141 148 220 17 41 43 91 57 112
13 20 26 46 28 57 3 12 12 53 21 91 9 39 21 93 26 120 6 28 14 59 19 70 4 11
11 38 14 60 4 22 17 110 30 195 37 235 49 360 42 415 -4 28 -6 66 -5 85 6 147
0 341 -12 375 -7 22 -13 63 -14 90 -1 40 -9 63 -37 109 -27 43 -36 66 -32 85
4 19 -7 52 -41 116 -25 50 -51 113 -56 140 -13 58 -100 245 -123 264 -9 8 -21
34 -28 58 -14 58 -77 154 -142 218 -29 28 -57 58 -62 67 -19 35 -199 218 -214
218 -8 0 -24 14 -35 30 -11 17 -30 33 -42 36 -12 3 -39 27 -62 54 -32 38 -56
54 -120 79 -43 18 -107 52 -142 76 -89 64 -259 145 -301 145 -21 0 -46 9 -62
21 -40 31 -244 120 -296 129 -25 4 -70 17 -101 28 -30 11 -74 23 -96 27 -56 9
-303 12 -378 4z m393 -217 c57 -16 111 -28 121 -25 10 2 33 -4 52 -15 45 -26
255 -101 296 -106 17 -2 47 -16 65 -31 18 -16 98 -59 178 -97 87 -42 161 -85
186 -108 23 -21 57 -46 75 -55 35 -18 309 -289 309 -305 0 -16 -68 -11 -139 9
-61 18 -193 35 -268 35 -22 0 -53 -17 -109 -57 -75 -55 -105 -67 -71 -29 26
28 20 42 -15 42 -29 0 -30 1 -15 18 10 10 17 22 17 25 0 4 -38 7 -85 7 -70 0
-103 -6 -181 -32 l-94 -32 -27 28 -26 29 -136 -6 c-133 -5 -237 -22 -334 -54
-34 -11 -51 -13 -56 -5 -3 6 -15 -9 -25 -34 l-18 -44 -99 0 c-54 0 -99 3 -99
6 0 3 5 14 10 25 12 22 -12 77 -57 124 -36 40 -233 179 -240 171 -8 -7 -19 1
111 -86 85 -58 116 -85 142 -126 19 -29 34 -58 34 -63 0 -13 -52 -41 -75 -41
-9 0 -29 14 -44 31 l-28 31 -98 -42 c-111 -47 -195 -70 -345 -95 -93 -16 -124
-17 -284 -6 -213 14 -349 39 -444 80 -37 17 -87 33 -111 37 -23 4 -44 11 -48
17 -3 5 11 25 31 44 20 19 36 40 36 48 0 25 238 206 358 272 65 35 135 81 157
102 22 22 62 48 88 60 27 11 61 31 77 45 16 13 62 34 102 46 40 12 92 33 115
46 23 13 50 24 61 24 11 0 30 8 43 19 13 10 46 21 72 25 26 4 72 16 102 26 30
10 81 19 112 19 32 0 111 8 176 18 179 27 317 22 445 -15z m-1978 -823 c0 -7
26 -41 58 -77 190 -216 250 -294 480 -624 288 -415 596 -925 720 -1193 41 -88
83 -168 94 -177 25 -22 24 -25 -49 -123 -136 -184 -354 -531 -414 -660 -16
-33 -52 -139 -81 -236 l-52 -177 -25 19 c-13 10 -34 19 -46 19 -12 0 -44 16
-71 35 -27 20 -85 58 -129 85 -44 27 -95 64 -112 84 -18 19 -54 47 -80 62 -56
32 -148 117 -169 157 -8 15 -59 80 -113 145 -53 64 -112 144 -131 177 -18 33
-59 98 -90 145 -68 101 -133 228 -150 290 -7 25 -27 78 -46 119 -21 46 -34 90
-34 115 0 23 -7 66 -16 96 -12 46 -30 364 -26 475 4 90 25 257 37 290 8 22 14
58 14 80 -1 22 5 60 14 85 30 88 59 209 61 252 1 26 10 55 22 73 12 17 38 63
58 103 20 39 52 97 71 127 19 30 35 59 35 65 0 6 11 21 24 33 12 12 46 50 75
85 50 60 71 75 71 51z m1695 -119 c8 -13 -35 -13 -55 0 -11 7 -7 10 17 10 17
0 35 -4 38 -10z m-215 -21 c42 -20 43 -22 22 -30 -28 -11 -67 4 -82 31 -14 26
1 26 60 -1z m1924 2 c13 -6 43 -34 66 -64 32 -43 42 -66 47 -108 3 -30 20 -86
38 -126 18 -39 38 -94 44 -122 6 -29 23 -75 37 -104 15 -28 42 -109 61 -179
l33 -127 3 -318 c2 -336 -7 -484 -44 -698 -12 -68 -31 -140 -44 -165 -12 -25
-39 -103 -58 -173 -38 -137 -39 -138 -168 -292 -84 -100 -138 -154 -167 -168
-20 -9 -28 -5 -65 30 -23 22 -62 55 -87 73 -25 18 -76 63 -115 100 -86 83
-259 231 -385 332 -52 42 -108 90 -125 108 -16 18 -79 70 -140 115 -136 102
-357 333 -471 491 -122 170 -314 580 -349 745 -8 37 -32 112 -55 168 -24 62
-44 131 -50 179 -5 42 -14 104 -19 136 -14 85 -4 99 62 91 47 -6 54 -4 76 19
l24 25 47 -24 c49 -25 60 -46 60 -113 0 -18 3 -23 10 -16 12 12 133 -107 168
-164 12 -21 22 -29 27 -23 4 8 17 3 37 -14 25 -21 33 -23 45 -13 13 10 19 8
38 -16 13 -16 28 -26 33 -22 6 4 47 -16 91 -43 l79 -50 -3 44 c-2 25 -7 66
-11 92 -6 44 -6 47 10 34 9 -7 38 -50 65 -95 84 -138 147 -187 312 -244 62
-22 122 -43 132 -47 13 -6 17 -2 17 16 1 24 1 24 21 -4 25 -33 68 -57 104 -57
15 0 36 -5 48 -12 26 -14 220 -48 227 -41 3 3 -1 8 -8 10 -15 6 -42 55 -42 77
0 12 5 13 31 4 25 -9 34 -8 47 6 14 14 14 18 4 25 -11 7 -11 9 2 14 9 4 16 17
16 29 0 28 -204 229 -292 288 l-59 39 -82 -5 c-74 -5 -80 -4 -63 10 17 14 16
16 -20 31 -38 17 -38 17 -16 28 12 6 21 15 19 20 -2 6 -40 26 -86 46 -130 56
-119 60 129 45 l105 -6 -19 21 c-19 21 -19 21 5 21 13 0 43 -7 66 -16 38 -15
55 -15 131 -5 48 7 116 21 152 31 36 10 102 28 148 41 l83 22 -20 21 c-22 23
-17 41 14 49 11 2 21 5 22 6 1 0 13 -3 27 -8z m-1458 -2368 c121 -91 360 -271
533 -400 l313 -234 -55 -38 c-30 -22 -64 -48 -75 -59 -11 -11 -45 -25 -76 -32
-36 -7 -73 -24 -101 -46 -29 -21 -56 -34 -76 -34 -41 0 -168 -29 -201 -46 -15
-8 -54 -14 -86 -14 -33 0 -88 -9 -123 -19 -48 -14 -112 -21 -249 -26 -102 -3
-192 -6 -200 -6 -342 12 -428 20 -531 48 -83 23 -119 39 -172 77 -37 26 -67
51 -67 56 0 5 17 19 38 31 120 73 351 261 472 383 52 53 100 96 107 96 7 0 12
4 11 8 -3 10 303 421 313 422 4 0 105 -75 225 -167z"/>
<path d="M1197 5998 c-9 -7 -19 -25 -22 -40 -5 -21 -1 -33 19 -52 29 -30 52
-33 84 -10 28 19 30 74 4 97 -22 20 -62 22 -85 5z"/>
<path d="M5214 5874 c-43 -42 -15 -104 46 -104 56 0 83 83 38 114 -32 23 -55
20 -84 -10z"/>
<path d="M954 5734 c-43 -42 -15 -104 46 -104 56 0 83 83 38 114 -32 23 -55
20 -84 -10z"/>
<path d="M5430 5628 c-25 -28 -25 -48 1 -82 38 -48 109 -23 109 38 0 61 -68
89 -110 44z"/>
<path d="M716 5497 c-49 -12 -91 -26 -92 -32 -2 -5 7 -55 19 -110 23 -100 23
-100 52 -99 57 3 187 36 192 50 3 8 -5 58 -18 112 -28 114 -22 111 -153 79z"/>
<path d="M5706 5381 c-13 -20 -66 -174 -66 -190 0 -13 23 -26 95 -50 52 -18
101 -31 108 -28 16 6 81 182 74 200 -2 7 -47 27 -98 45 -103 35 -105 36 -113
23z"/>
<path d="M526 5095 c-26 -27 -29 -56 -9 -84 24 -32 56 -38 89 -17 30 20 33 75
6 99 -23 21 -66 22 -86 2z"/>
<path d="M5922 4994 c-46 -32 -18 -114 39 -114 30 0 43 9 58 37 16 31 14 41
-14 68 -28 29 -51 31 -83 9z"/>
<path d="M406 4835 c-26 -27 -29 -56 -9 -84 24 -32 56 -38 89 -17 30 20 33 75
6 99 -23 21 -66 22 -86 2z"/>
<path d="M6025 4700 c-37 -41 -9 -110 45 -110 15 0 35 9 45 20 37 41 9 110
-45 110 -15 0 -35 -9 -45 -20z"/>
<path d="M301 4534 c-26 -34 -26 -54 -1 -82 42 -45 110 -17 110 46 0 59 -72
83 -109 36z"/>
<path d="M6096 4424 c-19 -19 -21 -64 -3 -87 6 -9 24 -19 39 -22 39 -10 83 34
73 73 -3 15 -13 33 -22 40 -23 17 -68 15 -87 -4z"/>
<path d="M183 4214 c-46 -36 -83 -69 -83 -73 0 -13 130 -171 141 -171 18 0
169 123 169 137 0 19 -120 173 -134 172 -6 0 -48 -29 -93 -65z"/>
<path d="M6122 4073 c-34 -43 -62 -85 -61 -93 0 -14 130 -123 161 -135 10 -4
35 20 75 72 33 43 63 83 67 90 7 13 -148 143 -170 143 -6 0 -39 -35 -72 -77z"/>
<path d="M192 3800 c-29 -12 -42 -47 -30 -83 17 -48 94 -50 116 -2 14 30 2 69
-27 84 -23 13 -28 13 -59 1z"/>
<path d="M6175 3650 c-37 -41 -9 -110 45 -110 15 0 35 9 45 20 37 41 9 110
-45 110 -15 0 -35 -9 -45 -20z"/>
<path d="M195 3455 c-28 -27 -30 -37 -14 -68 16 -29 28 -37 60 -37 55 0 82 83
37 114 -32 22 -55 20 -83 -9z"/>
<path d="M6150 3300 c-27 -27 -25 -62 3 -88 44 -41 107 -16 107 42 0 60 -68
88 -110 46z"/>
<path d="M272 3129 c-54 -20 -51 -99 5 -120 22 -8 32 -6 52 9 62 46 15 137
-57 111z"/>
<path d="M6084 2974 c-43 -42 -15 -104 46 -104 55 0 80 70 40 110 -27 27 -56
25 -86 -6z"/>
<path d="M304 2745 c-24 -52 -44 -100 -44 -106 0 -9 179 -99 198 -99 11 0 92
174 92 196 0 9 -36 32 -96 60 -52 24 -98 44 -100 44 -3 0 -25 -43 -50 -95z"/>
<path d="M5963 2652 c-45 -20 -87 -42 -93 -48 -14 -14 72 -204 93 -204 19 0
184 76 191 89 9 15 -80 201 -96 200 -7 0 -50 -17 -95 -37z"/>
<path d="M560 2382 c-50 -16 -66 -74 -30 -107 41 -37 110 -9 110 45 0 38 -45
73 -80 62z"/>
<path d="M5797 2232 c-26 -28 -22 -78 7 -98 68 -44 137 44 80 101 -21 21 -67
19 -87 -3z"/>
<path d="M695 2075 c-14 -13 -25 -33 -25 -45 0 -50 79 -80 113 -42 25 27 22
78 -5 96 -32 22 -55 20 -83 -9z"/>
<path d="M5616 1936 c-30 -29 -33 -52 -10 -84 10 -15 25 -22 48 -22 80 0 92
107 14 125 -21 5 -33 1 -52 -19z"/>
<path d="M907 1802 c-26 -28 -22 -78 7 -98 68 -44 137 44 80 101 -21 21 -67
19 -87 -3z"/>
<path d="M1175 1583 c-32 -2 -64 -8 -70 -13 -12 -10 -3 -207 11 -220 10 -9
210 2 220 13 4 4 3 55 -2 114 l-9 108 -45 1 c-25 0 -72 -1 -105 -3z"/>
<path d="M1477 1272 c-35 -39 -6 -112 43 -112 27 0 70 43 70 70 0 50 -79 80
-113 42z"/>
<path d="M4730 1140 c-40 -40 -11 -110 45 -110 32 0 65 33 65 65 0 32 -33 65
-65 65 -14 0 -34 -9 -45 -20z"/>
<path d="M1724 1122 c-23 -15 -34 -50 -24 -77 19 -51 100 -53 119 -3 9 25 -3
68 -22 80 -15 10 -59 10 -73 0z"/>
<path d="M4455 1000 c-24 -27 -22 -70 5 -92 28 -23 52 -23 80 0 44 36 17 112
-40 112 -15 0 -35 -9 -45 -20z"/>
<path d="M1992 974 c-46 -32 -18 -114 39 -114 30 0 43 9 58 37 16 31 14 41
-14 68 -28 29 -51 31 -83 9z"/>
<path d="M2303 917 c-55 -23 -93 -46 -93 -54 0 -19 68 -175 83 -190 9 -10 32
-4 102 27 49 22 93 44 99 50 15 15 -71 212 -92 209 -4 0 -49 -19 -99 -42z"/>
<path d="M4187 902 c-39 -43 -8 -112 50 -112 28 0 63 37 63 65 0 53 -78 86
-113 47z"/>
<path d="M3787 848 c-68 -108 -79 -129 -74 -141 2 -7 44 -36 91 -65 66 -40 90
-51 100 -43 24 20 107 163 104 179 -3 13 -162 121 -180 122 -4 0 -22 -24 -41
-52z"/>
<path d="M2750 760 c-25 -25 -26 -72 -2 -93 40 -36 112 -6 112 46 0 29 -39 67
-68 67 -12 0 -31 -9 -42 -20z"/>
<path d="M3427 742 c-26 -28 -22 -78 7 -98 68 -44 137 44 80 101 -21 21 -67
19 -87 -3z"/>
<path d="M3095 738 c-27 -15 -35 -28 -35 -59 0 -56 77 -83 112 -39 23 28 23
52 1 78 -23 26 -53 34 -78 20z"/>
</g>
</svg>
