<?xml version="1.0" encoding="utf-8"?>
<!-- Generator: Adobe Illustrator 23.0.0, SVG Export Plug-In . SVG Version: 6.00 Build 0)  -->
<svg version="1.1" id="Layer_1" xmlns="http://www.w3.org/2000/svg" xmlns:xlink="http://www.w3.org/1999/xlink" x="0px" y="0px"
	 viewBox="0 0 512 512" style="enable-background:new 0 0 512 512;" xml:space="preserve">
<style type="text/css">
	.st0{fill:#1A1A1A;}
	.st1{clip-path:url(#SVGID_2_);}
	.st2{fill-rule:evenodd;clip-rule:evenodd;fill:#F15A24;}
	.st3{fill:none;}
	.st4{fill:#ED1C24;}
	.st5{fill-rule:evenodd;clip-rule:evenodd;fill:#00FFFF;}
	.st6{fill:#1A1A1A;stroke:#FFFFFF;stroke-width:22;stroke-miterlimit:10;}
</style>
<rect x="-670.78" y="534.09" class="st0" width="512" height="512"/>
<g>
	<g>
		<defs>
			<path id="SVGID_1_" d="M-414.78,534.09c-138.62,0-251,112.38-251,251s112.38,251,251,251s251-112.38,251-251
				S-276.16,534.09-414.78,534.09z M-414.78,966.44c-97.39,0-176.34-78.95-176.34-176.34s78.95-176.34,176.34-176.34
				s176.34,78.95,176.34,176.34S-317.39,966.44-414.78,966.44z"/>
		</defs>
		<clipPath id="SVGID_2_">
			<use xlink:href="#SVGID_1_"  style="overflow:visible;"/>
		</clipPath>
		<g class="st1">
		</g>
	</g>
</g>
<g>
	<g>
		<path class="st2" d="M-91.22,233.22c0-196.75-212.63-312.06-376.53-217.4l125.53,217.4H-91.22z"/>
	</g>
	<line class="st3" x1="-467.75" y1="450.6" x2="-467.75" y2="450.6"/>
	<g>
		<path class="st4" d="M-342.25,233.23l-125.5,217.37c170.39,98.38,376.57-28.11,376.54-217.38L-342.25,233.23z"/>
	</g>
	<g>
		<path class="st5" d="M-467.8,15.83C-638.2,114.2-631.75,356-467.81,450.61L-342.3,233.2L-467.8,15.83z"/>
	</g>
</g>
<rect x="-670.78" y="714.64" class="st6" width="512" height="140.91"/>
<rect x="-726.13" y="712.63" class="st3" width="622.69" height="399.06"/>
<text transform="matrix(1 0 0 1 -556.877 857.4308)" style="fill:#FFFFFF; font-family:'Veneer'; font-size:200px;">CCM</text>
<circle class="st6" cx="-414.78" cy="790.09" r="176.34"/>
<g>
	<g>
		<path d="M194.37,234.2h-11.88c-0.14,0-0.25-0.11-0.25-0.25v-13.34c0-0.14,0.11-0.25,0.25-0.25h11.88c0.14,0,0.25,0.11,0.25,0.25
			v13.34C194.62,234.08,194.51,234.2,194.37,234.2z"/>
		<path d="M197.29,231.26v2.21c0,2-1.64,3.64-3.64,3.64h-10.92c-2,0-3.64-1.64-3.64-3.64v-2.91h-33.25
			c-9.61,0-17.48,7.86-17.48,17.48v23.3c0,9.61,7.86,17.48,17.48,17.48h46.6c9.61,0,17.48-7.86,17.48-17.48v-23.3
			C209.91,240.1,204.56,233.38,197.29,231.26z M169.13,285.9c-12.47,0-22.57-10.11-22.57-22.57c0-12.47,10.11-22.57,22.57-22.57
			c12.47,0,22.57,10.11,22.57,22.57C191.71,275.79,181.6,285.9,169.13,285.9z"/>
		<path d="M169.13,243.84c-10.76,0-19.48,8.72-19.48,19.48c0,10.76,8.72,19.48,19.48,19.48c10.76,0,19.48-8.72,19.48-19.48
			C188.61,252.57,179.89,243.84,169.13,243.84z M162.18,259.68c-2.56,0-4.64-2.08-4.64-4.64c0-2.56,2.08-4.64,4.64-4.64
			c2.56,0,4.64,2.08,4.64,4.64C166.83,257.6,164.75,259.68,162.18,259.68z"/>
	</g>
	<g>
		<path d="M288,373.32l-6.85,6.85c-0.5,0.5-0.5,1.31,0,1.81l6.85,6.85c0.5,0.5,1.31,0.5,1.81,0l6.85-6.85c0.5-0.5,0.5-1.31,0-1.81
			l-6.85-6.85C289.31,372.82,288.5,372.82,288,373.32z"/>
		<circle cx="244.73" cy="381.08" r="3.48"/>
		<circle cx="258.03" cy="381.08" r="3.48"/>
		<circle cx="270.74" cy="381.08" r="3.48"/>
		<path d="M283.67,325.59c-1.12-1.8-3.5-2.35-5.3-1.22l-9.45,5.9l-7.21-9.7c0.48,0.06,0.97,0.11,1.48,0.11
			c6.21,0,11.26-5.05,11.26-11.26c0-6.21-5.05-11.26-11.26-11.26c-6.21,0-11.26,5.05-11.26,11.26c0,2.54,0.85,4.88,2.28,6.76
			c-1.37-0.48-2.96-0.17-4.04,0.93l-11.48,11.82c-0.7,0.72-1.09,1.67-1.09,2.68v8.41c0,2.12,1.72,3.84,3.85,3.84
			c2.12,0,3.84-1.72,3.84-3.84v-6.85l7.21-7.43l-4.82,10.98c-0.36,0.82-0.42,1.74-0.18,2.59l3.89,13.67l-15.12,11.18
			c-1.7,1.26-2.06,3.67-0.81,5.37c0.59,0.8,1.45,1.33,2.42,1.5c0.22,0.04,0.44,0.06,0.66,0.06c0.82,0,1.63-0.26,2.29-0.75
			l17.26-12.76c1.28-0.95,1.85-2.61,1.41-4.14l-3.31-11.63l9.43,10.19l2.83,15.31c0.34,1.82,1.93,3.15,3.78,3.15
			c0.23,0,0.46-0.02,0.7-0.06c2.08-0.39,3.46-2.4,3.08-4.48l-3.04-16.4c-0.13-0.72-0.47-1.38-0.96-1.91l-10.25-11.07
			c-0.7-0.75-1.65-1.19-2.67-1.23c-1.06-0.03-2.01,0.32-2.76,1.02c-0.07,0.07-0.12,0.14-0.19,0.22l2.91-6.63l5.8,7.8
			c1.19,1.59,3.43,2.03,5.12,0.97l12.46-7.78C284.25,329.76,284.79,327.39,283.67,325.59z M256.62,318.82
			c-0.03-0.12-0.07-0.24-0.11-0.35c0.11,0.08,0.21,0.17,0.33,0.24C256.76,318.74,256.69,318.78,256.62,318.82z M259.61,309.41
			c0-1.97,1.6-3.57,3.57-3.57c1.97,0,3.57,1.6,3.57,3.57c0,1.97-1.6,3.57-3.57,3.57C261.21,312.99,259.61,311.38,259.61,309.41z"/>
		<path d="M225.98,373.32l-6.85,6.85c-0.5,0.5-0.5,1.31,0,1.81l6.85,6.85c0.5,0.5,1.31,0.5,1.81,0l6.85-6.85
			c0.5-0.5,0.5-1.31,0-1.81l-6.85-6.85C227.29,372.82,226.48,372.82,225.98,373.32z"/>
	</g>
	<path d="M381.87,226.78h-53.54c-4.03,0-7.33,3.3-7.33,7.33v36.33c0,4.03,3.3,7.33,7.33,7.33h18.8h2.59c0,0,1.91,13.38-13.38,17.85
		c-11.6,3.38,6.66,3.98,16.17,4.07v0.01c0,0,1,0.01,2.59,0.01c1.59,0,2.59-0.01,2.59-0.01v-0.01c9.51-0.09,27.77-0.69,16.17-4.07
		c-15.3-4.46-13.38-17.85-13.38-17.85h21.39c4.03,0,7.33-3.3,7.33-7.33v-36.33C389.2,230.08,385.9,226.78,381.87,226.78z
		 M323.23,240.8v-5.6l31.87,38.77h-3.69L323.23,240.8z M363.95,273.97l-38.8-43.68c0,0,2.52-1.91,6.36-1.59l47.18,45.28H363.95z"/>
	<path d="M486.42,152.23c-0.23-0.65-0.5-1.3-0.82-1.94l-1.33-2.6l-4.04-7.91l-1.67-3.28c-0.37-0.73-0.79-1.41-1.25-2.05
		C434.28,58.05,352.41,6.45,258.49,6.45c-93.76,0-175.51,51.42-218.61,127.59c-0.97,1.72-1.93,3.45-2.86,5.2l-3.98,7.77
		c-0.78,1.59-1.54,3.19-2.29,4.8c-1.77,4.93-1.04,10.31,1.69,14.55c1.52,2.36,3.64,4.37,6.31,5.73l10.76,5.51
		c-9.18,24.42-14.22,50.87-14.22,78.5c0,84.13,46.53,157.4,115.26,195.47l-4.65,11.2c-1.15,2.76-1.47,5.66-1.1,8.44
		c0.66,5,3.58,9.59,8.14,12.21c0.6,0.35,1.22,0.67,1.88,0.94l2.78,1.15l9.39,3.9l2.13,0.89c0.62,0.26,1.24,0.46,1.87,0.64
		c27.19,10.09,56.6,15.61,87.29,15.61c31.69,0,61.99-5.89,89.91-16.6c1.52-0.58,3.03-1.18,4.54-1.79l9.35-4.01
		c1.38-0.63,2.74-1.27,4.11-1.92c4.55-2.67,7.43-7.3,8.03-12.33c0.33-2.78-0.02-5.68-1.2-8.42l-4.67-10.88
		c67.78-38.33,113.55-111.06,113.55-194.49c0-27.51-5-53.85-14.1-78.19l10.61-5.41c2.67-1.36,4.79-3.37,6.32-5.72
		C487.45,162.55,488.19,157.17,486.42,152.23z M91.52,181.01c0.06-0.11,0.13-0.2,0.19-0.32l6.43-12.55
		c31.64-55.9,91.65-93.72,160.34-93.72c68.8,0,128.9,37.94,160.49,94L425.4,181c0.06,0.12,0.14,0.22,0.21,0.34
		c0.24,0.45,0.52,0.87,0.8,1.29c10.13,22.77,15.76,47.98,15.76,74.51c0,72.29-41.79,134.81-102.52,164.75
		c-0.46,0.15-0.92,0.31-1.38,0.51l-0.15,0.06c-4.71,2.27-9.53,4.34-14.45,6.22c-20.34,7.75-42.38,12.02-65.41,12.02
		c-5.13,0-10.21-0.22-15.24-0.64c-0.38-0.03-0.75-0.07-1.13-0.1c-2.25-0.2-4.49-0.43-6.71-0.71c-0.53-0.07-1.06-0.15-1.59-0.22
		c-1.56-0.21-3.12-0.45-4.67-0.7c-0.92-0.15-1.84-0.29-2.76-0.46c-1.62-0.29-3.23-0.6-4.84-0.93c-1.29-0.27-2.58-0.55-3.86-0.84
		c-0.39-0.09-0.79-0.19-1.18-0.28c-81.01-19.1-141.3-91.85-141.3-178.68c0-27.06,5.86-52.74,16.36-75.87
		C91.41,181.18,91.47,181.1,91.52,181.01z M447.53,188.25l11.66-3.79c2.11-0.68,4.39,0.48,5.08,2.59l1.17,3.59
		c0.68,2.11-0.48,4.39-2.59,5.08l-17.65,5.73c-2.11,0.68-4.39-0.48-5.08-2.59l-1.17-3.59c-0.68-2.11,0.48-4.39,2.59-5.08l1.41-0.46
		C444.51,189.47,446.05,188.99,447.53,188.25z M78.29,196.84l-1.17,3.59c-0.68,2.11-2.97,3.27-5.08,2.59l-17.65-5.73
		c-2.11-0.68-3.27-2.97-2.59-5.08l1.17-3.59c0.68-2.11,2.97-3.27,5.08-2.59l17.65,5.73C77.81,192.45,78.97,194.73,78.29,196.84z
		 M46.21,214.2l0.78-3.69c0.46-2.17,2.61-3.56,4.78-3.1l18.15,3.86c2.17,0.46,3.56,2.61,3.1,4.78l-0.78,3.69
		c-0.46,2.17-2.61,3.56-4.78,3.1l-18.15-3.86C47.14,218.52,45.75,216.37,46.21,214.2z M42.94,236.66l0.39-3.75
		c0.23-2.2,2.22-3.82,4.43-3.59l18.46,1.94c2.2,0.23,3.82,2.22,3.59,4.43l-0.39,3.75c-0.23,2.2-2.22,3.82-4.43,3.59l-18.46-1.94
		C44.32,240.86,42.7,238.86,42.94,236.66z M42.03,255.57c0-2.22,1.81-4.03,4.03-4.03h18.56c2.22,0,4.03,1.81,4.03,4.03v3.77
		c0,2.22-1.81,4.03-4.03,4.03H46.06c-2.22,0-4.03-1.81-4.03-4.03V255.57z M43.5,281.99l-0.39-3.75c-0.23-2.2,1.38-4.2,3.59-4.43
		l18.46-1.94c2.2-0.23,4.2,1.38,4.43,3.59l0.39,3.75c0.23,2.2-1.38,4.2-3.59,4.43l-18.46,1.94C45.73,285.81,43.73,284.2,43.5,281.99
		z M47.33,304.37l-0.78-3.69c-0.46-2.17,0.94-4.32,3.1-4.78l18.15-3.86c2.17-0.46,4.32,0.94,4.78,3.1l0.78,3.69
		c0.46,2.17-0.94,4.32-3.1,4.78l-18.15,3.86C49.94,307.93,47.79,306.53,47.33,304.37z M53.48,326.22l-1.17-3.59
		c-0.68-2.11,0.48-4.39,2.59-5.08l17.65-5.73c2.11-0.68,4.39,0.48,5.08,2.59l1.17,3.59c0.68,2.11-0.48,4.39-2.59,5.08l-17.65,5.73
		C56.45,329.49,54.17,328.33,53.48,326.22z M61.88,347.31l-1.53-3.44c-0.9-2.02,0.02-4.42,2.04-5.32l16.95-7.55
		c2.02-0.9,4.42,0.02,5.32,2.04l1.53,3.44c0.9,2.02-0.02,4.42-2.04,5.32l-16.95,7.55C65.18,350.25,62.78,349.33,61.88,347.31z
		 M72.44,367.4l-1.89-3.27c-1.11-1.92-0.44-4.4,1.47-5.5l16.07-9.28c1.92-1.11,4.4-0.44,5.5,1.47l1.89,3.27
		c1.11,1.92,0.44,4.4-1.47,5.5l-16.07,9.28C76.02,369.98,73.55,369.32,72.44,367.4z M85.04,386.28l-2.22-3.05
		c-1.3-1.79-0.9-4.33,0.89-5.63l15.01-10.91c1.79-1.3,4.33-0.9,5.63,0.89l2.22,3.05c1.3,1.79,0.9,4.33-0.89,5.63l-15.01,10.91
		C88.87,388.48,86.34,388.08,85.04,386.28z M99.54,403.74l-2.52-2.8c-1.48-1.65-1.35-4.21,0.3-5.69l13.79-12.42
		c1.65-1.48,4.21-1.35,5.69,0.3l2.52,2.8c1.48,1.65,1.35,4.21-0.3,5.69l-13.79,12.42C103.59,405.52,101.02,405.39,99.54,403.74z
		 M115.79,419.59l-2.8-2.52c-1.65-1.48-1.78-4.04-0.3-5.69l12.42-13.79c1.48-1.65,4.04-1.78,5.69-0.3l2.8,2.52
		c1.65,1.48,1.78,4.04,0.3,5.69l-12.42,13.79C120,420.94,117.44,421.07,115.79,419.59z M133.61,433.66l-3.05-2.22
		c-1.79-1.3-2.19-3.84-0.89-5.63l10.91-15.01c1.3-1.79,3.84-2.19,5.63-0.89l3.05,2.22c1.79,1.3,2.19,3.84,0.89,5.63l-10.91,15.01
		C137.94,434.56,135.4,434.96,133.61,433.66z M149.53,443.89c-1.92-1.11-2.58-3.58-1.47-5.5l9.28-16.07
		c1.11-1.92,3.58-2.58,5.5-1.47l3.27,1.89c0.27,0.16,0.51,0.35,0.73,0.55c-0.51,0.25-1.02,0.5-1.5,0.8
		c-2.83,1.76-5.18,4.35-6.55,7.65l-5.86,14.11c-0.04-0.02-0.09-0.03-0.13-0.06L149.53,443.89z M361.47,476.34
		c-0.08,0.04-0.16,0.07-0.23,0.11l-13.93,5.97c-0.06,0.02-0.11,0.04-0.17,0.07c-4.42,1.73-8.89,3.33-13.41,4.79
		c-24.05,7.8-49.45,11.87-75.46,11.87c-25.06,0-49.54-3.77-72.81-11.03c-4.52-1.41-8.99-2.95-13.41-4.62
		c-0.09-0.03-0.17-0.06-0.26-0.1l-13.91-5.78c-0.12-0.05-0.24-0.11-0.36-0.17c-4.55-1.97-6.7-7.25-4.79-11.84l12.9-31.06
		c1.42-3.41,4.74-5.61,8.46-5.61c0.26,0,0.51,0.05,0.77,0.08c3.71,1.8,7.49,3.46,11.32,5.01c0,0,0,0,0,0
		c1.3,0.53,2.61,1.05,3.92,1.55c1.38,0.53,2.77,1.04,4.16,1.54c0.49,0.17,0.99,0.33,1.48,0.5c2.87,0.99,5.77,1.93,8.7,2.79
		c3.5,1.02,7.06,1.93,10.64,2.75c0,0,0,0,0,0c6.48,1.5,13.09,2.66,19.81,3.48c0,0,0,0,0.01,0c3.15,0.38,6.32,0.72,9.51,0.95
		c1.82,0.13,3.65,0.22,5.49,0.3c1.68,0.07,3.37,0.11,5.05,0.14c0,0,0,0,0,0c1.1,0.02,2.2,0.06,3.3,0.06c3.54,0,7.05-0.13,10.55-0.32
		c0.48-0.03,0.97-0.05,1.45-0.08c6.42-0.4,12.76-1.11,19-2.13c0.46-0.07,0.92-0.16,1.39-0.24c4.47-0.76,8.89-1.68,13.25-2.75
		c0,0,0,0,0,0c1.73-0.42,3.46-0.86,5.17-1.33c1.76-0.48,3.51-0.98,5.25-1.51c0.08-0.02,0.16-0.04,0.24-0.07
		c2.85-0.88,5.67-1.84,8.46-2.85h0c1.13-0.41,2.27-0.8,3.39-1.23c2.32-0.88,4.61-1.82,6.88-2.79v0c2.79-1.18,5.55-2.42,8.26-3.73
		c1.02-0.39,2.08-0.61,3.18-0.61c3.68,0,6.98,2.16,8.42,5.51l13.05,30.41C368.17,469,366.04,474.34,361.47,476.34z M369.64,443.07
		l-3.27,1.89c-0.13,0.07-0.26,0.12-0.39,0.18l-6.03-14.06c-1.5-3.49-4.09-6.16-7.19-7.88c-0.25-0.14-0.51-0.24-0.77-0.37
		c0.3-0.36,0.65-0.68,1.07-0.92l3.27-1.89c1.92-1.11,4.4-0.44,5.5,1.47l9.28,16.07C372.23,439.48,371.56,441.96,369.64,443.07z
		 M388.52,430.47l-3.05,2.22c-1.79,1.3-4.33,0.9-5.63-0.89l-10.91-15.01c-1.3-1.79-0.9-4.33,0.89-5.63l3.05-2.22
		c1.79-1.3,4.33-0.9,5.63,0.89l10.91,15.01C390.72,426.63,390.32,429.17,388.52,430.47z M405.99,415.97l-2.8,2.52
		c-1.65,1.48-4.21,1.35-5.69-0.3l-12.42-13.79c-1.48-1.65-1.35-4.21,0.3-5.69l2.8-2.52c1.65-1.48,4.21-1.35,5.69,0.3l12.42,13.79
		C407.77,411.92,407.63,414.48,405.99,415.97z M421.83,399.72l-2.52,2.8c-1.48,1.65-4.04,1.78-5.69,0.3l-13.79-12.42
		c-1.65-1.48-1.78-4.04-0.3-5.69l2.52-2.8c1.48-1.65,4.04-1.78,5.69-0.3l13.79,12.42C423.18,395.51,423.32,398.07,421.83,399.72z
		 M435.9,381.9l-2.22,3.05c-1.3,1.79-3.84,2.19-5.63,0.89l-15.01-10.91c-1.79-1.3-2.19-3.84-0.89-5.63l2.22-3.05
		c1.3-1.79,3.84-2.19,5.63-0.89l15.01,10.91C436.8,377.57,437.2,380.11,435.9,381.9z M448.02,362.71l-1.89,3.27
		c-1.11,1.92-3.59,2.58-5.5,1.47l-16.07-9.28c-1.92-1.11-2.58-3.58-1.47-5.5l1.89-3.27c1.11-1.92,3.58-2.58,5.5-1.47l16.07,9.28
		C448.47,358.31,449.13,360.79,448.02,362.71z M458.07,342.36l-1.53,3.44c-0.9,2.02-3.3,2.94-5.32,2.04l-16.95-7.55
		c-2.02-0.9-2.94-3.3-2.04-5.32l1.53-3.44c0.9-2.02,3.3-2.94,5.32-2.04l16.95,7.55C458.06,337.94,458.98,340.33,458.07,342.36z
		 M465.94,321.06l-1.17,3.59c-0.68,2.11-2.97,3.27-5.08,2.59l-17.65-5.73c-2.11-0.68-3.27-2.97-2.59-5.08l1.17-3.59
		c0.68-2.11,2.97-3.27,5.08-2.59l17.65,5.73C465.46,316.67,466.63,318.96,465.94,321.06z M471.54,299.07l-0.78,3.69
		c-0.46,2.17-2.61,3.56-4.78,3.1L447.83,302c-2.17-0.46-3.56-2.61-3.1-4.78l0.78-3.69c0.46-2.17,2.61-3.56,4.78-3.1l18.15,3.86
		C470.61,294.75,472,296.9,471.54,299.07z M474.81,276.6l-0.39,3.75c-0.23,2.2-2.22,3.82-4.43,3.59L451.54,282
		c-2.2-0.23-3.82-2.22-3.59-4.43l0.39-3.75c0.23-2.2,2.22-3.82,4.43-3.59l18.46,1.94C473.43,272.41,475.05,274.4,474.81,276.6z
		 M475.72,257.69c0,2.22-1.81,4.03-4.03,4.03h-18.56c-2.22,0-4.03-1.81-4.03-4.03v-3.77c0-2.22,1.81-4.03,4.03-4.03h18.56
		c2.22,0,4.03,1.81,4.03,4.03V257.69z M474.25,231.27l0.39,3.75c0.23,2.2-1.38,4.2-3.59,4.43l-18.46,1.94
		c-2.2,0.23-4.2-1.38-4.43-3.59l-0.39-3.75c-0.23-2.2,1.38-4.2,3.59-4.43l18.46-1.94C472.02,227.45,474.02,229.07,474.25,231.27z
		 M470.42,208.9l0.78,3.69c0.46,2.17-0.94,4.32-3.1,4.78l-18.15,3.86c-2.17,0.46-4.32-0.94-4.78-3.1l-0.78-3.69
		c-0.46-2.17,0.94-4.32,3.1-4.78l18.15-3.86C467.81,205.33,469.96,206.73,470.42,208.9z M479.53,160.6
		c-0.75,2.33-2.36,4.21-4.51,5.31l-30.77,15.7c-1.28,0.65-2.66,0.98-4.09,0.98c-0.35,0-0.7-0.03-1.04-0.06
		c-0.33-0.04-0.66-0.1-0.98-0.17c-2.32-0.52-4.34-1.9-5.64-3.89c-0.38-0.83-0.81-1.64-1.2-2.47l0,0c0,0,0,0,0,0
		c-0.98-2.04-1.97-4.08-3.02-6.08c-1.08-2.1-2.2-4.17-3.37-6.21c-1.23-2.15-2.51-4.27-3.82-6.37c-0.96-1.55-1.94-3.09-2.95-4.6
		c-34.3-51.66-92.99-85.73-159.65-85.73c-1.86,0-3.71,0.04-5.56,0.09c-0.52,0.01-1.05,0.04-1.57,0.05c-1.44,0.05-2.87,0.12-4.3,0.21
		c-0.45,0.03-0.91,0.05-1.36,0.08c-1.81,0.12-3.61,0.26-5.41,0.43c-0.38,0.04-0.77,0.08-1.15,0.12c-1.45,0.15-2.89,0.31-4.33,0.48
		c-0.54,0.07-1.09,0.14-1.63,0.21c-1.52,0.2-3.03,0.42-4.54,0.65c-0.28,0.04-0.57,0.08-0.86,0.13c-1.74,0.28-3.47,0.59-5.19,0.92
		c-0.53,0.1-1.06,0.21-1.59,0.31c-1.28,0.25-2.56,0.52-3.83,0.8c-0.54,0.12-1.08,0.23-1.61,0.36c-1.68,0.38-3.35,0.79-5.01,1.21
		c-0.37,0.09-0.73,0.2-1.09,0.29c-1.34,0.35-2.68,0.72-4.01,1.11c-0.6,0.17-1.19,0.35-1.78,0.52c-1.21,0.36-2.41,0.74-3.61,1.12
		c-0.49,0.16-0.98,0.31-1.47,0.47c-1.57,0.52-3.14,1.06-4.69,1.62c-0.57,0.21-1.14,0.42-1.72,0.63c-1.08,0.4-2.15,0.8-3.22,1.22
		c-0.63,0.24-1.25,0.49-1.88,0.74c-1.25,0.5-2.49,1.02-3.73,1.55c-0.65,0.28-1.3,0.56-1.94,0.84c-1.17,0.51-2.33,1.04-3.48,1.57
		c-0.66,0.31-1.31,0.62-1.96,0.93c-0.94,0.45-1.87,0.9-2.79,1.37c-0.63,0.31-1.26,0.62-1.89,0.95c-1.38,0.71-2.75,1.43-4.11,2.17
		c-0.63,0.34-1.25,0.7-1.87,1.04c-0.86,0.48-1.72,0.97-2.58,1.46c-0.68,0.39-1.36,0.79-2.04,1.2c-0.86,0.51-1.72,1.04-2.57,1.56
		c-0.87,0.54-1.74,1.08-2.6,1.63c-0.99,0.64-1.98,1.28-2.97,1.93c-0.68,0.45-1.35,0.91-2.03,1.37c-0.73,0.5-1.45,1-2.17,1.51
		c-0.67,0.48-1.35,0.95-2.02,1.43c-0.93,0.68-1.86,1.36-2.78,2.05c-0.89,0.67-1.77,1.35-2.65,2.03c-0.71,0.55-1.41,1.1-2.11,1.66
		c-0.67,0.53-1.33,1.07-1.99,1.62c-0.67,0.55-1.33,1.11-1.99,1.67c-3.77,3.19-7.42,6.53-10.93,10c-0.11,0.11-0.21,0.21-0.32,0.32
		c-1.58,1.57-3.13,3.16-4.65,4.79c0,0,0,0,0,0v0c-2.94,3.12-5.77,6.34-8.49,9.66c-0.04,0.05-0.08,0.09-0.12,0.14
		c-1.36,1.66-2.7,3.35-4.01,5.06c0,0,0,0,0,0v0c-2.52,3.3-4.95,6.68-7.26,10.15c-1.32,1.98-2.59,3.99-3.84,6.01l0,0l0,0
		c-1,1.63-1.99,3.27-2.95,4.94c-2.74,4.78-5.27,9.7-7.6,14.73c-1.67,2.57-4.52,4.14-7.67,4.14c-0.9,0-1.76-0.14-2.61-0.4l0,0
		c-0.51-0.16-1.01-0.34-1.5-0.59l-1.13-0.58l0,0l-11.8-6.05l0,0l-7.7-3.95l0,0l-10.1-5.18c-4.39-2.25-6.16-7.6-4.05-12.03
		c0.14-0.29,0.28-0.58,0.42-0.87l6.3-12.3c0.27-0.49,0.53-0.98,0.81-1.46c2.21-3.95,4.52-7.85,6.96-11.68
		c9.54-15.01,20.79-29.08,33.67-41.96c46.01-46.01,107.19-71.35,172.25-71.35c65.07,0,126.24,25.34,172.25,71.35
		c12.99,12.99,24.33,27.19,33.92,42.34c2.42,3.82,4.72,7.71,6.91,11.65c0.27,0.49,0.54,0.98,0.81,1.47l6.31,12.38
		c0.14,0.28,0.27,0.57,0.41,0.85C480.09,156,480.26,158.36,479.53,160.6z"/>
	<g>
		<path d="M72.4,130.17l-1.91-1.04l-2.24-1.45l-2.21-1.33l-2.5-0.43L61.99,126l-1.14,1.15l-0.63,0.98l-0.72-0.57l-0.79-0.31
			l-0.43,0.51l1.77,0.65l-0.2,2.15l0.6,1.68l0.89,1.08l0.95,0.52l0.68,0.64l1.58,0.93l1.75,1.13l1.56,0.81l0.47,0.5l1.23,0.7
			l2.05,1.43l2.07,1.25l1.61,1.04l1.84,1.29l8.39,5.44l1.66,1.27l1.07,0.49l1.98,1.08l1.93,0.85l1.06-0.11l1.01-0.34l0.85-0.54
			l1.64-1.92l0.11-2.31l-0.73-1.17l-1.34-1.46l-1.51-0.88l-1.45-1.14l-1.77-0.95l-0.54-0.55l-0.74-0.38l-1.61-1.04l-0.9-1.38
			l0.38-1.05l1.86-2.87l1.25-2.07l0.75-0.7l0.34-0.67l1.01-0.64l0.51,0.13l2.68,1.54l2,1.2l4.13,2.67l0.89,0.77l1.52,1.48l1.39,1.69
			l1.2,1.67l0.58,2.17l0.49,2.3l0.06,2.52l-0.5,2.76l-1.31,2.63l-0.86,1.63l-1.13,1.75l-1.57,1.66l-1.73,1.76l-1.1,0.78l-1.13,0.36
			l-0.85,0.54l-2.1,0.63l-1.8,0.32l-1.62-0.56l-0.37,0.26l-1.34,0.23l-1.3-0.75l-2.06-0.04l-1.79-1.06l-1.84-1.29l-0.98-0.33
			l-2.28-1.38l-0.96-0.82l-1.28-0.63l-1.1-0.91l-0.95-0.52l-6.99-4.53l-0.59-0.78l-1.07-0.19l-0.71-1.05l-0.14,0.21l-1.42-0.72
			L58.82,145l-1.84-1.29l-0.79-0.31l-1.06-1.28l-1.07-0.49l-2.39-2.74l-1.44-2.52l-0.48-1.7l-0.45-2.68l0.13-0.81l-0.13-1.48
			l0.55-2.23l0.73-2.21l0.88-1.51l0.29-0.91l1.25-1.77l1.32-1.73l1.55-1.48l2.13-1.3l2.51-0.96l2.88-0.61l1.55-0.09l1.11,0.42
			l1.18,0.17l2.55,0.66l2.37,1.24l2.31,1.5l1.53,0.7l1.89,1.52l1.56,0.81l0.81,1.52l-0.68,1.05l-1.24,2.07l-1.29,2.14l-1.38,1.98
			l-1.38,0.6l-1.35-0.68L72.4,130.17z M55.88,134.36l-0.6,0.01l0.06,1.13l0.46,0.2l-0.08-0.65L55.88,134.36z M57.09,133.26
			l-0.92,0.5l0.77,0.8l0.75-0.7L57.09,133.26z M57.49,140.46l0.67-0.26l-1.04-0.08L57.49,140.46z M59.9,139.34l-1.31,0.34l0.7,0.45
			L59.9,139.34z M60.67,126.04l-1.08,0.29l0.86,0.06L60.67,126.04z M63.43,144.61l0.54,0.25l-0.19-0.62l0.9-0.31l-0.84-0.24
			l0.13-0.81l-0.52-0.73l-1.68,0.3l-0.04-1.02l-1.39,0l0.7,0.15l0.13,0.88l1.65,0.97l-0.52-0.73l1.2-0.32l-0.04,0.67l-0.43,0.81
			L63.43,144.61z M60.96,137.25l0.71-0.63l-0.08-0.65l-0.34,0.67L60.96,137.25z M62.4,141.46l1.22-0.2l-1.47-1.25l-0.46,0.4
			L62.4,141.46z M63.52,146.16l-0.11-1.36l-0.69,0.15l0.47,0.5L63.52,146.16z M64.02,119.97l1.02-0.04l-0.95-0.22L64.02,119.97z
			 M64.36,143.03l0.69-0.45l-0.02-1.2L64.36,143.03z M64.82,146.01l0.76-1.79l0.66-0.56l-0.72,0.03l-0.34,0.68L64.82,146.01z
			 M66.72,145.06l-0.87,0.43l1,0.45L66.72,145.06z M67.04,144.27l0.54-0.84l-1.54,0.99L67.04,144.27z M66.9,147.85l0.5,0.92
			l0.91,0.29l-0.5-1.52L66.9,147.85z M67.44,143.04l0.6-0.31l0.56,0.06l0.22,0.74l1.5-0.02l-0.03-0.72l0.24-0.84l-1.45,0.55
			l-0.68-0.94l-0.4,0.93L67.44,143.04z M71.49,147.35l-0.79-0.31l0.25-0.54l-1.39-0.01l-0.5-1.22l-0.05,1.46l0.72-0.03l0.55,1.15
			l0.43-0.81l0.33,0.71L71.49,147.35z M70.64,144.22l-1.12,0.96l0.82-0.66L70.64,144.22z M71.48,123.61l-0.81-0.13l0.01,0.6
			L71.48,123.61z M73.49,130.48l0.19-1.07l-0.62,0.19L73.49,130.48z M75.78,149.93l-0.41,0.33l-0.03,0.97l0.42-0.03L75.78,149.93z
			 M78.95,148.71l-0.76,0.1l-1.03,0.52l-0.34,0.67l0.58-0.12l0.91,0.29l0.2-0.76L78.95,148.71z M77.62,152.91l0.65,0.22l-0.05-0.53
			l-1.15,0.55L77.62,152.91z M82.64,154.98l-0.15-0.99l-1.18-0.17l0.06,1.13l-0.66,0.56l0.92-0.5L82.64,154.98z M81.81,156.72
			l1.09,0.01l-0.38-0.64L81.81,156.72z M83.11,151.8l-0.49,1.37l0.71-0.33l-0.28-0.48L83.11,151.8z M84.33,155.58l0.22-0.95
			l-0.91,0.8L84.33,155.58z M84.77,151.99l-0.6,0.31l-0.14,0.21L84.77,151.99z M85.5,159.61l1.14,0.24l-0.12-0.58l-1.78-0.16
			l-0.17,1.18l0.43-0.51L85.5,159.61z M85.61,155.91l1.14,0.84l-0.77-0.8l-1.02-0.57L85.61,155.91z M86.1,154.54l-0.62,0.19
			l0.49,0.62L86.1,154.54z M86.51,159.27l0.42,0.27l0.52-0.65L86.51,159.27z M89.05,153.97l-0.77-0.2l-0.48,0.58L89.05,153.97z
			 M88.91,155.56l-0.45,0.7l-0.62,0.19l0.88-0.13l0.65,0.22L88.91,155.56z M88.88,158.22l-0.53-0.25l-0.43,0.51l0.32,1.5
			L88.88,158.22z M88.35,160.56l0.14,0.09l0.09-0.14L88.35,160.56z M91.55,157.77l0.73,0.87l0.49-1.07l-2.01-0.11l0.68,0.94
			L91.55,157.77z M92.62,156.28l0.3,0L92,155.09l0.2,0.92l-1.29,0.46l1.6,0.44L92.62,156.28z M93.03,159.63l-0.58,0.12l-0.26-0.67
			l-0.42,1.42l0.55-0.54l0.4,0.76l0.13-0.81L93.03,159.63z M95.41,159.48l-0.9,0.31l0.81,0.43L95.41,159.48z M96.24,137.67
			l-0.23,0.05l0.21,0.14L96.24,137.67z M96.7,155.65l1.4-0.48l-1.07-0.19l-0.94,0.38L96.7,155.65z M96.33,156.99l1.28,0.33
			l0.23-0.35L96.33,156.99z M98.7,153.17l0.69-0.15l-0.95-0.22L98.7,153.17z M99.3,147.2l0.41-0.63l-0.83,0.06L99.3,147.2z
			 M99.33,154.97l0.57-0.72l-0.47-0.5L99,154.86L99.33,154.97z M100.32,156.8l0.68,0.64l-1.06-1.58L100.32,156.8z"/>
		<path d="M109.5,94.2l1.1,1.26l1.14,0.85l0.64,1.63l1.07,0.32l0.32,0.99l0.7-0.26l0.85,0.8l1.82,1.83l1.63,1.43l2.12,2l0.68,0.98
			l1.26,0.85l1.22,1.26l1.94,1.83l0.8,1.1l1.49,2.67l0.58,1.81l0.48,2.17l0.12,2.18l-0.28,2.48l-0.64,2.14l-0.9,1.56l-0.97,1.15
			l-0.66,1.43l-1.6,1.7l-2.24,1.89l-2.02,1.42l-1.74,0.88l-2.63,0.61l-2.35,0.19l-1.07-0.2l-0.82,0.14l-1.9-0.53l-2.21-0.82
			l-2.22-1.41l-2.11-1.76l-3.76-3.54l-1.89-2.01l-0.9-0.62l-1.94-1.83l-1.58-1.6l-1.7-1.6l-2.24-2l-1.33-1.26l-1.4-1.43l-1.39-1.08
			l-0.37-0.7l-1.08-0.79l-0.92-1.09l0.7-0.14l-1.37-0.37l-1.88-1.89l-0.84-0.56l-0.73-0.92l-1.29-1.67l-0.2-0.76l-0.73-0.69
			l-1.14-2.8l-0.23-1.7l-0.08-2.83l0.28-2.37l0.45-0.84l0.71-1.97l2.14-3.25l1.09-1.15l1.78-1.64l0.92-0.73l1.05-0.5l1.09-0.92
			l1.45-0.81l0.82-0.14l0.77,0.15l0.92-0.62l0.95,0.09l0.82-0.26l1.59,0.01l2.43,0.34l2.08,0.71l0.31,0.52l2.15,0.88l1.22,1.26
			l0.66,0.28l0.8,1.1l0.96,0.44l0.67,0.75l-1.11,0.44l1.18,0.08l1.92,1.24l0.73,0.8l1.82,1.72L109.5,94.2z M78.63,94.99l0.57-0.72
			l-0.92-1.09l-0.31,1.42L78.63,94.99z M79.57,90.72l0.44-1.07l-1.06,0.03l0.54,0.4L79.57,90.72z M79.59,99.44l0.4-0.54l-1.01-0.15
			L79.59,99.44z M79.74,100.5l0.77,0.04l-0.5-0.81L79.74,100.5z M79.85,92.24l0.56,0.99l1.24,0.14l-0.26-0.93l0.71,0.21l0.26-1.13
			l0.59-0.02l0.32,0.76l1.07,0.2l0.74-1.02L84,91.12l-0.15,0.89l-0.16-1.41L83,91.21l-0.56-0.87l-0.45,0.6l-0.21,0.71l-0.6-0.22
			l-0.74,0.91L79.85,92.24z M80.51,88.63l0.44-0.96l-0.81,0.38L80.51,88.63z M82.23,94.83l0.15-0.89l-0.54-0.28l-0.65,0.08l-0.5,0.9
			l0.44,0.87l-0.08-0.76l0.94-0.26L82.23,94.83z M82.54,107.37l0.25,0.46l0.58-0.49l-1.42-0.19L82.54,107.37z M82.49,109.85
			l0.65,0.04l-0.13-0.47L82.49,109.85z M82.64,88.92l0.78,0.39l-0.04-1.18l-0.6-0.22L82.64,88.92z M83.19,89.67l-0.04,0.53
			l1.41-0.16l-0.48-0.46l1.32,0.79l-0.6-0.22l0.9,0.39l0.46-0.25l0.51-0.66l0.04-0.65l-0.96-0.56l-0.8,0.85l-0.5-1.05l-0.66,1.67
			L83.19,89.67z M83.79,99.85l0.25,0.46l0.23-0.24L83.79,99.85z M84.71,111.02l-0.69,0.49l0.82-0.02L84.71,111.02z M84.34,86.63
			l0.14,0.82l1.07,0.32l1.27-0.86l-0.07-0.41l-0.6-0.34l0.43,0.64l-0.92,0.73l-0.73-0.69l-0.37-0.7l0.28-0.54l-0.75,0.43
			L84.34,86.63z M84.31,105.38l0.12,0.11l0.17-0.18L84.31,105.38z M85.64,92.78l-0.08-0.65l-0.2,1.3L85.64,92.78z M110.89,109.37
			l-1-0.03l-0.89-0.27l-1.58-1.49l-0.55-0.75l-2.06-1.94l-0.72-0.33l-0.67-0.75l-1.88-1.65l-3.76-3.54l-1.7-1.84l-0.96-0.68
			l-1.7-1.72l0.83,0.21l-0.45-1.23l-0.74,0.79l-0.91-0.86l-1.08-0.56l-1.19-0.2l-1.11,0.21l-2.67,1.38l-0.59,1.96l0.05,1.77
			l0.32,0.99l1.53,2.02l0.91,0.74l1.76,1.66l0.32,0.76l1.01,0.38l0.37,0.58l0.66,0.39l0.49,0.58l1.09,1.03l1.34,1.38l0.9,0.62
			l1.46,1.49l2.13,2.12l1.45,1.25l0.38,0.81l2.47,1.87l5.03,4.74l1.76,1.78l1.86,1.07l1.13,0.38l1.24,0.02l1.4-0.63l0.81-0.61
			l0.62-0.78l0.77-1.79l-0.05-1.53l-0.44-0.99l-1.41-1.67l-1.7-1.72l-0.84-0.56l-1.52-1.43l-2.06-1.83l-0.75-1.39L110.89,109.37z
			 M85.6,105.34l0.42,0.4l0.75-0.67L85.6,105.34z M87.82,90.71l-0.91-0.74l-0.22,0.71L87.82,90.71z M88.31,87.4l1.54,0.31l0.51-0.55
			l-0.14-0.82l0.45,1.22l-0.32,1.19l-1,0.21l-1.19-0.32l0.62,1.16l0.82-0.26l0.93-0.38l0.6,0.34l0.76-0.32l0.2,0.64l-0.65,0.08
			l1.91,0.77l0.92-0.73l0.62-0.9l-0.64,0.31l-1.77-0.18l0.09-0.95l0.49,0.58l0.38-1.25l0.4-0.54l-1.32-0.67l-0.47,0.13l0.21-0.95
			l-1.07-0.32l0.03-1.12l-0.63,0.55l-1.12-0.14l0.26,0.94l0.75-0.55l0.43,0.64l-0.69,0.73l-0.81,0.38l0.22-0.71l-1.23,0.45
			l-0.61-0.57L88.31,87.4z M87.91,87.82l0.31,0.64l1.05-0.27L87.91,87.82z M90.48,90.81l-0.2-0.88l-0.22,0.6l-0.57,0.61L90.48,90.81
			z M92.03,87.34l-0.14-0.59l0.83,0.21l-0.9,1.32l-0.73-0.69L92.03,87.34z M91.74,107.46l0.58-0.37l-0.89-0.15L91.74,107.46z
			 M92.66,112.91l-0.21,0.83l0.81-0.38l-0.19-0.52l-1.18-0.2L92.66,112.91z M92.34,83.86l0.58-0.49l-0.82,0.26L92.34,83.86z
			 M92.91,85.2l0.44,0.87l0.27-0.77l-1.26-0.61L92.91,85.2z M92.96,91.09l-0.57,0.61l1.06-0.03L92.96,91.09z M94.58,113.92
			l-0.45,0.6l-0.71-0.1l0.09,1l0.89,0.27l0.34-0.6l-0.65,0.08l0.64-0.43L94.58,113.92z M94.4,91.99l0.76-0.08l1.17-0.39l-1.26-0.61
			l-0.45,0.6L94.4,91.99z M94.7,88.03l-0.27,0.77l0.58-0.37L94.7,88.03z M96.22,89.7l-0.15-0.94l0.58-0.49l-0.27-1.29l-0.8,0.73
			l-0.37-0.7l-0.11,0.36l0.64,1.75L96.22,89.7z M95.91,91l1.24,0.02l-0.49-0.58L95.91,91z M96.71,92.1l-0.61,1.14l1.17-0.15
			l0.05-0.41l0.71-0.02l0.02,0.71l1.36,0.25l-0.67-0.63l0.16-0.54l-0.66-0.39L97.8,91.3l-0.51,0.78L96.71,92.1z M97.91,94.95
			l-1.24-0.14l1.52,1.43L97.91,94.95z M97.16,89.67l0.45-0.6l-0.87,0.44L97.16,89.67z M97.41,86.12l0.03-0.89l-0.51,0.55
			L97.41,86.12z M99.55,94.55l-1.31-0.32l-0.09,0.83l0.81-0.38l0.85,0.8L99.55,94.55z M99.55,90.66l-0.83-0.21l0.86,1.15l0.78,0.39
			l-0.26-0.7L99.55,90.66z M102.03,96.78l-0.5,1.02l-0.56-0.99L100,97.84l0.6,0.45l0.15-0.77l1.81,1.36l-0.22,0.48l0.82-0.14
			l-0.79-0.98L102.03,96.78z M101.37,92.26l-0.15,1.01l0.58-0.25L101.37,92.26z M101.78,122.07l0.89,0.15l-0.72-0.45L101.78,122.07z
			 M103.54,93.84l0.43,0.64l-0.1-1.47l-1.18-0.08L103.54,93.84z M104.49,94.17l0.2,0.88l0.59-0.02L104.49,94.17z M105.64,93.19
			l0.46-0.48l-0.83-0.09L105.64,93.19z M105.55,102.27l-0.24-0.11l0.15,0.94L105.55,102.27z M107.37,99.98l-1,0.21l-0.6-0.34
			l0.14,0.59l1.36,0.02L107.37,99.98z M106.9,96.1l-0.4,0.42l0.49,0.69L106.9,96.1z M108.02,97.96l-0.69,0.73l1-0.09L108.02,97.96z
			 M108.48,101.48l-1-0.03l0.19,0.53l0.9,0.62L108.48,101.48z M108.61,106.07l0.26-1.13l-0.72-0.57l0.1,1.35L108.61,106.07z
			 M109.22,108.71l0.12,0.11l0.11-0.12L109.22,108.71z M109.25,105.64l0.5-1.13l-0.41,0.07L109.25,105.64z M113.02,99.58l-0.88,0.08
			l1.13,0.5L113.02,99.58z M114.4,100.42l0.49,0.58l0.28-0.54l-0.67-0.86L114.4,100.42z M114.66,103.18l1.3,0.2l-0.55-0.51
			L114.66,103.18z M115.73,107.51l-0.39,0.78l0.76-0.2L115.73,107.51z M116.09,105.56l0.43-1.43l-0.51,0.55L116.09,105.56z
			 M117.98,105.86l0.69-0.73l-1.18,0.04l-0.51,0.66L117.98,105.86z M121.12,124.39l0.18,0.17l0.17-0.18L121.12,124.39z"/>
		<path d="M137.63,64.73l1.61,2.34l1.46,1.72l-0.19,0.86l0.5-0.16l0.73,0.71l0.67,1.06l1.49,1.9l1.52,2.08l1.46,2.13l1.51,1.78
			l0.55,1.04l1.13,1.55l0.77,0.78l0.52,0.86l1.56,2.27l1.51,1.78l0.34,0.89l0.61,0.69l0.32,1l0.89,2.34l0.35,2.74l-0.1,2.55
			l-0.58,2.59l-1.32,2.72l-0.49,0.46l-1.27,1.65l-1.69,1.65l-1.63,1.3l-2,1.36l-1.21,0.47l-2.29,0.96l-2.52,0.5l-1.25-0.02
			l-2.51-0.33l-2.36-0.54l-0.99-0.51l-1.85-1.12l-1.25-1.15l-1.5-1.48l-2.05-2.52l-0.21-0.57l-1.71-2.05l-1.24-1.98l-0.82-0.84
			l-0.85-1.44l-1.51-1.78l-1.21-1.8l-2.51-3.43l-2.13-2.77l-1.09-1.78l-1.02-1.11l-3-4.1l-1.56-2.27l-1.53-2.08L106,73.42
			l-0.36-0.77l-0.82-0.84l-0.95-1.58l-1.4-1.77l-0.2-1.4l1.52-1.31l2.27-1.56l2.09-1.53l1.98-1.24l1.03,0.28l0.71,0.82l2.8,3.83
			l1.54,1.97l0.21,0.57l0.53,0.44l0.65,1.17l1.49,1.9l1.43,1.95l1.51,2.2l3.3,4.51l1.71,2.05l1,1.64l0.85,1.03l3.05,4.17l1.34,2.12
			l0.92,0.98l3.1,4.24l1.59,2.04l1.24,0.85l1.62,0.67l1.12-0.3l2.35-1.72l0.86-0.94l0.22-1.4l-0.32-1.42l-1.19-2.33l-1.84-2.37
			l-1.62-2.22l-1.51-2.2l-0.73-0.71l-0.57-0.92l-1.33-1.82l-0.86-1.74l-0.84-0.73l-3.74-5.11l-1.59-2.04l-1.72-2.35l-1.64-2.1
			l-0.49-1.09l-1.43-1.53l-0.7-1.24l-1.35-1.7l-1.44-1.83l-1.04-2.13l-0.91-0.68l-0.84-1.14l-0.54-1.16l0.92-1.29l2.29-1.67
			l2.28-1.26l0.86-0.94l1.19-0.77l1.08-0.07l1.08,1.48l0.79,0.66l0.46,0.91l1.64,2.1l1.64,2.52l0.87,0.91l0.75,1.31l0.48,0.37
			l1.01,1.95l0.6,0.39l1.66,1.99L137.63,64.73z M124.26,58.3l-0.55-1.04l0.6-0.44l-1.07-0.05L124.26,58.3z M124.58,88.52l-0.74-0.59
			l-0.51,0.58L124.58,88.52z M125.31,55.78l0.54-0.39l0.58,0.09l-0.41-0.84l-0.72,0.01l0.53,0.44L125.31,55.78z M127.45,59.27
			l-0.76,0.66l0.91,0.68l0.79-0.47l-0.77-0.06L127.45,59.27z M126.9,61.63l0.9-0.04l-0.39-0.54L126.9,61.63z M127.1,57.67l0.39,0.54
			l-0.04-0.48L127.1,57.67z M129.5,59.11l-0.42-0.01l-0.97-1.04l-0.66,0.79l1.43,0.4l0.23,1.59l0.44,0.61l-0.17-0.8l0.57-1.34
			l0.47-0.34l-0.72,0.01L129.5,59.11z M129.74,61.42l-0.06,0.77l-0.93-0.14l0.99,0.51L129.74,61.42z M129.95,64.25l-0.64,0.26
			l0.73,0.29L129.95,64.25z M130.13,66.19l0.12,0.73l0.76-0.66l-0.51-0.56l-1-0.09l0.25,0.34l0.96,0.33L130.13,66.19z M129.98,60.62
			l0.94,0.44l0.89-0.76l-0.87,0.22L129.98,60.62z M130.71,62.04l-0.26,0.5l0.08,0.67L130.71,62.04z M130.73,68.84l0.99-0.2
			l0.19,0.69l-0.25-1.47l-0.87,0.22l0.39,0.54L130.73,68.84z M131.35,62.92l-0.24,0.8l0.72-0.42l-0.49-1.09L131.35,62.92z
			 M132.27,60.5l-0.86,0.52l0.44,0.6l0.77-0.36L132.27,60.5z M132.83,64.94l0.09,0.55l-0.21,0.56l-0.95-0.03l0.33,1.72l0.18-0.75
			l0.49-0.46l0.7-0.31l-0.38-0.24L132.83,64.94l0.49-0.46l-1.12-0.11L132.83,64.94z M133.61,67.98l-1.14,0.84l0.8,0.24L133.61,67.98
			z M133.4,66.99l0.59-0.33l-1.17,0.24l0.64,0.87L133.4,66.99z M136.51,71.95l-0.95,0.39l-0.44-1.02l-0.11,1.11l0.55,0.32l0.49-0.46
			L136.51,71.95z M136.23,77.21l1.21-0.89l-1.34,0.15L136.23,77.21z M137.12,75.74l-0.08-0.25l-0.42,0.41L137.12,75.74z
			 M137.56,69.01l-0.77-0.06l0.19,0.69l1.13,0L137.56,69.01z M138.23,73.17l0.98,0.63l0.2-0.15l-1.01-0.4l-0.09-0.97l-0.66-0.34
			l0.06,0.78L138.23,73.17z M140.5,73.16l-0.45-0.19l0.85,1.44L140.5,73.16z M141.74,78.96l-0.83-0.01l-0.12-0.73l-0.16,1.05
			l0.56,0.62l1-0.32L141.74,78.96z M141.96,86.44l-0.52,0.69l0.63,0.16L141.96,86.44z M142.31,83.4l0.15,0.2l0.2-0.15L142.31,83.4z"
			/>
		<path d="M191.21,75.01l0.64,1.17l0.95,2.22l1.24,2.64l-0.56,1.37l-1.55,1l-2.56,1.02l-2.45,1.24l-1.15-0.29l-0.8-0.73l-1.67-1.61
			l-1.12-1.22l-1.82-1.72l-1.38-1.38l-1.49-1.42l-1.49-1.6l-1.53-1.49l-1.89-1.88l-1.71-1.68l-1.93-1.95l-1.39-1.19l-0.58-0.84
			l-2-1.92l-2.22-2l-0.78-0.09l1.21,2.38l0.95,2.22l1.45,3.09l-0.02,0.93l0.91,0.96l3.11,6.64l1.24,2.45l0.95,2.22l1.07,2.08
			l0.91,2.15l0.88,2.07l-0.03,1.3l-2.42,1.5l-0.75,0.17l-0.83,0.58l-0.71,0.24l-1.96,0.92l-1.31,0.34l-1.06-0.7l-0.39-0.83
			l-0.7-1.88l-0.61-0.91l-0.38-1.02l-1.17-2.3l-1.06-2.45l-0.95-2.04l-0.91-2.15l-1.18-2.12l-0.91-2.15l-0.92-1.96l-0.52-1.5
			l-1.11-1.97l-1.06-2.26l-0.91-2.15l-1.14-2.04l-0.06-0.71l-0.85-1.62l-1.14-2.23l-0.95-2.22l-1.1-2.15l-1.24-2.64l-1.16-2.68
			l-1.28-2.34l-0.49-1.43l-1.64-3.1l-0.61-2.29l0.84-0.95l1.29-0.79l1.09-0.23l1.97-1.11l1.58-0.56l0.95-0.53l1.04,0.06l0.99,0.73
			l1.71,1.68l1.63,1.72l1.6,1.64l1.63,1.72l1.67,1.61l1.9,1.69l1.62,2.09l1.46,1.16l0.39,0.64l1.09,1.15l1.32,1.04l1.77,2.02
			l2.36,2.3l1.21,0.81l-0.61-2.29l-1-1.74l-0.84-2.18l-9.33-19.92l-0.05-0.9l0.62-0.84l1.02-0.57l2.07-0.88l1.59-0.74l1.92-0.81
			l0.97-0.09l0.77,0.47l0.61,0.91l0.95,2.04l0.79,2.48l0.55,0.39l0.31,0.87l0.92,1.96l1.02,2.37l1.14,2.23l2.05,4.38l1.3,3.17
			l0.58,0.83l-0.44,1.03l1.18,0.37l1.84,3.92l0.05,1.08l0.76,0.84l0.71,1.51l0.2,0.82l0.5,0.68l0.7,1.7l0.75,1.21l0.53,1.32
			l1.06,2.26l1.1,1.97l0.84,2l0.73,1.96l0.57,1.02L191.21,75.01z M149.23,51.6l1.48-0.97l-0.17-0.56l-0.24,0.67l-0.9,0.05
			L149.23,51.6z M149.47,52.5l0.5-0.51l-0.44-0.35l-0.24,0.66L149.47,52.5z M150.87,53.13l0.54-0.62l0.05-0.67l-0.61,0.47
			L150.87,53.13z M151.67,48.16l0.49-0.32l0.39-0.74l-0.01-1.01l-0.78,1.47l-0.79,0.46L151.67,48.16z M152.5,50.72l-0.92-0.58
			l0.73,0.76l-0.05,0.67L152.5,50.72z M153.06,59.57l0.06,0.71l0.57-0.55L153.06,59.57z M154.53,61.54l-0.52-0.13l-0.35,0.44
			L154.53,61.54z M153.88,53.66l0.07,0.15l0.15-0.07L153.88,53.66z M154.8,48.16l-0.14-0.49l-0.73,0.8l1.5-0.33L154.8,48.16z
			 M154.03,57.91l0.9-0.24l-0.81-0.54L154.03,57.91z M155.65,58.63l-1.11-0.22l1.03,0.62l-0.47-0.42L155.65,58.63z M156.86,60.82
			l-0.44-0.16l-0.06-0.71l-1.6-0.26l0.31,0.87l-0.16,0.44l0.18,0.38l-0.03,1.12l0.96-1.09L156.86,60.82z M155.08,60.55l0.04,0.08
			l0.13-0.7L155.08,60.55z M156.46,57.79l-0.69-0.69l-0.61,0.47l0.7,0.5L156.46,57.79z M156.49,54.92l-0.86,0.13l-0.2,0.37
			l0.09,0.78l0.8-0.65l-0.44-0.16L156.49,54.92z M155.69,48.49l0.92,0.58l-0.1-0.6L155.69,48.49z M156.12,59.23l0.9-0.24l-0.55-0.57
			L156.12,59.23z M156.43,52.83l0.07,0.15l0.23-0.11L156.43,52.83z M157.47,60.54l0.17-1l-0.46,0.4L157.47,60.54z M157.77,53.12
			l-0.53,0.43l0.85,0.25L157.77,53.12z M159.43,53.73l-0.76,0.73l0.34,1.13l0.25-1.04l0.86,0.06L159.43,53.73z M159.22,66.25
			l-0.49,0.32l0.78,0.28l0.31,1.05l0.53-0.25l0.59,0.28l-1.16-1.11L159.22,66.25z M161.54,55.68l0.57-0.36l-0.61-1.1l-0.63,1.4
			L161.54,55.68z M163.36,56.03l-0.77-0.47l-0.92,0.98L163.36,56.03z M166.71,92.65l-0.13,0.7l0.21,0.45L166.71,92.65z
			 M167.62,60.01l-0.85-0.25l0.2,1.01L167.62,60.01z M168.76,63.44l0.4-1.11l-0.64,0.21L168.76,63.44z M169.21,67.92l-0.65-0.8
			l0.53,1.13L169.21,67.92z M169.13,66.58l0.07,0.15l0.23-0.11L169.13,66.58z M169.27,39.18l0.07,0.15l0.23-0.11L169.27,39.18z
			 M171.32,46.5l-1.05,0.31l0.68,1.06L171.32,46.5z M172.5,48.43l0.81,0.54l0.05-0.67L172.5,48.43z M175.21,67.96l0.42-1.85
			l-0.85,1.13L175.21,67.96z M175.23,55.62l0.34-0.25l-0.45,0.21L175.23,55.62z M175.26,68.86l0.8,0.73l-0.16-1.12L175.26,68.86z
			 M175.92,57.69l0.85,0.43l0.66-0.95L176.61,57l-0.76,0.54L175.92,57.69z M177.02,65.55l0.17-0.63l-0.94,0.16L177.02,65.55z
			 M177.03,53.77l-0.28,0.78l0.68-0.32L177.03,53.77z M177.75,53.15l-0.66-0.43l-0.08,0.41L177.75,53.15z M177.66,72.8L177.19,72
			l0.2,1.01l0.86-0.13L177.66,72.8z M177.88,61.28l-0.46,0.59l0.59,0.09L177.88,61.28z M178.48,63.95l-0.18-0.38l-0.64,0.39
			L178.48,63.95z M179.1,71.94l0.1-0.97l-1.29,0.79L179.1,71.94z M179.04,65.53l-0.61,0.47l0.7,0.5L179.04,65.53z M180.5,68.06
			l0.33-1.26l-0.97-0.1l-0.38,0.36L180.5,68.06z M181.5,71.37l-0.45-1.17l0.49-1.7l-1.08,1.43l0.24,0.9l-0.39-0.83l0.34-1.63
			l-1.15,1.28l0.65,0.8l-0.29,1.15l0.79-0.09l0.53-0.43l-0.33,1.07L181.5,71.37z M180.99,63.41l-0.63,1.4l0.88,0.69l-0.61,0.47
			l1.44,0.52l0.12-0.52l0.75,0.02l-1.37-0.56l-0.77-0.65l0.49-0.32L180.99,63.41z M181.65,72.86l-0.72,0.43l0.8,0.73L181.65,72.86z
			 M183.38,67.91l-1.61,0.29l0.81,0.36L183.38,67.91z M183.12,66.38l-0.91,0.42l1.42-0.11L183.12,66.38z M183.38,73.43l-0.68,0.5
			l1.42,0.07L183.38,73.43z M183.55,75.56l1.06-0.68l-0.86-0.06L183.55,75.56z M185.66,76.32l-0.46-0.79l-0.81,1.21l0.03-1.12
			l-0.56,1.55l0.57-0.36l0.74,0.21L185.66,76.32z M186.5,75.56l-0.72,0.43l0.32,0.68L186.5,75.56z"/>
		<path d="M213.47,22.81l-0.08,1.66l-1.43,0.81l-2.02,0.19l-1.57,0.59l-1.51,0.48l-2.34,0.62l-0.26,1.62l0.53,1.67l0.76,2.9
			l0.29,1.74l0.48,1.17l0.72,2.74l0.74,2.48l-0.19,0.57l0.54,1.07l0.56,2.44l1.06,3.69l0.03,0.77l0.84,2.19l0.51,2.28l-0.44,0.63
			l0.82,0.82l0.28,1.05l0.54,2.36l0.68,2.58l0.74,2.48l0.81,3.06l0.43,1.96l0.59,1.91l0.53,3.31l0.41,0.58l-0.92,1.1l-0.92,0.42
			l-2.12,0.47l-2.5,0.66l-2.68,0.62l-0.99-0.17l-0.53-0.72l-0.88-2.7l-0.16-1.25l-0.4-1.19l-0.72-2.4l-0.54-2.36l-1.06-4.03
			l-0.37-2.06l-0.74-2.13l-0.51-2.28l-1.1-4.19l-0.63-2.07l-1.25-4.76l-0.73-3.08l1.09-0.46l-0.7-1.02L197,42.41l-0.95-1.3
			l-0.18-1.33l-0.89-3.04l0.07-0.71l-0.42-0.92l0.03-1.21l-0.43-0.32l-0.28-1.73l-0.99-1.46l-1.07,0.2l-4.43,1.17l-1.11,0.03
			l-2.99,0.44l-0.46-1.09l-0.7-2.32l-0.62-2.34l-0.43-2.3l0.11-0.89l0.78-0.64l0.99-0.17l2.18-0.57l2.2-0.49l1.61-0.42l2.52-0.58
			l2.26-0.59l2.15-0.65l0.7,1.02l-0.28-1.05l3.12-0.91l2.26-0.59l1.83-0.57l2.34-0.62l2.14-0.39l1.57-0.59l1.5,0.12l0.7,1.37
			l0.56,2.44l0.45,1.69L213.47,22.81z M186.04,26.34l0.6-0.67l-0.92-0.53l-0.31,0.77L186.04,26.34z M188.24,27.48l-1.35-0.85
			l0.28,1.05L188.24,27.48z M189.85,26.37l0.42-0.71l-0.56,0.15L189.85,26.37z M192.8,21.89l-0.75-0.23l1.01,1.54L192.8,21.89z
			 M193.29,23.74l0.67,0.6l-0.17-0.64L193.29,23.74z M194.6,25.12l-0.77,0.03l0.95,0.35l0.48,0.82l0.6-0.67l-1.1-0.92L194.6,25.12z
			 M195.93,23.3l-0.45-0.74l-1.02-0.94l0.21,0.81L195.93,23.3z M194.72,26.55l0.72,0.76l0.42-0.03L194.72,26.55z M196.67,34.91
			l-0.03-1.11l-0.43-0.32l-0.71,1.22L196.67,34.91z M196.34,28.79l-0.6,0.67l0.87-0.31L196.34,28.79z M196.94,23.21l1.59-0.85
			l-0.27-0.7l-0.71-0.07l-0.56,0.15l-0.78,0.98L196.94,23.21z M198.05,33.95l-0.41-0.58l0.07,0.93l0.95-0.34L198.05,33.95z
			 M198.01,24.99l0.67,0.6l-0.09,0.63l0.58-0.41l-0.11-1.09l1.21-0.32l0.21-1.17l-0.85-0.29l-0.35,0.95L198.01,24.99z M200.26,45.26
			l1.11-0.03l-1.35-1.2l-0.67,1.04l-0.9,0.5l1.03-0.01L200.26,45.26z M199,21.54l0.62-0.25l-0.47-0.48L199,21.54z M200.5,31.15
			l-1.09,0.11l-0.25,0.67l0.34-0.35l0.85,0.29l0.99-0.17L200.5,31.15z M200.67,25.24l-0.77,0.03l0.82,0.82L200.67,25.24z
			 M200.15,22.96l0.71,0.07l1.42,0.49l-1.24-0.79L200,22.4L200.15,22.96z M200.42,22.03l0.81-1.16l-0.48,0.47l-0.59-0.28
			L200.42,22.03z M200.43,42.97l0.89,0.11l-0.05-0.85l-0.73,0.19L200.43,42.97z M201.2,46.22l0.75,0.23l-0.11-0.4L201.2,46.22z
			 M203.63,43.68l-1.15-1.08l0.48,1.17l-0.46,0.55l0.73,0.15L203.63,43.68z M203.69,25.91l-1.18,0.74l0.99-0.17L203.69,25.91z
			 M203.24,44.82l-0.64,0.86l0.81,0.13L203.24,44.82z M203.65,21.87l0.54-0.57l-1.09-0.23L203.65,21.87z M204.42,23.47l-1.3,0.95
			l0.01,0.69l0.62-0.59l0.87,0.03l0.49-1.08L204.42,23.47z M203.21,23.11l0.38-0.19l-0.25-0.97L203.21,23.11z M203.38,41.07
			l0.29,0.78l0.15-0.73l0.37,0.08l-0.05-0.85L203.38,41.07z M205.17,54.74l-0.5-0.9l-0.54,0.23l0.19,0.73L205.17,54.74z
			 M206.27,60.22l-0.55-0.46l-1.07-0.15l1.1,0.57L206.27,60.22z M204.99,62.89l0.06,0.24l0.24-0.06L204.99,62.89z M205.82,20.61
			l-0.63-0.44l-0.14,0.47l0.27,0.7L205.82,20.61z M206.52,62.48l-0.41-0.58l-0.67,0.09L206.52,62.48z M206.39,47.95l0.62-0.59
			l-0.83,0.13l-0.62,0.59L206.39,47.95z M208.73,61.38l-1.72-0.32l-0.07,0.71L208.73,61.38z M209.01,62.77l-0.53-0.38l0.06,1.19
			l0.8-0.56L209.01,62.77z M209.59,17.89l-0.91,0.15l0.43,0.66l0.42-0.37L209.59,17.89z"/>
		<path d="M239.22,65.88l0.33,2.56l0.07,3.1l-0.48,0.82l-2.06,0.35l-0.78-0.15l-0.72,0.26l-2.74,0.27l-2.39,0.31l-1.22-0.35
			l-0.43-1.37l-0.18-1.41l-0.2-2.16l-0.38-1.63l-0.09-1.33l-0.34-1.97l-0.24-2.49l-0.34-1.97l-0.46-2.88l0.01-1.18l-0.31-2.4
			l-0.05-1.67l0.42-0.64l-0.73,0.18l-0.4-3.06l0.06-0.85l-0.42-2.55l0.05-1.52l-0.31-0.46l-0.55-4.21l-0.42-2.55l0-1.26l-0.53-2.79
			l0.2-1.03l-0.48-1.11l-0.08-1.92l-0.26-0.72l-0.2-2.16l-0.46-2.21l0.12-1.02l-0.46-2.21l-0.01-1.34l-0.29-2.23l0.46-0.98
			l0.96-0.38l2.92-0.13l3.19-0.67l1.92-0.08l0.46,0.95l0.22-0.87l0.69,0.75l0.15,1.16l0.37,2.22l0.11,2.17l0.29,1.56l0.3,2.31
			l0.21,2.24l0.47,2.29l0.16,2.5l0.9,6.94l0.31,1.05l0,1.26l0.27,0.8l0.04,1.59l0.32,2.48l0.08,1.92l0.39,1.04l-0.58,0.75l0.69,0.16
			l0.44,3.39l0.25,2.57l0.39,2.3l0.29,2.23l0.29,2.9l0.11,1.5l0.43,1.37l-0.09,0.6L239.22,65.88z M223.69,29.84l0.86,0.14
			l-0.64-1.01l-0.15,0.78L223.69,29.84z M224.21,30.61l0.81,0.4l-0.44-0.78L224.21,30.61z M225.25,22.49l-0.9,0.2l0.25,0.64
			L225.25,22.49z M225.36,24.58l0.61,0.17l-0.59-0.68L225.36,24.58z M226.82,35.82l-0.79,0.36l0.26,0.72L226.82,35.82z M226.69,29.7
			l0.47,1.03l0.01-0.59l1.15,0.44l-1.06-1.71L226.69,29.7z M226.8,22.12l0.54,0.27l-0.18-0.73L226.8,22.12z M227.12,18.13
			l-0.11,1.11l0.75-0.69l0.95-0.46l-0.1-0.74l0.76-0.6l-0.74-0.49l0.33,0.63l-1.86,0.58L227.12,18.13z M227.34,36.59l0.4,1.12
			l0.59-1.25l-0.36-0.21l-0.47-0.36L227.34,36.59z M227.49,33.21l0.65-0.17l-0.19-0.81L227.49,33.21z M227.67,24.95l0.02,0.17
			l0.17-0.02L227.67,24.95z M227.79,24.6l0.4,0.45l-0.15-1.16L227.79,24.6z M228.66,49.27l1.22,0.35l-0.56-0.43l-0.04-2.26
			l-0.34,0.63l-0.41-0.54l-0.01,1.18l-0.67,0.67L228.66,49.27z M228.99,40.83l-0.2-0.9l-0.57,0.75L228.99,40.83z M228.36,26.37
			l-0.12,0.35l0.41,0.54l0.44-0.48L228.36,26.37z M228.81,32.37l-0.45,1.07l0.96-1.05l0.56,0.43l-0.2-0.9L228.81,32.37z
			 M229.98,42.04l-0.89-0.39l-0.32,0.13L229.98,42.04z M229.93,23.57l0.35-0.55l-0.29-0.3l-1.18-0.69L229.1,23L229.93,23.57z
			 M229.7,31.49l0.62-0.42l-0.58-0.6L228.92,30l0.76,0.66L229.7,31.49z M229.08,15.78l1.21-0.41l-1.17,0.07L229.08,15.78z
			 M229.25,43.48l0.92-0.04l-0.03-0.84l-0.91,0.12L229.25,43.48z M231,44.01l-0.88-0.31l-0.76,0.6l0.92-0.04L231,44.01z
			 M230.88,24.45l-0.94-0.13l0.6,0.76L230.88,24.45z M230.07,49.76l0.29,0.97l0.73-1.52l-0.54,0.41L230.07,49.76z M230.54,34.07
			l0.72-0.26l-0.17-0.65L230.54,34.07z M231.81,61.89l-0.51-0.69l-0.74,0.77l0.63,0.34l0.08,0.66L231.81,61.89z M231.18,42.22
			l0.25-0.62l-0.76-0.66L231.18,42.22z M230.84,36.39l0.49,0.52l0.35-0.55L230.84,36.39z M232.03,45.47l-0.82-0.48l0.05,0.41
			l0.84,0.65L232.03,45.47z M232.13,52.69l-0.86-0.14l0.07,0.5L232.13,52.69z M231.57,56.79l0.39-0.89l-0.57,0.16L231.57,56.79z
			 M232.7,59.67l-0.33,0.04l-0.33,0.71l0.66-0.09L232.7,59.67z M233,40.73l-0.92-0.64l0.35,0.71L233,40.73z M232.71,62.36
			l-0.07-1.17l-0.49,0.74L232.71,62.36z M232.44,49.96l0.32,0.55l-0.57-1.19L232.44,49.96z M233.01,58.79l0.6-0.58l-0.73,0.18
			L233.01,58.79z M233.06,39.88l0.54-0.41l-0.6-0.09L233.06,39.88z M235.65,62.98l-0.59-0.68l-0.9,0.87l0.69-0.51L235.65,62.98z
			 M235.45,58.22l-0.9-0.47l-0.05,1.52L235.45,58.22z M234.73,56.55l0.03,0.25l0.17-0.02L234.73,56.55z"/>
		<path d="M276.65,63.85l0.06,1.33l-0.12,2.42l-0.05,2.92l-1.1,0.98l-1.84,0.22l-2.75-0.21l-2.75,0.04l-0.9-0.76l-0.4-1.01
			l-0.8-2.18L265.53,66l-0.88-2.35l-0.64-1.84l-0.72-1.93l-0.63-2.09l-0.72-2.01l-0.88-2.51l-0.8-2.26l-0.87-2.6l-0.72-1.68l-0.15-1
			l-0.96-2.6l-1.12-2.77l-0.66-0.43l0.04,2.67L255.71,45l-0.05,3.42l-0.43,0.83l0.4,1.26l-0.12,7.33l0.04,2.75L255.41,63l0.05,2.33
			l-0.12,2.33l-0.12,2.25l-0.6,1.16l-2.84,0.29l-0.75-0.18l-1,0.15l-0.75-0.09l-2.17-0.04l-1.33-0.27l-0.65-1.09l0.01-0.92l0.2-2
			l-0.15-1.09l0.1-1.08l-0.04-2.58l0.13-2.67l0.04-2.25l0.12-2.33l-0.13-2.42l0.12-2.33l0.03-2.17l0.19-1.58l-0.13-2.25l0.04-2.5
			l0.12-2.33L245.67,37l0.26-0.66l-0.05-1.83l-0.04-2.5l0.12-2.42l-0.04-2.42l0.05-2.92l0.13-2.92l-0.12-2.67l0.19-1.5l-0.11-3.5
			l0.46-2.33l1.17-0.48l1.5-0.14l1.08,0.27l2.25-0.13l1.66,0.19l1.08-0.07l0.91,0.51l0.57,1.09l0.8,2.26l0.71,2.26l0.72,2.18
			l0.71,2.26l0.8,2.18l0.96,2.35l0.54,2.59l0.8,1.68l0.07,0.75l0.48,1.51l0.73,1.51l0.71,2.6l1.12,3.1l0.73,1.26l0.46-2.33l-0.14-2
			l0.21-2.33l0.36-22l0.35-0.83l0.93-0.49l1.17-0.06l2.25,0.12l1.75,0.03l2.08,0.12l0.91,0.35l0.49,0.76l0.15,1.09l-0.04,2.25
			l-0.38,2.58l0.32,0.59l-0.1,0.92l-0.04,2.17l-0.12,2.58l0.04,2.5l-0.08,4.83l-0.22,3.41l0.15,1l-0.84,0.74l0.9,0.85l-0.07,4.33
			l-0.43,0.99l0.31,1.09l-0.03,1.67l-0.18,0.83l0.15,0.84l-0.11,1.83l0.14,1.42l-0.11,1.42l-0.04,2.5l0.13,2.25l-0.12,2.16
			l-0.2,2.08l0.07,1.17L276.65,63.85z M246.9,68.95l-0.43,0.58l-0.01,0.5L246.9,68.95z M249.61,35.65l-0.41-0.34l-0.5,0.24
			L249.61,35.65z M249.15,33.23l-0.26,0.66l0.75-0.24L249.15,33.23z M249.02,25.31l0.67-0.24l-0.24-0.5l-0.51,0.49L249.02,25.31z
			 M249.21,24.39l1.75-0.22l0.09-0.58l-0.51,0.49l-0.83-0.35L249.21,24.39z M252.02,36.02l-0.33-0.34l0.26-0.66l-1.32-0.94
			l-0.1,0.92l-0.34,0.33l-0.01,0.42l-0.52,0.99l1.34-0.56L252.02,36.02z M250.01,26.49l0.76-0.32l0.34-0.58l-0.75,0.15L250.01,26.49
			z M250.53,35l0,0.08l0.42-0.58L250.53,35z M250.75,32.17l0.92,0.18l-0.49-0.84L250.75,32.17z M251.89,33.52l-0.91-0.68l0.65,1.01
			l-0.24-0.59L251.89,33.52z M251.76,41.94l-0.59,0.07l0.58,0.59l-0.18,1.08l0.58,0.01l0.41,0.51l-0.56-1.51L251.76,41.94z
			 M252.98,33.12l-0.32-0.92l-0.75,0.15l0.4,0.76L252.98,33.12z M252.53,25.03l-0.57-0.93l0.32,1.01l-0.34,0.58L252.53,25.03z
			 M252.05,34.27l0.91,0.18l-0.24-0.75L252.05,34.27z M252.91,22.37l0.58-0.07l0.67-0.49l0.43-0.91l-1.35,0.98l-0.92,0.07
			L252.91,22.37z M252.48,28.28l0,0.17l0.17,0L252.48,28.28z M252.69,36.03l0.6-0.82l-0.59,0.16L252.69,36.03z M254.27,30.56
			l-0.83-0.26l-0.34,0.24l-0.26,0.75l1.01-0.23l-0.33-0.34L254.27,30.56z M255.72,23.75l0.09-0.5l-1.01,0.4l1.5,0.36L255.72,23.75z
			 M255.14,28.66l0,0.17l0.25,0L255.14,28.66z M256.21,29.51l-0.67,0.16l0.66,0.59L256.21,29.51z M257.44,30.78l-1.01,0.32
			l-0.19,1.16l0.68-0.82l0.74,0.43L257.44,30.78z M256.37,24.43l0.57,0.93l0.18-0.58L256.37,24.43z M258.48,33.46l0.67-0.07
			l-0.06-1.25l-1.18,0.98L258.48,33.46z M259.96,34.57l-0.49-0.76l-1.26,0.48L259.96,34.57z M259.99,47.82l-0.24-1l-0.02,1.25
			L259.99,47.82z M260.51,46.58l0,0.17l0.25,0L260.51,46.58z M262.04,40.02l-0.66-0.59l-0.27,1L262.04,40.02z M261.56,43.6
			l0.85-0.82l-0.67-0.09L261.56,43.6z M265.02,51.32l0.4,1.01l0.35-1.08L265.02,51.32z M265.45,55.91l-0.07-0.92l-0.27,1l0.83,0.26
			L265.45,55.91z M265.37,50.49l1.19-1.48l-1.26,0.65L265.37,50.49z M267.12,55.77l0.51-0.83l-1.5,0.14L267.12,55.77z M268.06,49.12
			l0.42-0.49l-0.91-0.26L268.06,49.12z M269.52,56.31l0.1-1.25l1.19-1.31l-1.6,0.81l-0.18,0.91l0.01-0.92l1.02-1.32l-1.6,0.64
			l0.24,1l-0.76,0.91l0.75,0.26l0.67-0.16l-0.76,0.82L269.52,56.31z M269,57.72l-0.83,0.07l0.4,1.01L269,57.72z M271.09,62.59
			l-0.07-0.92l-1.26,0.73l0.52-0.99l-1.19,1.15l0.67-0.07l0.58,0.51L271.09,62.59z M269.88,49.98l-0.75,0.15l0.4,0.76L269.88,49.98z
			 M270.07,48.32l0.01-0.42l-0.75,0.07L270.07,48.32z M270.31,58.99l-0.84,0.15l1.24,0.69L270.31,58.99z M269.53,60.98l1.25-0.15
			l-0.74-0.43L269.53,60.98z M270.08,52.9l0.85-0.99l-0.83-0.51l-0.5,0.16L270.08,52.9z M270.7,45.66l-0.67,0.32l0.49,0.34
			L270.7,45.66z M271.29,29.5l-1.08-0.18l0.15,1.25L271.29,29.5z M270.51,41.57l0.57,0.76l1.01-0.57l-0.66-0.51l-0.92,0.15
			L270.51,41.57z M270.8,39.41l0.42-0.08l-0.5-0.01L270.8,39.41z M272.56,48.94l-1.18,0.98l0.48,1.01l-0.75,0.15l1.07,1.1l0.34-0.41
			l0.66,0.34l-0.98-1.1l-0.4-0.92l0.58-0.07L272.56,48.94z M272.73,54.03l-1.58-0.44l0.57,0.68L272.73,54.03z M272.18,62.27
			l-0.84,0.07l-0.01,0.75L272.18,62.27z M271.51,31.76l0.49,0.84l0.34-0.58L271.51,31.76z M273.17,52.54l-1-0.02l1.32,0.52
			L273.17,52.54z M273.23,38.54l-0.59,0.57l0.75,0.01L273.23,38.54z M272.67,22.02l0,0.17l0.25,0L272.67,22.02z M274.15,38.3
			l-0.41-0.67l-0.25,0.33L274.15,38.3z"/>
		<path d="M311.03,72.91l-0.68,3.35l-0.9,1.52l-2.07-0.25l-2.29-0.47l-0.76-1.26l-0.22-1.41l-1.11-0.4L302,74.64l-2.32,0.97
			l-2.63,0.4l-2.6-0.19l-2.61-0.53l-3.21-1.34l-0.8-0.67l-1.56-1.09l-1.43-1.74l-1.07-1.83l-0.84-2.13l-0.56-2.24l0.12-0.57
			l-0.26-0.82l0.3-0.62l-0.16-1.73l0.2-0.98l0.24-1.57l0.32-1.98l0.4-2.38l0.58-2.43l0.43-1.27l0.09-1.68l0.71-2.66l0.53-2.19
			l0.07-1.18l0.56-2.35l0.09-1.26l0.4-0.68l0.12-1.42l0.77-1.29l-0.26-1.24l0.52-2.1l0.35-2.14l0.98-4.82l0.89-2.28l1.27-2.04
			l1.61-2.05l1.02-0.81l2.1-1.53l1.21-0.52l2.67-0.99l1.45-0.04l2.99-0.07l2.55,0.43l2.66,0.71l2.56,1.2l0.96,0.71l1.38,1.13
			l1.17,1.34l1.2,1.61l0.76,1.69l0.76,2.54l0.1,2.4l0.19,1.14l-0.13,1.08l-0.22,2.76l-0.48,1.94l-0.24,1.99l-0.79,2.22l-0.88,0.59
			l-3.18-0.65l-2.79-0.49l-1.91-0.64l-0.7,0.11l-0.71-1.08l0.44-2.97l0.49-3.22l0.22-1.91l-0.27-2.01l-0.49-0.95l-0.68-0.82
			l-1.14-0.66l-1.22-0.25L303,24.76l-1.15,0.62l-0.87,0.93l-0.94,2.1l-0.58,2.86l-0.3,1.89l-0.83,3.23l-0.57,2.78l-0.02,0.93
			l-0.63,2.68l-0.56,2.35l-0.87,0.08l0.8,0.67l-1.97,9.63l-0.9,0.67l0.59,0.89l-0.59,1.24l-0.07,1.6l-0.04,2.71l0.21,1.06l0.57,0.97
			l0.99,0.97l1.27,0.43l2.19,0.11l1.18-0.35l0.92-0.75l1.15-1.89l0.58-2.01l0.05-1.09l0.76-2.06l-0.03-0.69l0.4-2.38l-0.62-0.72
			l-1.6-0.5l-2.29-0.47l-0.71-1.51l0.15-1.16l0.56-1.93l0.27-2.16l0.4-1.11l1.28-0.84l0.86,0.35l1.08,0.13l2.14,0.35l2.29,0.47
			l2.33,0.65l1.09,0.05l1.04,0.3l2.78,0.57l0.9,0.61l0.13,1.05l-0.15,1.16l-0.31,0.7l-0.04,1.01l-0.82,4l-0.53,2.19l-0.58,3.28
			l-0.85,4.16l-0.63,2.25l-0.45,2.2l0.08,0.87l-0.33,0.78L311.03,72.91z M285.72,64l1.03-0.05l-0.19-0.72l-0.8-0.67l-0.07,1.18
			l-0.98,0.22l0.72,0.66L285.72,64z M284.98,63.43l-0.27-0.74l0.03,0.69L284.98,63.43z M285.13,60.65l0.49-0.75l-0.49-0.53
			l0.29,0.65L285.13,60.65z M286.37,60.82l-0.57-0.12l0.39,1.01l0.64-0.21l0.02-0.51l0.56-1.93l-0.51,0.41l-0.29,0.19l-0.2,0.56
			L286.37,60.82z M287.21,67.11l1.26-0.34l-0.54-0.7l-2.11,0.33l0.62,0.3L287.21,67.11z M287.26,53.94l0.05-0.67l-0.69,0.45
			L287.26,53.94z M288.33,69.13l0.4-1.11l-0.96,0.14l-0.72-0.23l0.13,1.05l0.8,0.67l-0.52-0.79l0.57,0.12L288.33,69.13z
			 M289.17,59.18l-0.13-0.62l-0.67-0.48l-0.93,0.83l0.65-0.29L289.17,59.18z M288.27,43.18l0.32,1.34l-0.13,0.65l0.51-0.41l0.3-0.62
			l1.34,0.1l-0.55-0.62l-0.95,0.06l-0.54-0.71l-1.11-0.4L288.27,43.18z M287.7,48.08l1.11-0.45l-0.41-0.51l-0.43,0.42L287.7,48.08z
			 M288.85,53.25l0.6-0.05l-0.34-0.84l-0.49,0.33l-0.83-0.08L288.85,53.25z M289.02,48.69l-0.29-0.65l-0.9,0.67l0.5,0.44
			L289.02,48.69z M287.89,65.47l1.1-0.37l-0.77,0.01l-0.37-0.67L287.89,65.47z M290.23,63.14l-0.46-0.69l0.92,0.1l0.56-0.65
			l-1.34-0.1l-0.94,1.25l-0.56-0.2l-0.54,0.57l1.29-0.08L290.23,63.14z M288.69,61.55l0.42,0l-0.95-0.36l-0.12,0.57L288.69,61.55z
			 M289.54,69.46l-0.06-0.95l-0.51,0.83l-0.54,0.14L289.54,69.46z M290.76,64.69l-0.74,0.27l-0.63,1.83l0.8-1.03l0.13-0.65
			L290.76,64.69z M290.3,49.46l-0.67,0.37l0.33,0.49l0.9,0.18L290.3,49.46z M289.8,40.26l0.39,0.59l0.59-0.81L289.8,40.26z
			 M292.52,70.66l-0.41-0.93l-0.79,0.94l-0.6,0.05l-0.76-0.84l0.29,1.08l0.88,0.69l0.59-0.81L292.52,70.66z M290.72,68.26
			l-0.61,0.47l1.26,0.09l0.12-1.85L290.72,68.26z M290.76,60.53l-0.5-0.87l-0.1,0.92L290.76,60.53z M290.49,51.88l0.54,0.28
			l-0.1-0.36L290.49,51.88z M290.54,46.62l0.67,0.05l-0.34-1.26L290.54,46.62z M294.2,72.45l0.95-0.06l0.98-0.65l-1.88,0.04
			L294.2,72.45z M295.28,70.46l0.62,0.3l1.28-0.42l-1.05-0.3L295.28,70.46z M298.49,72.65l-0.06-0.52l-0.62,0.55l0.01,0.77
			L298.49,72.65z"/>
		<path d="M363.39,57.27l0.82-2.01l1.2-2.38l1.08-2.35l0.15-2.53l-0.26-1.53l-1.26-1.01l-1.04-0.52l0.49-0.78l0.22-0.82l-0.56-0.37
			l-0.45,1.82l-2.16,0.03l-1.6,0.78l-0.97,1l-0.41,1.01l-0.56,0.74l-0.75,1.68l-0.93,1.86l-0.64,1.64l-0.45,0.52l-0.56,1.3l-1.2,2.2
			l-1.01,2.2l-0.86,1.71l-1.09,1.97l-4.48,8.94l-1.08,1.79l-0.37,1.12l-0.86,2.09l-0.64,2.01l0.22,1.04l0.45,0.97l0.63,0.78
			l2.09,1.42l2.31-0.15l1.08-0.86l1.31-1.49l0.71-1.6l0.97-1.56l0.75-1.86l0.48-0.59l0.3-0.78l0.86-1.71l1.27-1.04l1.08,0.26
			l3.05,1.53l2.2,1.01l0.78,0.67l0.71,0.26l0.74,0.93l-0.08,0.52l-1.23,2.83l-0.97,2.12l-2.2,4.39l-0.67,0.97l-1.31,1.67l-1.53,1.56
			l-1.53,1.38l-2.09,0.82l-2.24,0.74l-2.5,0.33l-2.79-0.19l-2.76-1.01l-1.71-0.67l-1.86-0.93l-1.82-1.38l-1.93-1.53l-0.89-1.01
			l-0.48-1.08l-0.63-0.78l-0.85-2.01l-0.52-1.75l0.37-1.68l-0.3-0.34l-0.37-1.3l0.6-1.38l-0.18-2.05l0.86-1.9l1.09-1.97l0.22-1.01
			l1.12-2.42l0.71-1.04l0.49-1.34l0.78-1.19l0.41-1.01l3.74-7.45l0.71-0.67l0.08-1.08l0.97-0.82l-0.22-0.11l0.56-1.49l2.99-5.96
			l1.08-1.97l0.23-0.82l1.16-1.19l0.38-1.12l2.46-2.68l2.35-1.71l1.64-0.67l2.61-0.74l0.82,0.04l1.45-0.3l2.27,0.3l2.27,0.49
			l1.6,0.71l0.93,0.19l1.9,1.05l1.86,1.12l1.64,1.38l1.52,1.98l1.22,2.39l0.93,2.8l0.26,1.53l-0.3,1.15l-0.04,1.19l-0.38,2.61
			l-0.97,2.49l-1.24,2.46l-0.52,1.6L373,61.72l-0.64,1.64l-1.42,0.97l-1.12-0.56l-2.2-1.01l-2.27-1.05l-2.12-1.16l-0.74-1.31
			l0.52-1.42L363.39,57.27z M335.57,73.5l-0.11,1.15l0.56-0.19l-0.03-1.79l-1.19-0.04l0.56,0.37L335.57,73.5z M334.93,76.44
			l-0.07,0.15l0.15,0.08L334.93,76.44z M336.38,80.99l-0.18-0.56l0.63-0.33l-1.45-0.26l0.59,0.49l-0.71,0.48l0.82,0.04L336.38,80.99
			z M337.32,76.71l0.19-0.56l-0.56-0.37l-1.45,0.48L337.32,76.71z M336.02,74.47l-0.22,0.45l0.71,0.45L336.02,74.47z M336.78,83.34
			l-0.41-0.86l-0.34,0.86L336.78,83.34z M338.06,79.32l-0.78,0.82l1.12,0.38l-0.11-2.01l-0.86,0.78L338.06,79.32z M338.04,69.52
			l0.11,1.08l0.6-0.45L338.04,69.52z M339.26,73.21l-0.71,1.23l0.71-0.86l0.45-1.08L339.26,73.21z M339.96,76.45l-0.75-0.37
			l-0.26-0.6l0.22,0.86l-0.15,0.67L339.96,76.45z M339.66,80.21l0.04,0.3l1.08-1.04l-0.9,0.3l-0.59-1.23l-0.26,1.64L339.66,80.21z
			 M339.86,70.16l0.97-0.26l0.04-1.19l-1.12,0.18l-0.63-0.6l0.59,0.86L339.86,70.16z M339.35,83.98l-0.19,1.3l0.37,0.19
			L339.35,83.98z M339.98,87.93l-0.56,0.74l1.45-1.23L339.98,87.93z M339.45,71.91l0.97,0.11l-0.89-0.82L339.45,71.91z
			 M340.68,73.55l-0.26-0.6l-0.56,0.56L340.68,73.55z M340.73,84.2l0.63,1.34l0.08-1.08l-0.48-0.9L340.73,84.2z M341.57,76.42
			l0.11-0.78l-0.63-0.41L341.57,76.42z M341.36,64.94l-0.15,0.67l0.52-0.11l-0.67-1.08L341.36,64.94z M343.07,70.27l-1.41-0.34
			l0.41,0.67l0.45-0.33L343.07,70.27z M341.7,86.74l0.78,0.49l0.45-0.52l-1.15-0.3L341.7,86.74z M343.06,71.95l-0.37-0.56
			l-0.22-0.11L343.06,71.95z M344.12,62.79l-0.37-0.37l-0.97,0.07l0.07,0.41L344.12,62.79z M343.41,85.92l0.22,0.67l0.11-0.97
			L343.41,85.92z M345.68,65.81l-0.19-0.75l-0.63-0.97l-0.71-0.26l0.18,0.56l-0.19,0.93l0.78,0.11L345.68,65.81z M345.22,53.73
			l-0.86,0.59l-0.19,0.93l1.45-0.67L345.22,53.73z M346.22,58.24l0.22-0.82l0.56,0.19l-0.15-1.38l1.16-0.63l-1.45,0.11l0.11,0.71
			l-1.08,0.67l0.86,0.34l-0.67,0.41L346.22,58.24z M346.53,50.2l1.34-0.26l-0.22-0.67l-0.45,0.52L346.53,50.2z M346.82,51.46
			l1.86,0.56l0.63,0.6l-0.11-0.71l-0.71-0.26L346.82,51.46z M347.97,53.25l-0.52-0.82l-0.34,1.04L347.97,53.25z M348.05,49.94
			l-0.19,0.56l0.6-0.26l0.41,0.86l0.15-0.86l0.82,0.04l0.67-0.59l-0.48-1.64l1.01-0.15l-0.15-1.38l-0.08,0.71l-0.86,0.22l-0.78,1.75
			l0.67-0.59l0.45,1.16l-0.67,0.04l-0.86-0.34L348.05,49.94z M349.24,57.06l-1.08-1.01l0.75,0.75L349.24,57.06z M348.79,53.48
			l0.89,0.45l-1.15-1.42L348.79,53.48z M349.41,85.86l0.67,0.34l-0.15-0.82L349.41,85.86z M350.06,53.74l0.37,0.56l0,0.56l-0.71,0.3
			l0.18,1.49l0.71-0.11l0.86,0.15l-0.71-1.38l0.86-0.78l-0.97-0.3L350.06,53.74z M349.73,50.69l0.52,0.63l1.19-0.15L349.73,50.69z
			 M351.07,48.56l0.33,1.19l1.08-1.6l-0.45-0.41L351.07,48.56z M351.53,43.57l0.33,0.63l-0.04-1.04L351.53,43.57z M352.9,45.85
			l-0.48-1.27l-0.37,0.75L352.9,45.85z M355.1,46.67l0.71,0.63l0.63-0.15l-0.71-0.26L355.1,46.67z M357.42,41.31l-0.07-0.6
			l-1.12,0.18l-0.15,0.48l0.63-0.15L357.42,41.31z M358.65,42.39l-0.59-0.86l-0.71,0.86l0.78,0.67L358.65,42.39z M358.55,81.77
			l-0.07-0.22l-0.11,0.22L358.55,81.77z M363.21,58.38l1.08,0.08l-0.26-0.6L363.21,58.38z M366.21,45.16l-0.41-1.04l0.04,0.86
			L366.21,45.16z M369.8,55.64l0.04-0.82l-0.6,0.07L369.8,55.64z M372.61,47.82l0.15,1.01l0.11-0.97L372.61,47.82z"/>
		<path d="M403.25,90.25l-1.14,1.23l-0.72,1.23l-1.55,0.81l-0.2,1.1l-0.95,0.43l0.33,0.67l-0.7,0.93l-1.62,2.01l-1.24,1.78
			l-1.76,2.33l-0.9,0.78l-0.71,1.35l-1.12,1.35l-1.61,2.13l-1,0.91l-2.49,1.77l-1.74,0.78l-2.1,0.71l-2.15,0.36l-2.5-0.01l-2.2-0.41
			l-1.65-0.72l-1.25-0.84l-1.5-0.51l-1.86-1.41l-2.12-2.02l-1.63-1.86l-1.06-1.64l-0.89-2.55l-0.44-2.32l0.09-1.08l-0.23-0.8
			l0.32-1.95l0.57-2.28l1.16-2.36l1.52-2.29l3.12-4.12l1.79-2.09l0.52-0.96l1.61-2.13l1.42-1.75l1.41-1.86l1.74-2.44l1.1-1.46
			l1.27-1.55l0.92-1.5l0.65-0.45l0.67-1.16l0.99-1.03l0.22,0.68l0.22-1.4l1.67-2.08l0.47-0.9l0.84-0.83l1.52-1.46l0.73-0.28l0.6-0.8
			l2.65-1.44l1.67-0.41l2.8-0.39l2.38,0.03l0.88,0.35l2.03,0.49l3.46,1.78l1.26,0.95l1.83,1.59l0.83,0.84l0.61,0.99l1.03,0.99
			l0.96,1.35l0.23,0.8l-0.07,0.78l0.71,0.85l0.01,0.95l0.35,0.78l0.16,1.58l-0.08,2.45l-0.47,2.15l-0.48,0.36l-0.64,2.23l-1.12,1.35
			l-0.2,0.68l-1,0.91l-0.34,1l-0.67,0.75l-0.56-1.05l0.05,1.18l-1.03,2.05l-0.72,0.81l-1.51,1.99L403.25,90.25z M388.32,93.28
			l-0.08-1l0.17-0.92l1.31-1.73L390.4,89l1.71-2.26l0.25-0.75l0.67-0.75l1.44-2.05l3.12-4.12l1.64-1.89l0.57-1.03l1.52-1.88
			l-0.12,0.85l1.17-0.58l-0.86-0.65l0.75-1l0.44-1.13l0.07-1.2l-0.33-1.08l-1.66-2.51l-2.02-0.37l-1.75,0.24l-0.95,0.43l-1.84,1.74
			L393.58,70l-1.46,1.93l-0.72,0.4l-0.27,1.05l-0.54,0.43l-0.32,0.7l-0.52,0.55l-0.9,1.2l-1.22,1.48l-0.52,0.96l-1.32,1.61
			l-1.88,2.34l-1.09,1.58l-0.77,0.46l-1.59,2.66l-4.17,5.52l-1.58,1.94l-0.86,1.96l-0.25,1.17l0.11,1.23l0.78,1.32l0.7,0.74
			l0.85,0.54l1.86,0.57l1.52-0.21l0.94-0.55l1.5-1.58l1.52-1.88l0.47-0.9l1.26-1.66l1.59-2.24l1.3-0.9L388.32,93.28z M374.49,105.08
			l-0.15,0.2l0.2,0.15L374.49,105.08z M374.7,85.6l-0.05,0.9l0.37-0.77L374.7,85.6z M382.03,77.56l-0.65-0.39l0.02-0.72l-0.99,0.2
			l-0.17,0.92l0.63,0.27l-0.15-0.63l0.5,0.59L382.03,77.56z M382.82,75.54l-0.85-0.12l0.46,0.77l0.5-0.25l0.07-1.2L382.82,75.54z
			 M383.83,67.43l-0.56-0.63l0.11,0.82L383.83,67.43z M384.75,65.1l0.03,0.65l0.45-0.18L384.75,65.1z M387.22,64.88l-0.44,0.3
			l0.55,0.52l0.04-1.43L387.22,64.88z M388.14,74.03l0.43,0.53l0.05-0.9L388.14,74.03z M388.79,91.55l-0.1,0.13l0.13,0.1
			L388.79,91.55z M389.58,67.7l-0.35,0.47l0.75,0.67L389.58,67.7z M389.4,66.42l-0.1,0.13l0.2,0.15L389.4,66.42z M390.69,97.89
			l-0.82-0.3l0.28,0.73L390.69,97.89z M391.34,90.66l1.15,0.14l0.49-0.78l-1.33,0.25L391.34,90.66z M391.84,91.24l1.18,0.37
			l-0.12-0.4L391.84,91.24z M392.58,99.95l0.8,0.6l-0.16-1.17l-0.72-0.44L392.58,99.95z M392.67,98.03l1.47,0.27l-0.6-0.45
			L392.67,98.03z M393.75,61.35l0.05,0.77l0.75-0.58L393.75,61.35z M394.79,87.2l0.08-0.25l-0.92,0.25L394.79,87.2z M394.84,65.3
			l-0.43,0.3l0.27,0.2L394.84,65.3z M394.78,61.09l0.58,0.34l0.04-1.02L394.78,61.09z M395.9,90.02l-0.08-1l-0.5,0.25l-0.52,0.96
			L395.9,90.02z M394.87,96.35l-0.05,1.32l0.45-0.6L394.87,96.35z M397.27,88.76l-0.31-0.97l0.27-0.63l-0.57,0.2l0.13,1.35
			L397.27,88.76z M397.59,95.8l-0.52,0.55l0.56,0.22l0.79-0.76L397.59,95.8z M399.87,83.1l-1.07-0.39l0.92-0.66l-1.13-0.85
			l-0.39,0.65l0.78,0.07l-1.16,1.95l-0.5-0.17l0.23,0.8l0.89-0.9L399.87,83.1z M398.28,94.33l-0.18-0.87l-0.37,1.18L398.28,94.33z
			 M399.35,89.19l-0.8-0.6l0.2,0.98L399.35,89.19z M399.66,63.2l0.9,0.05l0.22-0.57l-0.15-0.63l-0.95-0.4l-0.82,0.53l0.75-0.16
			l0.36,0.9L399.66,63.2z M399.11,59.65l0.78,0.49l0.99-1.03l-1.45-0.16L399.11,59.65z M401.07,87.88l-0.46-0.35l-0.64,0.56
			L401.07,87.88z M401.24,78.81l0-1.25l-1.26,1.66L401.24,78.81z M401.81,80.39l0.17-1.33l-0.83,0l0.46,0.77l-0.7,0.93L401.81,80.39
			z M401.97,60.56l-0.92,0.66l0,1.25l0.9-0.36l-0.14,0.73l1.15,0.14l0.08,0.58l-0.72,0.4l-0.09,1.08l1.1,0.62l0.2-1.1l-0.9-0.05
			l1.38-0.31l-0.68-0.62l0.8-0.65l-0.65-0.39l-0.73-0.14l0.15-0.62l-0.98-0.64L401.97,60.56z M402.06,66.38l0.63-0.15l-1.32-0.06
			L402.06,66.38z M402.73,85.26l-0.85,0.3l0.08,0.58L402.73,85.26z M402.95,84.28l-0.58,0.5l1.45-0.26l-0.05-1.18L402.95,84.28z
			 M403.94,77.3l-1.2-0.49l0.28,1.15l0.42,0l0.1,0.7l-0.7,0.1l-0.1,1.38l0.55-0.73l0.55,0.1l0.32-0.7l0.7-0.51l-0.83-0.42
			L403.94,77.3z M404.29,81.95l-1.02-0.04l0.31,0.55L404.29,81.95z M403.45,60.12l1.12,0.32l-0.15-1.05l-0.34,0.58L403.45,60.12z
			 M403.8,75l0.16,0.75l0.51,1.12l0.47-1.32l-0.65-0.39L403.8,75z M403.83,86.3l0.53,0.4l0-0.83L403.83,86.3z M404.54,73.47
			l-0.67-0.5l0.15,1.05L404.54,73.47z M404.55,70.97l0.85-0.3l-0.61-0.15l-0.67-0.5L404.55,70.97z M404.36,68.32l0.64-0.98
			l-0.73-0.14L404.36,68.32z M404.89,63.61l-0.53,0.01l0.31,1.38l0.4-0.53l-0.64,1.4l0.15-0.62l-0.29,0.93l0.3,0.43l0.71,0.44
			l0.65-0.03l0.45-1.02l-0.93-0.7l0.99-0.61l-1.73-0.47L404.89,63.61z M405.68,79.98l0.12-0.85l-1.05,0.98l-0.3,0.82l0.67-0.33
			L405.68,79.98z M404.94,76.39l0.11,1.23l0.52-0.55L404.94,76.39z M407.71,68.45l-0.14,1.57l0.6,0.45l0.8-0.23l-1.17,0.58
			l-1.22-0.19l-0.31-0.97l0.19-1.22l-1.09,0.75l0.35,0.78l0.48,0.88l-0.27,0.63l0.4,0.72l-0.62,0.26l-0.15-0.63L405,73.82l0.83,0.84
			l0.97,0.52l-0.38-0.6l-0.01-1.78l0.95-0.01l-0.52,0.55l1.28,0.24l0.58,0.34l0.52-1.38l-0.18-0.45l0.97,0.1l0.2-1.1l1.12-0.1
			l-0.61-0.57l0.02-1.13l-0.9,0.36l0.63,0.69l-0.59,0.5l-0.8-0.6l-0.46-0.77l0.73,0.14l-0.58-1.17l0.5-0.66L407.71,68.45z
			 M405.58,62.97l-0.3,0.82l1.17-0.16l0.15-0.62L405.58,62.97z M405.64,60.83l1,0.34l-0.46-0.77L405.64,60.83z M406.28,76.56
			l0.92-0.25l0.55,0.52l1.25-0.41l-0.81-0.72l0.65-0.45l-0.37-0.07l-1.67,0.83L406.28,76.56z M406.41,77.49l0.65,0.39l-0.53-0.82
			L406.41,77.49z M407.24,68.1l-0.6,0.38l0.38,1.02L407.24,68.1z M407.77,74.87l-0.8-0.19l0.43,0.53L407.77,74.87z M408.04,64.42
			l-0.8,0.23l-0.2,1.1l1,1.17l0.4-0.11l0.27-0.63l-0.59,0.5l-0.83-0.84l0.6-0.8l0.65-0.45l0.57,0.22l-0.51-0.7L408.04,64.42z
			 M408.16,72.13l0.57-0.2l-0.12,0.85l-1.41-0.76l0.6-0.8L408.16,72.13z M410.39,72.78l-0.82,0.53l0.8,0.19l0.47-1.31L410.39,72.78z
			 M409.96,77.36l0.88-0.06l-0.6-0.45L409.96,77.36z M411.66,72.06l0.55,0.52l-0.35-0.78L411.66,72.06z"/>
		<path d="M435.57,114.96l-2.15,1.85l-1.55,1.64l-0.88-0.1l0.22,0.48l-0.63,0.8l-0.98,0.78l-1.73,1.69l-1.91,1.74l-1.96,1.68
			l-1.61,1.7l-0.97,0.66l-1.41,1.29l-0.69,0.85l-0.79,0.61l-2.09,1.79l-1.61,1.7l-0.84,0.43l-0.62,0.68l-0.96,0.43l-2.23,1.14
			l-2.68,0.65l-2.54,0.18l-2.64-0.29l-2.84-1.01l-0.51-0.44l-1.78-1.08l-1.82-1.5l-1.47-1.48l-1.57-1.84l-0.6-1.15l-1.2-2.18
			l-0.77-2.45l-0.12-1.24l0.05-2.53l0.29-2.41l0.4-1.04l0.91-1.96l1.01-1.37l1.31-1.65l2.29-2.32l0.54-0.27l1.86-1.92l1.83-1.45
			l0.75-0.91l1.34-1l1.61-1.7l1.65-1.4l3.14-2.87l2.53-2.42l1.65-1.28l0.99-1.13l3.75-3.43l2.09-1.79l1.91-1.74l1.97-1.92l0.73-0.44
			l0.75-0.91l1.46-1.11l1.6-1.58l1.37-0.35l1.47,1.36l1.79,2.09l1.74,1.91l1.45,1.83l-0.16,1.05l-0.74,0.79l-3.5,3.21l-1.79,1.75
			l-0.54,0.27l-0.38,0.57l-1.1,0.78l-1.73,1.69L424.13,99l-2.02,1.74l-4.12,3.77l-1.86,1.92l-1.53,1.17l-0.93,0.96l-3.81,3.49
			l-1.96,1.56l-0.87,1.02l-3.87,3.54l-1.85,1.8l-0.71,1.32l-0.49,1.69l0.42,1.08l1.97,2.15l1.03,0.75l1.41,0.06l1.38-0.47l2.19-1.44
			l2.16-2.09l2.03-1.86l2.03-1.74l0.62-0.8l0.86-0.67l1.66-1.52l1.64-1.05l0.63-0.92l4.67-4.27l1.85-1.8l2.15-1.97l1.91-1.86
			l1.03-0.6l1.37-1.59l1.16-0.83l1.54-1.52l1.67-1.64l2-1.27l0.57-0.98l1.05-0.96l1.09-0.66l1.38,0.77l1.91,2.09l1.5,2.13l1.03,0.75
			l0.89,1.1l0.19,1.07l-1.35,1.24l-0.57,0.86l-0.85,0.55l-1.91,1.86l-2.33,1.9l-0.81,0.97l-1.22,0.89l-0.32,0.52l-1.82,1.22
			l-0.32,0.63l-1.79,1.87L435.57,114.96z M410.5,104.58l0.51-0.8l-0.63-0.44L410.5,104.58z M414.45,121.63l-0.75-0.45l-0.09,0.64
			L414.45,121.63z M417.52,121.65l-0.18,0.17l0.17,0.18L417.52,121.65z M421.87,120.6l-0.08-0.83l0.72-0.2l-1.06-0.05l-0.56,0.62
			l0.43,0.96L421.87,120.6z M423.01,114.93l1.01,1.11l-0.3-1.31L423.01,114.93z M424.57,115.65l0.24-0.11l-0.46-0.37L424.57,115.65z
			 M427.5,118.73l0.14-0.47l-1.34,1L427.5,118.73z M427.25,116.48l-0.52,1.04l0.17,0.18l0.28-1.05l0.95-0.19l0.27-0.7l-0.77,0.14
			L427.25,116.48z M428.27,114.64l-0.49-0.91l0.97-0.55l-1.12,0.01l-0.26,0.58l0.51,0.44L428.27,114.64z M430.73,108.55l0.31,0.96
			l-0.66,0.26l1.43-0.41l-0.32-0.84l-0.49,0.45L430.73,108.55z M431.31,115.36l-0.03-0.77l-0.66,0.27l0.13,1.13L431.31,115.36z
			 M431.9,111.32l-0.96-1.05l-0.15,0.82L431.9,111.32z M434.84,110.21l-0.54,0.15l-0.58-0.14l-0.08-0.95l-1.67,0.52l0.76,0.09
			l0.51,0.43l0.38,0.67l0.2-0.4L434.84,110.21l0.51,0.43l-0.01-1.12L434.84,110.21z M432.86,111.01l0.39,0.55l-0.36-1.14l-0.8,0.73
			L432.86,111.01z M433.3,107.67l-0.72,0.2l0.74,0.68l0.5-0.57l-0.01-1l-0.31,0.28l-0.22,0.99L433.3,107.67z M435.2,107.28
			l-0.33-0.6l-0.21,0.76L435.2,107.28z M436.68,108.52l-0.82-0.15l0.5,0.67l1.03-0.6L436.68,108.52z M437.48,107.79l-0.52-0.2
			l-0.66,0.15L437.48,107.79z M438,106.76l-0.77,0.02l0.04-0.94l-0.4,1.04L438,106.76z M437.48,103.96l0.14,0.89l0.49-0.45
			L437.48,103.96z M440.26,106.27l-0.04-0.42l0.93-1.08l-0.86-0.57l-0.24,1.46l-1.55,0.4l-0.55,0.51l0.78-0.26l1.4,0.42l0.39,0.43
			l-0.09-0.71L440.26,106.27z M439.19,109.17l-0.61-0.79l-0.55,0.51l0.44,0.73L439.19,109.17z M438.82,106.91l-0.34,0.99l0.85,0.8
			l-0.32-0.84L438.82,106.91z M439.88,104.24l-0.74-0.68l-0.58,0.98l0.56,0.73l-0.02-0.77L439.88,104.24z M440.5,100.97l0.97-0.66
			l0.51,0.55l-0.07-1.07L440.5,100.97z M441.44,103.72l-0.49,0.45l0.48-0.1L441.44,103.72z M443.12,101.73l0.45,0.49l-0.03,0.59
			l0.79-0.5l-0.09-0.71l-0.38,0.57L443.12,101.73z"/>
		<path d="M456.28,153.3l-1.35,0.83l-2.79,1.04l-2.05,0.48l-3.14-0.01l-2.57-0.67l-0.54-0.55l-1.15-0.27l-1.89-1.47l-2.14-2.2
			l-1.35-1.71l-2.41-3.9l-0.83-0.86l-1.45,0.51l-1.73,1.17l-1.98,1.23l-1.96,1.11l-3.74,2.51l-2.12,1.01l-2.32,1.63l-2.12,1.31
			l-1.96,1.11l-0.83-0.08l-1.1-0.99l-0.43-1.01l-0.77-1.09l-0.56-1.22l-1.54-2.18l-0.66-1.55l0-0.79l1.37-1.43l0.96-0.5l1.75-0.98
			l1.59-1.08l2.34-1.45l0.73-0.25l0.81-0.6l1.84-1.14l2.38-1.38l4.39-2.72l1.26-0.97l2.38-1.38l2.15-1.43l2.24-1.29l2.62-1.62
			l2.01-1.34l1.93-1l2.04-1.46l1.32-0.72l1.12-0.89l2.29-1.22l1.87-1.25l1.01-0.43l1.09-0.77l2.15-1.43l2.17-1.24l2-1.04l1.09,0.01
			l0.62,0.69l1.49,2.41l1.46,2.52l1.39,2.08l1.24,2.17l2.72,4.39l1.15,2.33l0.7,2.41l0.23,2.11l-0.19,2.86l-0.72,2.01l-0.8,1.87
			l-0.67,0.81l-1.42,1.66l-0.88,0.64l-1.2,1.23l-1.11,0.59l-2.31,1.82l-3.83,2.37L456.28,153.3z M413.11,147.96l-0.67-0.76
			l-0.31,0.78L413.11,147.96z M415.33,150.12l-0.12-1.3l0.22-0.92l-0.5-0.18l-0.56,0.84l0.69,0.16l-0.38,1.61L415.33,150.12z
			 M422.87,146.63l0.56-0.84l-1.05,0.36L422.87,146.63z M423.56,143.16l0.73,0.23l0.28-0.66l-1.41,0.09l-0.22,0.92L423.56,143.16z
			 M423.61,145.29l0.51,0.66l-0.44-1.19L423.61,145.29z M426.67,142.8l0.6-1.25l-0.91,0.27l0.65,0.09L426.67,142.8z M427.5,141.61
			l1.09-0.77l-0.6-0.02L427.5,141.61z M427.96,138.38l0.6,0.81l-0.2-0.95L427.96,138.38z M429.55,136.52l0.15,0.88l0.77-0.18
			L429.55,136.52z M430.17,141.33l-0.14,0.09l0.13,0.21L430.17,141.33z M432.41,137.5l-0.72-0.05l-0.14,0.87l0.98,0.47l0.6-0.77
			l-0.83-0.08L432.41,137.5z M433.46,135.08l-0.87,0.34l0.66,1.06l-0.87,0.34l0.9,0.03l0.59-0.47L433.46,135.08z M433.85,137.78
			l0.25,0.73l0.73-0.25L433.85,137.78z M435.94,134.82l0.36-1l-0.74,0.07L435.94,134.82z M437.32,133.87l-0.79-1.28l0.1,1.11
			L437.32,133.87z M437.97,143.17l0.05-0.72l-1.19-0.34l1.04,0.73l-0.9-0.03l0.78,0.79L437.97,143.17z M437.89,130.68l-0.56,1.62
			l0.87-1.13L437.89,130.68z M438.6,146.4l0.05-1.5l-0.37,0.52L438.6,146.4z M439.29,141.66l-0.76,0.67l0.39,0.64L439.29,141.66z
			 M439.31,136.46l0.22-0.92l-0.92,1.36L439.31,136.46z M438.86,140.65l0.8-0.3l-0.65-0.09L438.86,140.65z M439.19,130.56l0.76,0.12
			l-0.21-0.65L439.19,130.56z M441.19,146.47l-0.21,0.62l-0.79-0.49l0.81,0.68L441.19,146.47z M440.58,142.63l0.72,0.05l-0.89-0.33
			L440.58,142.63z M441.82,135.3l-0.34-0.87l-0.73,0.25L441.82,135.3z M445.35,143.7l1.29,0.97l2.64-0.16l1.72-0.87l2.8-1.34
			l1.3-0.9l2.11-1.5l0.43-0.56l2.07-2.36l0.39-1.12l-0.03-1.16l-1.07-2.67l-1.02-1.33l-0.16-0.58l-0.91-0.52l-9.57,5.92l-2.67,1.55
			l-0.48,0.49l-1.11,0.59l-0.7,0.92l0.52,1.15l1.49,2.41L445.35,143.7z M444.07,148.6l-0.44-0.71l-0.82,0.41L444.07,148.6z
			 M444.31,131.41l-0.9,0.45l1.03,0.24L444.31,131.41z M445.51,147.12l-0.61-0.51l0.01,0.97L445.51,147.12z M446.36,147.38
			l-0.67,0.02l0.99,0.66l0.3-0.78L446.36,147.38z M446.26,148.81l-0.31-0.98l-0.22,1.7L446.26,148.81z M447.55,125.87l-0.14,0.09
			l0.13,0.21L447.55,125.87z M448.79,151.17l-0.14,0.09l0.09,0.14L448.79,151.17z M461.93,140.4l-0.21,0.13l0.09,0.14L461.93,140.4z
			"/>
	</g>
	<g>
		<path d="M216.06,485.74l-0.9,2.6l-0.71,2.22l-0.46,2.29l-0.28,0.7l-0.63,2.25l-0.85,2.44l-1.03,0.58l-2.27-0.55l-0.92-0.43
			l-1.01-0.11l-1.02-0.37l-2.23-0.71l-0.91-0.77l0.46-2.9l0.52-2.19l0.74-2.04l0.71-2.23l0.65-2.33l0.57-2.35l0.59-2.43l0.74-2.65
			l0.41-0.84l0.59-2.43l1.9-6.82l0.57-2.35l0.46-0.73l-0.24-1.02l-0.56,0.45l-1.2,2.43l-1.17,2.35l-1.23,2.25l-0.39,1.1l-0.79,0.99
			l-0.23,1.15l-0.81,1.68l-0.92,1.13l-0.53,1.58l-0.25-1.28l-0.39,2.66l-1.56,3.11l-1.05,2.22l-0.6,0.61l-0.04,0.77l-0.75,1.44
			l-0.84,1.76l-1.56,3.11l-1.17,2.01l-2.36-0.23l-2.04-0.74l-1.09-0.13l-1.07-1.42l-0.08-0.97l0.17-1.25l0.23-2.7l0.18-2.2
			l0.11-1.96l0.29-1.04l0.13-1.69l0.13-2.64l0.24-2.1l0.14-2.38l0.27-2.52l0.14-2.38l0.36-2.24l0.04-2.32l0.24-2.1l0.27-2.52
			l-0.19-1.18l-0.75,0.83l-0.47,2.63l-0.7,1.27l0.08,0.63l-0.55,1.66l-0.04,0.77l-0.71,1.62l-0.23,1.75l-0.47,1.08l-0.09,0.93
			l-0.71,1.01l0.04,0.79l-0.27,0.96l-0.46,0.74l0.16,0.99l-1.01,3.61l-0.52,2.19l-0.45,1l-0.17,0.91l-0.53,0.98l-0.29,1.65
			l-0.56,2.01l-0.81,2.28l-0.84,0.54l-1.03-0.03l-2.11-0.5l-2.17-0.6l-2.5-0.95l-0.53-1.19l0.08-0.93l0.3-0.78l0.48-2.03l0.63-2.25
			l0.71-2.23l0.59-2.43l1.34-4.82l0.57-2.35l0.87-2.18l0.22-1.41l0.73-2.31l0.49-2.37l0.81-2.28l0.66-2.67l0.64-1.98l0.11-1.01
			l0.86-1.84l0.46-2.29l0.56-2.01l0.11-1.01l0.43-0.92l0.21-1.07l0.54-1.93l0.73-2.31l0.43-1.87l0.66-2.06l0.08-0.93l0.7-1.88
			l0.54-1.93l0.87-0.63l1.03,0.03l0.92,0.43l2.61,0.55l2.65,0.74l2.59,0.63l1.8,0.67l0.77,0.65l0.48,1.09l0.08,0.97l-0.22,2.36
			l-0.31,2.68l-0.33,2.42l0.27,1.2l-0.29,1.04l-0.05,1.11l-0.3,0.78l0.1,0.89l-0.26,2.78l-0.09,2.48l-0.24,2.1l-0.26,1.57
			l-0.05,1.72l-0.21,1.67l-0.08,1.53l-0.34,0.6l0.06,0.71l-0.14,2.38l0.91,0.17l1.17-2.01l0.99-2.32l1.19-2.09l0.48-1.42l0.86-1.23
			l0.52-1.24l0.96-0.34l-0.41-0.72l0.72-1.36l0.29-1.04l0.55-1.06l1.05-2.22l1.22-2.52l0.62-0.69l0.37-1.02l0.8-1.33l0.19-0.99
			l0.69-0.93l0.35-0.94l0.6-0.61l0.37-1.63l0.75-0.83l1.12-0.29l2.51,0.61l2.47,0.77l2.63,0.82l3.02,0.67l1.27,0.7l0.23,1.36
			l-0.32,1.47l-0.81,2.28l-0.47,2.64l-0.54,1.32l-0.87,2.18l-0.14,1.43l-1.14,4.09l-0.5,2.11l-1.05,2.82l-0.04,0.77l-0.56,2.01
			l-0.49,0.82l0.08,0.97l-0.43,0.92l-0.41,1.79l-0.45,1l-0.89,4.42l-0.45,1l-0.55,1.66l-0.52,2.19l-0.5,2.11l-0.73,2.31
			L216.06,485.74z M181.18,479.58l-0.81-1.44l-0.25,0.88L181.18,479.58z M181.88,479.25l-0.58-0.42l0.33,1.3L181.88,479.25z
			 M182.1,474.73l1.11-0.56l-1.06-0.55L182.1,474.73z M184.86,469.79l-0.7-0.28l0.21-1.07l0.72-0.41l-1.24,0.09l-0.69,0.93
			l0.75,0.73L184.86,469.79z M184.58,464.26l0.74-0.49l-0.57,0.19l-0.79-0.57l-0.41,0.84L184.58,464.26z M185.36,455.57l0.43,0.64
			l0.33-0.86L185.36,455.57z M187.14,455.38l-0.28-0.25l-0.56,0.45l0.49,0.4L187.14,455.38z M186.65,450.31l0.42,0.38l-0.07-1.32
			L186.65,450.31z M188.46,446.92l-1.23,0.7l0.72,0.2L188.46,446.92z M188.19,442.6l0.15,1.34l1.01,0.11l-0.51-0.66L188.19,442.6z
			 M188.59,447.99l0.6,0.95l0.35-0.94l-0.43,0.31L188.59,447.99z M189.75,450.05l-0.39-0.46l0.36,0.88L189.75,450.05z
			 M189.57,446.02l-0.04,0.16l0.16,0.05L189.57,446.02z M190.18,441.69l0.61,1.21l-0.01-1.21L190.18,441.69z M190.8,438.83
			l0.89,0.85l0.92-0.52l-0.37-0.54l-0.72-0.2L190.8,438.83z M194.54,481.31l0.11-1.01l-0.94-0.35l-0.77-0.04l0.16,0.65l0.85,0.06
			L194.54,481.31z M193.13,475.2l-0.07,0.24l0.24,0.07L193.13,475.2z M194.23,474.04l-1.16-1.1l0.42,0.98l0.66,0.1L194.23,474.04z
			 M193.53,440.81l-0.13,1.09l0.85,0.06l0.59-0.27l-0.64-1.13L193.53,440.81z M193.42,471.65l0.71,0.54l-0.36-0.88L193.42,471.65z
			 M193.6,478.8l0.64,1.13l-0.36-0.88L193.6,478.8z M194.23,453.54l-0.16-0.65l-0.02-0.87l-0.06,0.85l-0.28,0.7l0.62,0.26
			L194.23,453.54z M195.82,477.34l0.58,1.03l-0.24-1.02l-0.46-1.77l-1.13,0.03l1.14,0.58l-0.54,0.37l-0.55,0.71l-0.75,0.22l0.66,0.1
			l0.28,0.86l-0.48,0.47l0.98,0.53l0.22-0.8l-0.22-0.75l0.13-1.09L195.82,477.34z M196.66,468.4l-1.47,0.63l-0.98-0.53l0.27,1.2
			l0.52,0.32l0.35-0.94l0.66,0.1l0.49,0.4L196.66,468.4z M194.23,474.04l0.96,0.27l-0.43-0.64L194.23,474.04z M194.65,482.46
			l0.34-0.6l-0.76,0.57L194.65,482.46z M195.97,454.11l-0.55-0.5l-0.91,0.78l0.8-0.38L195.97,454.11z M195.2,461.86l0.66,0.1
			l0.7-0.33l-0.79-1.52l-0.23,1.14l-0.96,0.34L195.2,461.86z M195.24,452.09l0.82,1.7l0.9,1.12l-0.21-1.1l-1.31-1.84l-0.69-0.62
			L195.24,452.09z M195.09,463.82l1.21-0.01l-0.1-0.89l-1.09-0.13l0.99,0.79l-1.32-0.54L195.09,463.82z M195.2,484.52l-0.09,0.32
			l0.24,0.07L195.2,484.52z M197.59,483.71l-0.18-0.92l-0.96-0.27l-0.81,0.12l0.42,0.98l0.4-0.5l0.53-0.03l0.08,0.97L197.59,483.71z
			 M197.16,479.96l-1.26-0.44l0.25,0.33l-0.35,0.94L197.16,479.96z M196.38,464.78l-0.56,1.4l0.65-0.16l0.28-0.7l-0.04,0.77
			l1.14-0.37l-0.6-0.34L196.38,464.78z M197.04,473.27l-0.54,0.37l-0.09,0.32l1.07,0.21l-0.3,0.78l1.58-0.08l-0.52-0.32l0.21-0.46
			l-0.25-0.33l-0.49,0.21L197.04,473.27z M196.75,475.87l0.67,0.71l-0.36-0.88L196.75,475.87z M197.91,467.02l-0.81,0.12l-0.23,1.15
			l0.34-0.6L197.91,467.02z M198.08,455.56L197,455.7l0.3,1.73l1.24-0.43l-0.41-0.72l-0.87,0.02l0.33-0.25L198.08,455.56z
			 M199.93,477.18l-0.88-0.25l-0.82-0.49l0.43,1.25L199.93,477.18z M198.76,482.92l-0.35-0.62l-0.11,0.4L198.76,482.92z
			 M200.06,478.87l-1.36-0.72l0.38,0.8L200.06,478.87z M198.81,471.25l0.56,0.16l0.78-0.3l-0.57,0.19L198.81,471.25z M199.96,473.04
			l-1.01-0.11l0.66,0.44L199.96,473.04z M199.84,475l-0.7-0.28l0.35,0.62l-0.42,0.58l0.36,0.27l1.04-0.32L199.84,475z M201.4,475.95
			l0.17,0.31l0.08-0.93L201.4,475.95z M203.04,469.4l-0.49,0.21l0.05,1.05L203.04,469.4z M203.38,475.03l-0.8,0.38l0.47,0.48
			L203.38,475.03z M203.17,468.31l0.38-0.41l-0.52-0.32L203.17,468.31z M204.35,470.63l-0.38-0.8l-0.79,0.04l0.63,0.52
			L204.35,470.63z M204.05,473.58l-0.67-0.71l-0.11,1.01l0.22,0.15L204.05,473.58z M204.51,469.12l-0.51-0.66l-0.66,0.51
			L204.51,469.12z M203.76,463.72l0.63-0.08l0.54-0.71l-0.64,0.43l-0.43-0.64L203.76,463.72z M204.27,466.55l0.34-0.6l-0.77,0.91
			l1.02-0.24L204.27,466.55z M207.51,483.8l-0.05,0.16l0.24,0.07L207.51,483.8z M212.25,477.67l0.97-0.08l-0.4-0.11l-0.18-0.91
			l0.62-0.69l-0.06-0.71l-1.22,0.96l-1.04-0.29l-0.45-0.56l0.17,1.26l0.76,0.38l0.54-0.37l0.4,0.11L212.25,477.67z M210.62,474.19
			l0.76-0.57l0.74,0.46l-0.02-0.87l-0.83-0.14L210.62,474.19z M212.93,469.3l0.32-0.52l-0.45,0.05L212.93,469.3z M213.97,472.1
			l-0.08-0.97l0.26-0.62l-0.62,0.35L213.97,472.1z M214.04,462.86l0.48-0.47l-0.89,0.1L214.04,462.86z M214.75,450.35l-0.27-0.59
			l-0.38,0.76L214.75,450.35z M214.69,464.86l-0.16,0.56l0,0.61l1.28,0.7l-0.26-0.94L214.69,464.86z M214.82,467.49l-0.14-0.73
			l-0.13,1.09L214.82,467.49z M214.69,464.86l0.69,0.02l-0.38-0.8L214.69,464.86z M215.25,459.74l-0.46,0.39l0.41,0.72l1.71,0.39
			l-0.25-0.67l-1.17-0.15L215.25,459.74z M215.25,473.41l0.68,0.36l-0.02-0.87L215.25,473.41z M215.32,444.28l1.53-0.52l-0.41-0.72
			L215.32,444.28z M217.37,468.29l-0.35-0.61l0.72-0.41l-1.57-0.26l-0.38,0.76l0.6,0.34L217.37,468.29z M216.85,446.86l-1.05,0.05
			l0.29,0.51l1.02,0.37l-0.66-0.44L216.85,446.86z M216.62,448.62l0.26-0.62l-0.77-0.04L216.62,448.62z M217.92,463.51l0.46-0.39
			l-0.93-0.08l-0.79,0.65L217.92,463.51z M217.11,455.24l0.29,0.51l0.62-0.35L217.11,455.24z M218.83,454.34l0.98-0.42l-0.94-0.35
			l-1.05,0.05l0.26,0.94L218.83,454.34z M218.03,459.39l0.57,0.76l-0.43,0.31l1.05-0.05l-0.36-0.88l0.18-0.64L218.03,459.39z
			 M218.37,455.68l1.12,0.31l0.56-0.45l1.05-0.05l-1.24-0.52l-0.4,0.5l-0.21-1.1L218.37,455.68z M219.26,452.81l1.31,0.28l0.92-0.52
			l-1.26-0.44l-0.38,0.76L219.26,452.81z M219.5,460.93l0.76,0.38l-0.55-0.5l-0.06-0.71L219.5,460.93z M220.55,446.6l1.03-0.58
			l-0.53-1.19L220.55,446.6z M222,456.95l-1.4-0.56l0.35,0.62L222,456.95z M222.09,449.79l-0.3-0.78l-0.33,0.86l-0.06,0.85
			l-0.24,0.54l0.77,0.04L222.09,449.79z M221.95,446.55l-0.34,1.55l0.56,0.16L221.95,446.55z M223.98,449.2l-0.15-0.39l-1.14,0.37
			l1.37,0.38l1.36-0.23L223.98,449.2z"/>
		<path d="M254.29,501.23l-0.24,0.99l-0.72,0.61l-2.51-0.03l-1.15-0.25l-2.24-0.17l-1.84,0.03l-1.81-0.39l-1.27,0.15l-0.99-0.16
			l-2.25-0.09l-2.65-0.37l-2.33-0.09l-1.82-0.22l-4.07-0.31l-0.88-0.49l-0.3-1.53l0-1.09l0.3-2.9l-0.08-1.18l0.27-2.4l0.11-2.5
			l0.31-1.9l0.18-2.33l0.03-2.59l0.18-2.33l0.33-2.15l-0.2-0.69l0.38-2.81l0.37-4.9l0.29-1.57l-0.15-1.27l0.31-1.9l0.03-2.59
			l0.33-2.15l0.09-2.33l-0.03-1.84l0.24-0.9l-0.09-1.01l0.25-1.07l-0.01-1l0.24-2.07l0.37-4.82l0.31-1.82l-0.09-1.01l0.65-0.79
			l2.19-0.25l0.56,0.29l1.09-0.08l0.9,0.24l1.43-0.06l9.64,0.73l2.24,0.26l3.07,0.32l3.09,0.07l0.46,0.54l0.76-0.11l0.46,1.62
			l-0.24,0.9l0.2,0.68l-0.18,1.32l-0.25,2.15l-0.42,2.23l-1.22,0.58l-1.49-0.2l-2.24-0.25l-0.76,0.11l-1.39-0.36l-0.51,0.13
			l-3.07-0.24l-2.31-0.34l-1.34,0.07l-0.78,0.36l-0.41,1.05l-0.02,2.42l-0.22,0.65l0.03,0.75l-0.24,0.9l0.09,1.01l-0.18,2.33
			l-0.08,2.17l-0.29,1.57l0.58,1.22l0.99,0.24l1.09,0l2.5,0.02l0.9,0.24l2.07,0.24l2.17,0.08l0.79,0.56l0.25,1.1l-0.25,1.07
			l0.17,1.1l-0.27,2.4l-0.25,2.24l-0.56,0.79l-1.19,0.24l-1.32-0.18l-3.09-0.07l-1.48-0.36l-3.26,0l-0.7,1.45l-0.16,2.08l-0.51,0.13
			l0.53,0.71l-0.25,1.15l0.08,1.18l-0.17,1.07l-0.08,2.17l-0.38,1.73l0.02,1.92l0.15,2.44l1.14,0.42l5.24,0.4l0.68-0.12l0.66,0.13
			l2.15,0.25l2.17,0l1.98,0.32l1.54,0.62l0.1,0.84l-0.04,2.67l-0.27,2.4L254.29,501.23z M230.78,470.86l0.18,0.93l0.62-0.45
			L230.78,470.86z M232.34,468.97l0.09-1.25l-0.89,0.69L232.34,468.97z M231.74,480.13l0.53,0.79l0.2-1.49L231.74,480.13z
			 M233.1,487.58l-0.98-0.33l0.24,1.19L233.1,487.58z M232.22,467.29l1.1-0.25l-0.12-0.68l-0.78,0.36L232.22,467.29z M232.27,474.32
			l0.68-0.2l-0.44-0.79L232.27,474.32z M232.78,459.89l0.92-1.1l-0.61,0.29l0.23-0.82l-1.05,0.59l0.36,0.78L232.78,459.89z
			 M232.7,457.72l-0.01,0.17l0.25,0.02L232.7,457.72z M232.9,455.06l0.41,1.2l1.09,0l-1.09-1l0.08-1L232.9,455.06z M233.98,475.95
			l0.06-0.83l-0.71-0.56l-0.2,0.49l0.34,1.03L233.98,475.95z M234.07,457.23l-0.71-0.56l0.48,1.37L234.07,457.23z M234.77,480.94
			l-0.46-0.54l-0.6,0.21L234.77,480.94z M234.28,468.78l-0.1-0.93l0.38-0.56l-0.7,0.37L234.28,468.78z M234.33,459.34l-0.38-0.45
			l0.03,0.75l0.54,0.54L234.33,459.34z M234.44,493.04l0.56-0.71l-0.92,0.01L234.44,493.04z M234.99,493.5l-0.73-0.22l0.45,0.7
			L234.99,493.5z M235.13,474.03l-0.31,0.73l0.75,0.06l-0.1-0.93l0.24-0.98l-1.13,0.58L235.13,474.03z M234.68,465.72l0.59-0.12
			l0.54-0.46l0.11-0.41l-0.44,0.3l-0.56-0.38L234.68,465.72z M235.21,457.66l1.4-0.81l-1.5-0.11L235.21,457.66z M235.81,460.71
			l-0.37,0.47l0.88-0.6L235.81,460.71z M235.54,448.99l0.41,1.28l-0.38,0.56l1.01-1.18l-0.66-0.13L235.54,448.99z M236.57,480.41
			l-0.81-0.31l-0.12,0.41l0.41,0.12L236.57,480.41z M236.51,453.83l0.61-0.29l-0.38-0.45l-0.14-0.43l-0.8,0.61L236.51,453.83z
			 M237.06,468.5l-0.28-0.69l0.74,0.14l-1.07-0.25l-0.63,0.54l0.58,0.04l0.53,0.71l0.79,0.56l0.58,0.13l-0.19-0.77l0.74,0.14
			l0.31-0.73l-1.22-0.51l-0.13,0.66L237.06,468.5z M236.28,496.27l0.29-0.56l-0.3-0.44l-0.41,1.05l0.55,0.46L236.28,496.27z
			 M237.96,474.16l-1.21,0.49l-0.03-0.75l-0.7,0.45l1.04,0.58l0.13,0.51l0.31-0.81L237.96,474.16z M236.94,458.04l-0.41,0.97
			l0.67-0.03l0.81,0.4L236.94,458.04z M237.25,472.52l-0.64-0.38l-0.07,0.91L237.25,472.52z M237.68,493.28l-1.07-0.16l0.39,0.45
			l1.31,0.35L237.68,493.28z M236.66,450.66l0.59,1.05l-0.3-1.53L236.66,450.66z M236.98,462.89l0.7,0.72l0.27-1.32l-0.76,0.11
			L236.98,462.89z M237.1,449.27l0.73,0.31l-0.45-0.7L237.1,449.27z M238.95,472.23l-0.6-0.88l0.05,0.5l-0.3,0.65l-0.66-0.05
			l0.96,0.58L238.95,472.23z M238.53,450.3l-0.58-0.13l0.19,0.77L238.53,450.3z M237.98,458.62l0.64,0.38l-0.22-0.35L237.98,458.62z
			 M238.34,447.36l0.86,0.82l0.63-0.62l-0.67,0.03l-0.27-0.77l-0.15,0.82L238.34,447.36z M240.43,448.36l-0.69,0.28l-0.13,0.66
			l-0.85,0.19l0.2,0.68l0.7-0.36l0.04,0.59l0.74,0.22l-0.54-0.63l0.56-0.71L240.43,448.36z M242.3,469.9l0.46-0.55l-0.72-0.47
			L242.3,469.9z M244.28,471.39l0.49-0.88l-0.64,0.7l-0.4-0.28L244.28,471.39z M244.15,474.22l-0.02,0.25l0.25,0.02L244.15,474.22z
			 M251.66,499.61l-0.49-1.21l-0.08,1.08L251.66,499.61z M256.69,447.84l-0.02,0.25l0.25,0.02L256.69,447.84z"/>
		<path d="M295.02,482.2v1.92l0.13,2.41l-0.11,2.52l-0.39,2.21l-0.79,2.41l-1.15,2.19l-1.22,1.36l-1.48,1.3l-2.06,1.35l-2.09,0.94
			l-1.89,0.42l-2.06,0.35l-2.17,0.11l-2.25,0.11l-1.23,0.27l-2.34,0.04l-1.74,0.24l-4.9,0.43l-1.02-0.16l-0.4-0.72l0.25-0.94
			l-0.27-1.15l-0.5-0.88l0.09-0.93l-0.21-1.41l-0.12-3.33l-0.33-1.9l-0.19-2.16l1.05-1.35l-1.12-0.4l-0.08-1.83l-0.33-1.81
			l0.07-1.09l-0.25-0.98l0.18-1.77l-0.37-1.31l-0.96-10.96l0.04-1.43l-0.48-2.55l-0.83-9.46l-0.13-2.41l-0.14-2.58l-0.41-2.73
			l0.08-1.01l-0.32-1.73l0.43-0.79l2.87-0.67l1.66-0.15l1.01,0.08l2.16-0.19l2.24-0.28l3-0.1l2.64-0.4l1.09,0.07l3.54,0.27
			l1.55,0.53l1.36,0.3l1.23,0.65l0.56,0.7l1.12,0.4l0.81,0.68l-0.31,1.2l0.78-0.65l1.11,1.24l1.18,1.99l0.85,2.02l0.51,1.96
			l0.09,1.08l0.5,2.8l0.23,2.66l-0.44,0.71l-1.01-0.08l1.53,0.29l0.22,1.57l0.38,4.32l-0.58,0.97l0.59,1.04l0.24,0.82l0.05,2.42
			l0.43,2.97l-0.09,0.84l0.23,0.73l0.09,2l0.31,2.57L295.02,482.2z M264.55,452.33l1.18,0.07l-0.62-0.45L264.55,452.33z
			 M265.88,453.13l-0.88,0.5l1.33-0.12l0.1-0.76L265.88,453.13z M266.47,500.09l-0.32,0.11l0.73,0.69L266.47,500.09z M267.72,452.22
			l0.72,0.52l0.54-0.47L267.72,452.22z M269.89,488.5l-0.41-0.8l-0.64,0.31L269.89,488.5z M282.05,459.16l-0.49-0.88l0.22-1.27
			l-0.35-1.14l-0.11-1.25l-0.51-1.04l-0.71-1.44l-0.9-0.67l-0.84-0.01l-3.13-0.39l-1.16,0.18l-1.54,0.55l0.25,2.82l0.19,3.16
			l0.17,1.99l0.26,1.98l-0.03,1.59l0.3,1.56l0.07,2.75l0.38,2.48l0.02,2.09l0.26,1.98l0.14,2.5l0.33,2.81l0.25,2.82l0.13,2.5
			l0.4,2.64l0.08,2.84l0.48,1.71l1.61,0.28l1.07-0.18l2.22-0.44l1.04-0.51l1.47-1.38l0.34-1.87l0.08-2.01l-0.39-4.4l0-1.92
			l-0.25-0.98l0.09-0.84l-0.24-0.82l-0.26-2.07l0.15-1.1l-0.48-2.63l-0.11-2.25l-0.26-2.99l-0.12-2.33l-0.1-2.08l-0.23-0.73
			L282.05,459.16z M273.19,444.88l0.61-0.72l-0.96,0.5L273.19,444.88z M274.34,495.31l0.01-0.84l-0.51,1.8L274.34,495.31z
			 M276.21,446.96l1.72,0.52l0.52,1.21l0.96-0.5l-0.13-0.49l-0.93-0.08l0.86-0.66l-1.13-0.49l-0.75,0.07l-0.3-0.56l-1.22,0.36
			L276.21,446.96z M277.66,445.33l0.07,0.75l0.79-1.49l-0.79,0.49l0.03-0.67l-0.37,0.54L277.66,445.33z M282.27,445.43l0.12,1.33
			l1.39-0.37l-0.38-0.55l-0.3,0.36L282.27,445.43z M283.69,449.23l-0.86-0.26l1.5,0.95l0.35-0.78l-0.44-0.21L283.69,449.23z
			 M283.81,452.57l0.49,0.79l1-1.01L283.81,452.57z M284.85,459.67l-0.4-0.72l-0.41,1.12l0.39,0.63L284.85,459.67z M284.31,457.29
			l1.44,0.21l-0.9-0.76L284.31,457.29z M287,459.32l-0.73,0.23l-0.82-0.76l-0.7-0.36l0.5,0.96l-0.19,0.69l0.42,0.05l0.55-0.38
			L287,459.32z M285.13,455.21l-0.37,0.54l0.69-0.73l-0.36-1.22L285.13,455.21z M285.76,461.43l-0.39-0.63l-0.53,0.63l0.49,0.79
			L285.76,461.43z M285.96,465.6l-0.17-0.99l-0.74,0.15l0.21,1.4l0.43,1.13l0.02-0.67L285.96,465.6z M285.17,448.94l0.22,0.65
			l0.77,0.18l0.99,0.83l1.01,0.08l-1.12-1.33l0.47-0.37l-1.39,0.37L285.17,448.94z M285.33,451.77l0.6,0.2l0.18-0.85l0.53-0.63
			l-0.77-0.18l-0.34,0.95L285.33,451.77z M286.41,463.13l-0.74,1.15l1.06,0.66l0.12-1.52L286.41,463.13z M287.14,454.28l-0.9,0.25
			l0.69,0.19l-0.92,0.92l1.45-0.63l-0.29,0.44l0.28,0.31l1.56,0.62l-0.9-0.67l-0.43-1.05l-0.35-0.22l0.48-1.21L287.14,454.28z
			 M288.81,464.76l0.6-0.8l-0.16-0.82l-1.09-0.91l-1.11-0.24l-0.72-0.52l1.88,1.43l0.65,0.7l-0.12,0.59l-0.62-0.36L288.81,464.76z
			 M287.29,451.18l-0.69-0.27l0.07,0.83L287.29,451.18z M287.49,457.27l0.27-0.78l-0.97-0.58L287.49,457.27z M288.53,459.6
			l-1.72,0.4l0.58,0.87l0.84,0.01l0.95-0.58l0.83-0.07L288.53,459.6z M288.44,457.68l-1,0l-0.21,0.52l0.64,0.61l0.97-0.42
			L288.44,457.68z M288.81,466.69l-0.6-1.12l0.31,0.64l-1.14-0.57l0.47,0.63l0.27,1.15L288.81,466.69z M289.46,455l-1.05,0.43
			l0.58-0.13l0.46,0.54l0.07,0.83l-0.84-0.09l-0.2,0.6l0.22,0.65l0.87-0.58l0.33-1.03L289.46,455z M288.65,453.32l-0.09,0.85
			l0.43-0.79l-0.56-0.7L288.65,453.32z M289.75,469.78l0-0.92l-0.6,0.8L289.75,469.78z M290.02,464.24l0.64-0.31l-0.7-0.36
			L290.02,464.24z M290.85,469.94l1.12,0.32l-0.97-0.58L290.85,469.94z M291.01,474.52l0.03,0.33l0.25-0.02L291.01,474.52z
			 M292.72,473.04l-0.69,0.73l0.75-0.07L292.72,473.04z"/>
		<path d="M316.34,489.25l0.56,2.52l0.34,3.08l-0.41,0.86l-2.01,0.53l-0.79-0.08l-0.7,0.33l-2.7,0.51l-2.36,0.52l-1.25-0.24
			l-0.55-1.33l-0.31-1.38l-0.39-2.13l-0.52-1.59l-0.21-1.32l-0.52-1.93l-0.46-2.46l-0.52-1.93l-0.71-2.83l-0.09-1.18l-0.52-2.36
			l-0.2-1.66l0.36-0.68l-0.71,0.24l-0.67-3.01l-0.02-0.85l-0.64-2.5l-0.08-1.52l-0.35-0.43l-0.92-4.15l-0.64-2.5l-0.11-1.26
			l-0.78-2.73l0.11-1.05l-0.58-1.07l-0.25-1.91l-0.33-0.7l-0.39-2.13l-0.65-2.16l0.03-1.03l-0.65-2.16l-0.13-1.34l-0.49-2.2
			l0.37-1.02l0.92-0.46l2.9-0.39l3.12-0.95l1.91-0.25l0.54,0.9l0.14-0.89l0.75,0.69l0.25,1.14l0.57,2.18l0.31,2.15l0.42,1.53
			l0.51,2.28l0.41,2.22l0.67,2.24l0.38,2.48l1.52,6.83l0.4,1.02l0.11,1.26l0.34,0.78l0.18,1.58l0.54,2.44l0.25,1.91l0.48,1
			l-0.51,0.79l0.71,0.1l0.74,3.34l0.48,2.54l0.59,2.26l0.49,2.2l0.55,2.87l0.24,1.48l0.55,1.33l-0.04,0.61L316.34,489.25z
			 M297.67,454.73l0.87,0.06l-0.72-0.95l-0.08,0.79L297.67,454.73z M298.57,447.27l-0.88,0.28l0.31,0.61L298.57,447.27z
			 M298.25,455.45l0.84,0.33l-0.51-0.74L298.25,455.45z M298.86,449.34l0.62,0.12l-0.65-0.62L298.86,449.34z M300.05,442.76
			l-0.01,1.11l0.69-0.75l0.9-0.54l-0.16-0.73l0.71-0.67l-0.78-0.42l0.39,0.6l-1.8,0.74L300.05,442.76z M300.08,446.77l0.56,0.22
			l-0.24-0.71L300.08,446.77z M301.31,460.4l-0.76,0.42l0.33,0.7L301.31,460.4z M300.65,454.32l0.56,0.98l-0.05-0.59l1.18,0.33
			l-1.21-1.61L300.65,454.32z M301.2,449.51l0.04,0.16l0.16-0.04L301.2,449.51z M301.29,449.14l0.43,0.42l-0.25-1.14L301.29,449.14z
			 M301.75,457.75l0.63-0.23l-0.26-0.8L301.75,457.75z M301.79,440.24l1.16-0.52l-1.16,0.17L301.79,440.24z M301.9,461.13l0.5,1.09
			l0.48-1.3l-0.38-0.17l-0.5-0.32L301.9,461.13z M302.01,450.86l-0.09,0.36l0.45,0.5l0.4-0.51L302.01,450.86z M303.32,447.92
			l0.3-0.58l-0.32-0.27l-1.24-0.58l0.38,0.94L303.32,447.92z M302.99,456.79l-0.35,1.1l0.86-1.13l0.6,0.38l-0.28-0.88L302.99,456.79
			z M303.8,455.84l0.58-0.47l-0.63-0.54l-0.86-0.41l0.81,0.59L303.8,455.84z M303.92,465.21l-0.28-0.88l-0.51,0.79L303.92,465.21z
			 M304.35,448.72l-0.95-0.05l0.67,0.71L304.35,448.72z M304.34,473.65l1.25,0.24l-0.6-0.38l-0.24-2.25l-0.28,0.66l-0.45-0.5
			l0.09,1.18l-0.61,0.73L304.34,473.65z M305.02,466.33l-0.92-0.31l-0.31,0.15L305.02,466.33z M304.41,467.83l0.91-0.12l-0.1-0.83
			l-0.9,0.2L304.41,467.83z M306.2,468.2l-0.9-0.23l-0.71,0.67l0.91-0.12L306.2,468.2z M304.87,458.34l0.7-0.33l-0.23-0.63
			L304.87,458.34z M305.37,460.61l0.53,0.48l0.3-0.58L305.37,460.61z M306.23,466.4l0.2-0.64l-0.81-0.59L306.23,466.4z
			 M305.79,474.01l0.38,0.94l0.59-1.58l-0.5,0.45L305.79,474.01z M307.36,469.56l-0.86-0.41l0.09,0.41l0.9,0.57L307.36,469.56z
			 M307.91,464.74l-0.98-0.55l0.41,0.68L307.91,464.74z M308.1,476.74l-0.87-0.07l0.11,0.49L308.1,476.74z M308.6,485.93l-0.57-0.64
			l-0.67,0.83l0.66,0.28l0.14,0.65L308.6,485.93z M307.91,480.88l0.31-0.92l-0.55,0.21L307.91,480.88z M307.89,463.89l0.5-0.45
			l-0.61-0.04L307.89,463.89z M308.17,473.99l0.37,0.52l-0.68-1.13L308.17,473.99z M309.29,483.64l-0.33,0.07l-0.26,0.74l0.65-0.14
			L309.29,483.64z M309.54,486.32l-0.17-1.16l-0.42,0.78L309.54,486.32z M309.52,482.74l0.54-0.63l-0.71,0.24L309.52,482.74z
			 M311.9,481.96l-0.94-0.39l0.08,1.52L311.9,481.96z M311.03,480.35l0.05,0.24l0.16-0.04L311.03,480.35z M312.52,486.68l-0.65-0.62
			l-0.81,0.95l0.64-0.57L312.52,486.68z"/>
		<path d="M357.56,480.97l0.31,0.86l-0.41,0.59l-1.35,0.67l-2.22,0.72l-1.32-0.23l-0.32,0.82l-3.29,1.19l-1.06-0.24l-0.73-0.8
			l-0.89-1.72l-0.7-1.69l-0.6-0.67l-0.69-1.43l-0.18-0.73l-0.36-0.49l-0.97-1.69l-1.08-1.03l-1.43,0.7l-2.96,0.89l-2.29,1.01
			l-0.77,0.81l0.45,2.23l0.29,2.02l0.45,2.23l0.52,1.94l0.24,2.13l-0.21,0.88l-0.98,0.71l-4.94,1.79l-2.01,0.82l-1.03-0.16
			l-0.91-1.53l0.03-0.9l-0.37-1.28l-0.38-2.52l-0.47-2.76l-0.42-2.15l-0.33-2.36l-0.37-1.28l-0.35-2.18l-0.18-1.97l-0.71-2.93
			l-0.17-1.44l-0.48-2.31l0.03-0.9l-0.25-0.71l-0.42-1.89l0.58-1.1l-0.73,0.18l-0.22-1.6l-0.07-1.66l-0.45-0.99l-0.13-1.1
			l-0.43-2.41l-0.46-2.49l-0.32-2.1l-0.15-0.92l-0.2-1.52l-0.26-0.97l-0.39-2.78l-0.45-2.23l-0.57-2.8l-0.4-2.34l-0.01-1.24
			l-0.33-0.41l-0.05-0.87l0.58-0.83l0.09-0.74l1.44-0.43l2.24-0.9l2.07-0.39l0.27-0.72l1.57-0.3l1.3-0.56l1.39-0.33l1.1,0.58
			l1.43,2.23l1.14,2.16l1.27,2.29l1.1,1.82l1.22,2.39l1.28,1.58l0.84,1.82l0.97,1.69l-0.11,0.93l0.7,0.46l0.09,0.5l0.67,0.38
			l0.61,1.2l-0.2,0.43l0.75,0.35l0.53,1.22l0.82,1.03l0.83,1.56l-0.59,0.83l1.16,0.02l0.72,1.51l1.51,2.46l1.08,2l1.41,2.68
			l1.12,1.63l0.34,0.94l1.2,1.6l0.97,1.95l1.55,2.81l1.6,2.7l1.11,2.08l1.24,2.21l0.49,0.62L357.56,480.97z M320.76,438.82
			l1.11,0.13l-0.86-0.66L320.76,438.82z M320.98,440.16l-0.16,1.03l0.93-0.87L320.98,440.16z M321.62,445.86l-0.67,0.6l0.8,0.24
			L321.62,445.86z M322.71,447.15l0.06,0.16l0.24-0.09L322.71,447.15z M324.84,454.27l-0.11-1.29l-1.18,1.14l0.61,0.22
			L324.84,454.27z M323.93,452.47l1.02-0.37l-0.65-0.83L323.93,452.47z M324.73,473.54l-0.36-0.76l0.41,2.6l-0.84,0.13l0.7,0.46
			l0.34-1.01l-0.24-1.15L324.73,473.54z M324.36,442.65l0.95-1.05l-0.99,0.45L324.36,442.65z M325.36,449.83l-1.04-0.42l0.09,0.5
			L325.36,449.83z M324.73,464.23l0.06,0.16l0.24-0.08L324.73,464.23z M325.6,459.04l0.36-0.48l-0.71,0.25L325.6,459.04z
			 M327.18,460.95l-0.01-0.53l-0.24-0.18l-0.19,0.69l-0.54,0.73L327.18,460.95z M326.37,455.04l0.06,0.16l0.24-0.08L326.37,455.04z
			 M327.14,475.77l-0.67-0.64l0.03,1.05L327.14,475.77z M326.61,465.77l0.81-1.18l-0.9,0.68l0.13,1.1L326.61,465.77z M327.59,463.55
			l-0.12-0.58l-0.68,0.33L327.59,463.55z M328.3,467.73l-1.35-0.04l0.11,0.31L328.3,467.73z M328.05,460.91l-0.78-0.43l0.29,1.05
			L328.05,460.91z M328.57,465.06l-0.9-0.03l-0.29,1.17l0.95,0.19l-0.56-0.33L328.57,465.06z M329.06,466.65l-0.61,0.75l0.81-0.2
			L329.06,466.65z M336.35,466.94l0.82-0.92l-0.29-1.05l-1-2.03l-1.21-1.87l-1.11-2.08l-1.07-1.74l-1.19-2.31l-0.46-1.25l-0.93-1.35
			l-1.03-1.13l0.28,3.71l0.44,0.73l0.21,1.08l0.59,2.62l0.37,2.26l0.49,2.57l0.61,2.44l0.8,1.48l1.26-0.19l1.22-0.53L336.35,466.94z
			 M329.54,437.86l-0.45,0.96l0.73-0.18L329.54,437.86z M329.58,475.42l0.06,0.16l0.16-0.06L329.58,475.42z M330.08,443.51
			l0.55,1.04l0.49-0.35l0.61-0.04l-0.39-0.83l-0.71,0.26L330.08,443.51z M333.13,449.49l0.75,0.35l0.11-0.66l-0.75-0.35l-1.1,0.13
			l0.4-0.86l0.8,0.24l0.62-0.49l0.43-0.78l-1.45-0.09l-0.67,0.6l-1.1-0.84l0.95,0.9l-0.91,0.42l0.61,0.22l0.26,0.97l0.49,0.62
			L333.13,449.49z M332.2,445.22l0.56,0.33l-0.27-1.23L332.2,445.22z M333.99,447.94l0.65,0.83l0.89-0.23l-1.02-0.87L333.99,447.94z
			 M334.33,451.1l0.6-0.3l-0.25-0.44l-0.68,0.33L334.33,451.1z M335,453.43l-0.18,1.22l0.31-0.38L335,453.43z M335.48,452.81
			l-0.16-1.18l0.05,1.84L335.48,452.81z M335.84,450.11l0.06-0.82l-0.41,1.3l0.87-0.05L335.84,450.11z M336.3,451.89l0.77,0.43
			l-0.1-1.03L336.3,451.89z M337.46,454.84l-0.93-0.37l-0.18,1.22L337.46,454.84z M337.22,453.69l0.24-0.08l-0.47-0.81l-0.59,0.57
			L337.22,453.69z M337.84,455.15l0.51-0.54l-0.61-0.22L337.84,455.15z M339.11,470.9l-1,0.18l1.15,0.74l0.28-0.46L339.11,470.9z
			 M339.85,459.73l0.27-0.72l-1.18-0.81l0.63,0.75L339.85,459.73z M342.07,463.89l0.85,0.4l-0.52-0.7l-0.86,0.31l0.3-0.64
			l-0.67-1.35l-1.49,0.54l0.53-0.01l0.6,0.93l0.34,0.94L342.07,463.89z M341.14,461.84l0.82,0.06l-0.05-0.87L341.14,461.84z
			 M342.9,467.67l0.12-0.4l-0.71-0.01L342.9,467.67z M343.06,468.59l-0.16,0.06l0.06,0.16L343.06,468.59z M344.03,465.4l-0.26-0.71
			l-0.73,0.44L344.03,465.4z M343.85,467.59l-0.17-0.47l-0.33,0.56L343.85,467.59z M345.89,473.23l-0.18-1l-0.9,0.95l0.58,0.14
			L345.89,473.23z M347.1,473.15l0.11,0.31l0.24-0.08L347.1,473.15z M347.9,475.34l-0.63-0.04l1.13,0.92L347.9,475.34z"/>
	</g>
	<g>
		<path d="M360.82,357.76l3.28-0.64c-2.52-0.76-4.2-1.22-5.35-1.49l3.25-0.64c-2.71-0.82-4.46-1.29-5.6-1.55L160.49,157.52
			l2.01-2.01c-7.83-2.38-7.71-1.79-7.71-1.79c0.12,3.23,1.79,7.71,1.79,7.71l2.04-2.04l195.92,195.92c0.49,2.78,1.55,5.6,1.55,5.6
			l0.62-3.08c0.52,2.65,1.47,5.21,1.47,5.21l0.65-3.22c0.51,2.7,1.5,5.36,1.5,5.36l1-4.96l4.93-0.96
			C363.67,358.48,361.97,358.02,360.82,357.76z"/>
		<path d="M162.38,359.94l0.64,3.28c0.76-2.52,1.22-4.2,1.49-5.35l0.64,3.25c0.82-2.71,1.29-4.46,1.55-5.6l195.92-195.92l2.01,2.01
			c2.38-7.83,1.79-7.71,1.79-7.71c-3.23,0.12-7.71,1.79-7.71,1.79l2.04,2.04L164.82,353.66c-2.78,0.49-5.6,1.55-5.6,1.55l3.08,0.62
			c-2.65,0.52-5.21,1.47-5.21,1.47l3.22,0.65c-2.7,0.51-5.36,1.5-5.36,1.5l4.96,1l0.96,4.93
			C161.66,362.79,162.11,361.09,162.38,359.94z"/>
	</g>
	<path d="M259.67,424.39c-92.05,0-166.94-74.89-166.94-166.94c0-92.05,74.89-166.94,166.94-166.94s166.94,74.89,166.94,166.94
		C426.61,349.51,351.72,424.39,259.67,424.39z M259.67,95.75c-89.17,0-161.71,72.54-161.71,161.71
		c0,89.17,72.54,161.71,161.71,161.71s161.71-72.54,161.71-161.71C421.38,168.29,348.84,95.75,259.67,95.75z"/>
	<g>
		<path d="M243.44,157.92c7.51,0,13.78-5.23,15.42-12.24c0.75,6.4,6.18,11.36,12.78,11.36c7.11,0,12.87-5.76,12.87-12.87
			c0-7.11-5.76-12.87-12.87-12.87c-5.94,0-10.93,4.03-12.41,9.5c-0.65-8.16-7.46-14.58-15.78-14.58c-8.75,0-15.85,7.1-15.85,15.85
			C227.6,150.82,234.69,157.92,243.44,157.92z"/>
		<path d="M306.47,158.8l-12.99,5.6c-0.87,0.38-1.9-0.13-2.06-1.07c-0.67-3.94-3.4-7.2-7.02-8.64c-0.58-0.23-1.23-0.08-1.65,0.37
			c-2.89,3.05-6.97,4.96-11.51,4.96c-5.09,0-9.6-2.41-12.5-6.13h-0.19c-3.54,4.27-8.88,7.01-14.83,7.01
			c-5.6,0-10.66-2.43-14.19-6.28c-0.34-0.37-0.84-0.58-1.34-0.47c-5.12,1.08-8.99,5.64-8.99,11.07v16.52
			c0,7.03,5.75,12.78,12.78,12.78h12.76l-8.11,17.6c-1.01,2.19-0.05,4.77,2.13,5.78c0.59,0.27,1.21,0.4,1.82,0.4
			c1.65,0,3.23-0.94,3.96-2.54l6.98-15.14v12.89c0,2.41,1.95,4.36,4.36,4.36c2.41,0,4.36-1.95,4.36-4.36v-13.38l9.17,15.88
			c0.81,1.4,2.27,2.18,3.78,2.18c0.74,0,1.49-0.19,2.18-0.58c2.08-1.2,2.8-3.87,1.59-5.95l-9.89-17.13h13.19
			c5.58,0,10.25-4.09,11.16-9.41c0.16-0.94,1.11-1.52,2-1.15l13.08,5.41c0.96,0.4,2.01-0.31,2.01-1.35v-27.89
			C308.5,159.09,307.43,158.38,306.47,158.8z M271.26,179.78c0,3.72-3.05,6.77-6.77,6.77h-30.12c-3.72,0-6.77-3.05-6.77-6.77v-5.2
			c0-3.72,3.05-6.77,6.77-6.77h30.12c3.72,0,6.77,3.05,6.77,6.77V179.78z"/>
	</g>
</g>
</svg>
