<?xml version="1.0" encoding="utf-8"?>
<!-- Generator: Adobe Illustrator 23.0.0, SVG Export Plug-In . SVG Version: 6.00 Build 0)  -->
<svg version="1.1" id="Layer_1" xmlns="http://www.w3.org/2000/svg" xmlns:xlink="http://www.w3.org/1999/xlink" x="0px" y="0px"
	 viewBox="0 0 535 360" style="enable-background:new 0 0 535 360;" xml:space="preserve">
<style type="text/css">
	.st0{fill:#FFFFFF;}
</style>
<g>
	<path class="st0" d="M268.25,630.01c-146.52,0-265.73-119.21-265.73-265.73S121.72,98.55,268.25,98.55s265.73,119.21,265.73,265.73
		S414.77,630.01,268.25,630.01z M268.25,112.54c-138.81,0-251.74,112.93-251.74,251.74c0,138.81,112.93,251.74,251.74,251.74
		S519.99,503.1,519.99,364.28C519.99,225.47,407.06,112.54,268.25,112.54z"/>
	<path class="st0" d="M148.45,247.88c-0.1-2.98,2.11-4.81,4.09-6.77c1.29-1.28,2.73-2.42,3.98-3.74c2.39-2.5,5.2-4.16,8.61-4.8
		c0.47-0.09,1.12-0.28,1.32-0.63c1.83-3.27,4.63-5.6,7.69-7.54c4.67-2.95,8.9-6.75,14.54-7.92c1.06-0.22,2.15-0.27,3.2-0.5
		c0.9-0.2,2.05-0.29,2.62-0.88c4.22-4.34,10.14-4.87,15.34-7c0.67-0.27,1.37-0.46,2.03-0.75c1.55-0.69,3.01-1.46,4.75-0.26
		c0.82,0.56,1.63-0.03,2.61-0.57c1.92-1.05,4.32-1.25,6.53-1.75c0.32-0.07,0.71,0.12,1.05,0.18c0.71-1.36,3.79-2.82,5.2-2.87
		c1.99-0.08,3.98-0.4,5.94-0.74c2.04-0.36,4.05-0.93,6.09-1.32c0.93-0.18,1.91-0.23,2.86-0.18c1.37,0.07,2.73,0.28,4.47,0.48
		c1.18-0.66,2.81-1.69,4.56-2.48c0.49-0.23,1.52-0.01,1.91,0.39c0.97,0.99,1.59,0.46,2.47-0.09c0.92-0.58,1.97-1.04,3.03-1.28
		c1.64-0.36,3.33-0.58,5.01-0.67c1.22-0.06,2.75-0.24,3.62,0.38c1.96,1.4,3.56,0.77,5.55,0.19c1.8-0.52,3.89-0.4,5.8-0.13
		c3.91,0.55,7.77,1.47,11.67,2.07c2.59,0.4,5.23,0.46,7.84,0.76c0.86,0.1,1.81,0.25,2.52,0.69c3.34,2.07,7.2,1.47,10.77,2.27
		c1.79,0.4,3.61,0.8,5.28,1.51c2.88,1.23,5.83,2.44,8.43,4.14c2.17,1.42,3.77,3.17,6.82,3.45c2.2,0.2,4.19,2.68,6.28,4.14
		c2.83,1.97,5.73,3.85,8.47,5.93c1.36,1.03,2.73,2.24,3.59,3.67c0.82,1.36,1.88,1.07,2.98,1.28c3.79,0.73,6.27,3.45,8.98,5.89
		c1.87,1.68,4.09,2.96,6.11,4.49c0.69,0.52,1.26,1.23,1.81,1.91c2.88,3.6,5.8,6.85,10.09,9.23c3.77,2.09,7.87,4.97,8.82,10.06
		c0.08,0.45,0.53,1.13,0.87,1.18c3.16,0.41,3.35,3.26,4.49,5.31c0.48,0.86,0.55,2.04,2.11,1.6c0.31-0.09,1.02,0.71,1.31,1.23
		c1.95,3.43,3.82,6.91,5.77,10.33c0.43,0.75,1.15,1.32,1.62,2.05c0.98,1.5,2.61,2.66,2.01,4.96c-0.17,0.65,0.79,1.94,1.56,2.44
		c1.88,1.21,2.73,2.91,3.36,4.93c0.4,1.3,1.17,2.48,1.82,3.69c2.12,3.93,3.14,8.14,3.19,12.6c0.01,0.56,0.02,1.31,0.36,1.64
		c2.08,2.01,2.33,4.58,2.66,7.24c0.22,1.78,1.23,3.44,1.53,5.22c0.48,2.88,1.22,5.89,0.84,8.71c-0.38,2.87,0.61,5.12,1.42,7.59
		c0.7,2.14,1.19,4.34,1.73,6.52c0.23,0.92,0.39,1.85,0.53,2.78c0.06,0.39,0.14,0.99-0.08,1.18c-2.22,2.01-0.35,3.77,0.15,5.72
		c0.74,2.89,2.95,5.92,1.44,8.76c-1.35,2.54-0.73,4.61-0.33,6.95c0.16,0.96,0.15,2,0.01,2.97c-0.63,4.12-1.33,8.23-2.02,12.35
		c-0.54,3.21-0.57,6.58-3.26,9.07c-0.5,0.46-0.88,1.73-0.61,2.23c1.8,3.29-0.14,6.32-0.6,9.39c-0.34,2.27-1.54,4.4-2.26,6.62
		c-0.54,1.66-0.83,3.4-1.42,5.04c-1.25,3.48-2.65,6.91-3.95,10.37c-1.12,2.97-2.17,5.97-3.31,8.93c-0.52,1.36-1.21,2.65-1.74,4.01
		c-0.33,0.83-0.49,1.73-0.75,2.6c-0.16,0.55-0.18,1.38-0.55,1.6c-3,1.83-2.43,5.45-4.1,7.97c-1.72,2.61-2.96,5.54-4.32,8.38
		c-0.49,1.04-0.45,2.4-1.1,3.28c-1.29,1.73-2.75,3.41-4.41,4.78c-1.16,0.96-1.85,1.9-2.52,3.28c-1.22,2.5-3.07,4.76-4.96,6.85
		c-1.94,2.14-4.13,4.12-6.44,5.87c-1.84,1.4-4.03,2.36-6.05,3.53c-0.3,0.17-0.74,0.4-0.79,0.67c-0.93,4.44-5.02,3.78-7.96,4.96
		c-0.73,0.3-1.63,0.27-2.29,0.66c-1.66,0.98-1.9,2.33-0.72,3.85c2.9,3.75,5.95,7.39,8.77,11.2c3.85,5.2,7.29,10.71,11.36,15.72
		c3.56,4.37,4.07,9.86,6.39,14.64c2.26,4.67,4.71,9.26,7.2,13.82c1.71,3.14,3.45,6.3,5.48,9.23c2.46,3.54,5.17,6.92,7.92,10.24
		c3.28,3.97,6.72,7.79,10.07,11.7c3.68,4.29,7.09,8.84,11.06,12.84c3.94,3.98,8.17,7.8,12.75,10.99c5.12,3.56,10.64,6.63,16.26,9.37
		c4.76,2.32,6.75,5.56,5.03,11.51c-1.08,3.75-0.52,8.19,0.16,12.17c0.81,4.73,1.2,9.43,1.22,14.21c0.02,4.57,0.32,9.15,0.5,13.72
		c0.01,0.14,0.11,0.3,0.07,0.42c-0.32,1.07-0.67,2.13-1.01,3.2c-0.91-0.5-2.05-0.8-2.7-1.53c-2.8-3.11-5.39-6.41-8.17-9.54
		c-6.27-7.07-12.64-14.05-18.91-21.13c-2.67-3.02-5.15-6.21-7.77-9.28c-4.48-5.23-9-10.42-13.49-15.65
		c-2.53-2.95-4.97-5.96-7.53-8.89c-5.46-6.23-10.99-12.4-16.44-18.64c-3.91-4.47-7.75-9.02-11.63-13.52
		c-7.23-8.39-14.44-16.79-21.69-25.16c-7.16-8.26-14.37-16.48-21.56-24.72c-2.6-2.98-5.18-5.97-7.81-8.92
		c-0.33-0.37-1.01-0.76-1.43-0.67c-2.43,0.51-4.83,1.16-7.24,1.77c-1.05,0.27-2.07,0.62-3.13,0.81c-1.52,0.27-3.39-0.74-4.44,1.26
		c-0.08,0.16-0.55,0.13-0.84,0.17c-4.14,0.53-8.28,1.35-12.44,1.49c-2.58,0.09-4.7,0.81-6.96,1.86c-1.71,0.8-3.82,0.85-5.76,1
		c-3.83,0.29-7.67,0.43-11.51,0.61c-1.18,0.06-2.37,0.17-3.53,0.02c-1.67-0.21-2.99,0.05-4.54,0.97c-1.27,0.76-3.24,0.39-4.91,0.41
		c-1.95,0.03-3.9-0.07-6.3-0.12c-0.69-0.95-1.81-2.22-3.2,0.09c-0.07,0.11-0.41,0.1-0.62,0.07c-3.44-0.57-6.92-0.99-10.31-1.77
		c-4.7-1.08-9.31-2.52-14.01-3.61c-0.99-0.23-2.17,0.62-3.28,0.65c-5.7,0.18-11.19-1.32-16.77-2.17c-0.27-0.04-0.68-0.13-0.77-0.32
		c-2.02-4.21-6.85-3.94-10.13-6.23c-3.29-2.3-7.47-3.31-11.25-4.91c-0.61-0.26-1.56-0.59-1.66-1.04c-0.61-2.73-2.99-3.07-4.97-4.04
		c-1.63-0.79-3.06-2.12-4.75-2.63c-4.06-1.24-7.04-4.25-9.39-7.17c-1.87-2.33-3.3-4.03-6.23-5.08c-2.61-0.93-4.55-3.61-7.05-5.06
		c-2.96-1.71-4-4.48-5.15-7.34c-0.28-0.7-0.96-1.26-1.52-1.82c-1.22-1.22-2.55-2.33-3.72-3.59c-2.09-2.24-4.09-4.56-6.12-6.84
		c-1.21-1.36-2.72-2.55-2.38-4.7c0.02-0.13-0.03-0.32-0.11-0.42c-1.43-1.72-2.98-3.35-4.27-5.16c-1.65-2.32-3.13-4.77-4.63-7.19
		c-2.03-3.26-4.03-6.54-6.03-9.82c-0.3-0.5-0.72-1-0.8-1.54c-0.81-5.72-4.98-10.05-6.41-15.54c-0.62-2.36-2.14-4.48-2.98-6.8
		c-0.48-1.32-0.26-2.88-0.65-4.25c-0.5-1.79-1.31-3.49-1.95-5.25c-1.69-4.67-2.54-9.47-2.34-14.45c0.01-0.36,0.14-0.94-0.02-1.04
		c-2.59-1.6-1.56-4.27-1.68-6.41c-0.17-3.17-1.65-6.12-0.79-9.53c0.54-2.14-0.8-4.69-0.78-7.05c0.03-2.97,0.46-5.95,0.98-8.88
		c0.26-1.49,1.13-2.86,1.67-4.31c0.12-0.33,0.16-0.76,0.06-1.08c-1.43-4.5-0.39-8.99,0.01-13.49c0.18-2.02-0.05-4.19,0.64-6.02
		c1.36-3.66,0.38-7.6,1.76-11.23c1.17-3.07,2.1-6.22,3.08-9.36c0.43-1.38,0.64-2.82,1.04-4.21c0.53-1.88,0.74-3.83,2.66-5.13
		c1.29-0.87,2.23-2.3,3.21-3.58c0.29-0.38,0.47-1.29,0.23-1.58c-1.91-2.42-0.15-4.63,0.5-6.73c1.77-5.72,5.35-10.39,9.43-14.68
		c0.75-0.79,1.83-1.27,2.76-1.88c1.01-0.67,2.26-1.06,1.4-2.83c-1.03-2.12-0.48-4.1,1.09-5.9c2-2.28,3.9-4.65,5.77-7.04
		c0.56-0.72,0.79-1.69,1.31-2.45c1.45-2.1,2.75-4.39,4.55-6.14C144.86,248.26,146.75,248.32,148.45,247.88z M174.4,245.6
		c-0.87,0.3-1.77,0.51-2.59,0.9c-4.32,2.07-6.72,6.85-11.54,8.26c-0.17,0.05-0.34,0.29-0.42,0.48c-1.26,3.22-4.2,4.97-6.38,7.39
		c-3.06,3.41-5.8,7.11-8.73,10.64c-0.65,0.78-1.65,1.26-2.33,2.02c-0.6,0.67-1.47,1.62-1.36,2.31c0.46,2.94-1.25,5.01-2.47,7.32
		c-1.53,2.9-3.12,5.8-4.35,8.83c-0.68,1.68-1.32,3.13-2.89,4.14c-0.46,0.3-0.92,1.5-0.71,1.79c1.21,1.65-0.16,2.95-0.39,4.38
		c-0.03,0.2-0.17,0.43-0.33,0.56c-2.26,1.83-2.46,4.56-3.47,7.02c-1.75,4.24-1.62,9.09-4.39,12.94c-0.23,0.32-0.27,0.85-0.24,1.27
		c0.23,3.35-0.32,6.55-1.61,9.65c-0.33,0.78-0.38,1.69-0.52,2.54c-0.61,3.65-0.68,7.5-1.97,10.88c-1.04,2.72-0.58,5.31-0.73,7.88
		c-0.21,3.64,1.35,7.37-0.73,10.92c-0.13,0.22-0.1,0.59-0.04,0.87c0.48,2.02,1.07,4.01,1.47,6.05c0.51,2.56,1.2,5.15,1.2,7.73
		c0,2-0.08,3.72,0.66,5.76c1.66,4.59,2.14,9.53,4.26,14.07c2.16,4.65,3.76,9.56,5.53,14.38c0.36,0.98,0.23,2.14,0.6,3.11
		c0.5,1.32,1.25,2.56,1.93,3.81c1.11,2.05,2.28,4.07,3.37,6.14c1.63,3.11,3.26,6.22,4.78,9.38c0.58,1.21,0.66,2.66,1.27,3.84
		c1.13,2.18,2.48,4.26,3.77,6.36c0.42,0.68,0.84,1.4,1.41,1.95c1.68,1.6,3.31,3.3,5.19,4.65c3.23,2.32,3.43,6.67,6.66,9.11
		c3.29,2.49,6.09,5.64,9.04,8.57c1.01,1.01,1.76,2.28,2.78,3.29c0.8,0.79,1.9,1.98,2.74,1.88c1.78-0.22,2.36,0.8,3.11,1.88
		c0.53,0.77,1.08,1.52,1.43,2.02c1.5-2.77,2.94-5.49,4.43-8.18c3.03-5.47,5.74-11.16,9.23-16.32c3.08-4.54,6.8-8.71,10.69-12.6
		c4.93-4.92,9.06-10.55,14.4-15.09c3.32-2.82,6.13-6.23,9.33-9.2c3.05-2.83,6.34-5.4,9.48-8.14c0.89-0.78,1.59-1.78,2.27-2.55
		c-0.95-1.19-2.09-2.02-2.38-3.09c-1.22-4.51-2.21-9.09-3.24-13.65c-0.74-3.29-1.18-6.66-2.16-9.87
		c-1.87-6.15-4.05-12.21-6.06-18.32c-1.24-3.76-2.3-7.59-3.64-11.31c-2.83-7.87-5.8-15.68-8.7-23.53c-1.22-3.3-2.29-6.66-3.61-9.91
		c-3.04-7.47-6.15-14.92-9.33-22.34c-3.78-8.84-7.35-17.79-11.57-26.41c-3.96-8.08-8.66-15.8-13.03-23.68
		c-0.68-1.24-0.58-2.24,0.88-2.8c0.32-0.18,0.75-0.6,0.93-0.51c2.38,1.2,5.13,2.04,7.01,3.8c4.6,4.3,10.3,6.4,15.9,8.62
		c5.07,2.01,10.42,3.31,15.66,4.87c5.6,1.66,11.19,3.44,17.1,3.68c2.63,0.11,5.27,0.19,7.9,0.21c3.32,0.03,6.68,0.34,9.94-0.09
		c5.06-0.66,10.07-1.79,15.08-2.82c1.88-0.39,2.53,0.45,2.82,2.11c0.12,0.7,0.43,1.6,0.95,1.96c2.28,1.56,4.7,0.98,7-0.03
		c0.39-0.17,0.78-1.15,0.65-1.6c-1.17-4.2-2.7-8.18-6.05-11.31c-3.37-3.15-6.47-6.59-9.66-9.93c-0.28-0.29-0.32-0.82-0.47-1.23
		c0.84,0.07,1.2,0.38,1.53,0.72c2.54,2.65,5.1,5.28,7.6,7.97c3.29,3.54,6.62,7.06,7.65,12.05c0.22,1.07,0.91,2.19,0.71,3.15
		c-0.19,0.89-1.27,1.59-2.28,2.75c4.98,1.27,9.71,2.48,13.55,3.46c1.81-2.51,3.12-4.31,4.43-6.12c0.13,0.09,0.26,0.19,0.39,0.28
		c-0.12,0.59-0.23,1.17-0.31,1.6c1.67-0.12,3.2-0.2,4.71-0.36c0.9-0.1,1.77-0.5,2.66-0.5c1.57-0.01,3.14,0.25,4.71,0.28
		c2.72,0.05,5.48-0.23,8.17,0.08c3.17,0.36,6.13,1.66,9.48,1.56c2.37-0.07,4.81,0.98,7.13,1.78c0.7,0.24,1.12,1.33,1.66,2.03
		c-0.08,0.07-0.16,0.14-0.23,0.2c0.48,0.61,0.96,1.22,1.71,2.19c3.14-0.43,6.78-1.09,10.44-1.37c2.5-0.19,5.08-0.08,7.56,0.31
		c2.79,0.44,5.5,1.34,7.95,1.96c-0.69,0.61-1.85,1.65-3.29,2.93c1.43,0.34,2.52,0.6,3.61,0.86c1.98,2.82-2.57,2.24-2.37,4.38
		c0.26,0.01,0.58,0.11,0.8,0c2.23-1.07,4.37-2.35,6.67-3.21c3.23-1.21,6.47-3.68,10.04-0.7c0.21,0.18,0.54,0.21,0.83,0.29
		c3.43,0.95,6.95,1.64,10.25,2.91c2.61,1,4.89,2.86,7.45,4.05c1.74,0.81,3.7,1.13,5.57,1.66c0.12-0.19,0.24-0.38,0.36-0.56
		c-0.57-1.22-1.07-2.49-1.74-3.66c-1.87-3.28-3.79-6.54-5.75-9.77c-0.36-0.59-1.12-0.94-1.5-1.52c-1.38-2.09-2.69-4.24-4.01-6.37
		c-0.54-0.87-0.86-1.97-1.59-2.63c-2.9-2.64-6.21-4.87-7.73-8.74c-0.2-0.5-0.76-0.89-1.21-1.25c-2.54-2.04-5.09-4.08-7.67-6.09
		c-1.27-0.99-2.55-1.97-3.91-2.83c-3.72-2.37-6.88-5.29-9.25-9.05c-0.33-0.52-1.05-1.15-1.56-1.12c-2.08,0.12-3.55-0.97-5.13-2.06
		c-1.96-1.36-4.08-2.47-6.11-3.72c-2.65-1.63-5.45-3.08-7.86-5c-1.59-1.27-2.48-3.46-5.14-2.61c-0.35,0.11-0.91-0.39-1.37-0.63
		c-3.77-1.95-7.53-3.91-11.3-5.85c-0.39-0.2-0.84-0.28-1.24-0.46c-1.42-0.63-2.79-1.39-4.25-1.87c-1.46-0.49-3.19-1.3-4.46-0.89
		c-1.7,0.54-2.9,0.4-4.3-0.47c-0.56-0.35-1.33-0.47-2.01-0.52c-3.83-0.3-7.66-0.55-11.5-0.81c-1.23-0.08-2.45-0.11-3.68-0.23
		c-1.97-0.18-4.34,0.19-5.82-0.78c-2.11-1.38-3.89-0.79-5.93-0.6c-3.79,0.36-7.59,1.22-11.41-0.02c-0.5-0.16-1.52,0.2-1.82,0.64
		c-1.1,1.62-2.57,1.26-4.1,1.12c-1.06-0.1-2.51-0.44-3.15,0.09c-2.01,1.67-4.42,1.35-6.66,1.85c-4.24,0.93-9.01-0.41-12.68,2.98
		c-0.19,0.18-0.56,0.17-0.84,0.23c-2.81,0.6-5.62,1.18-8.42,1.83c-0.38,0.09-0.67,0.55-1.03,0.8c-0.87,0.63-1.7,1.32-2.63,1.86
		c-6.87,4.03-15.24,3.79-22.17,7.75c-3.67,2.1-7.51,3.88-11.31,5.75c-0.93,0.46-2.05,0.57-2.95,1.06c-0.93,0.51-2.21,1.15-2.45,1.99
		c-0.59,2.06-2.17,3.03-3.78,3.56C174.13,242.81,173.89,242.83,174.4,245.6z M277.38,281.34c-2.8,3.2-4.63,3.46-7.98,1.49
		c-2.57-1.51-4.07-1.05-4.69,1.74c-0.44,1.98-0.56,4.06-0.64,6.1c-0.08,2.27,0.57,4.7-0.02,6.8c-1.33,4.78-0.26,9.33,0.49,13.95
		c0.42,2.6,1.2,5.16,1.4,7.77c0.21,2.87-0.31,5.79-0.07,8.65c0.27,3.34,0.95,6.66,1.58,9.96c0.63,3.28,1.43,6.53,2.13,9.8
		c1.04,4.85,1.88,9.75,3.14,14.54c0.89,3.39,2.69,6.56,3.43,9.97c1.25,5.75,4.33,10.61,6.87,15.75c1.13,2.29,2.69,4.36,3.91,6.6
		c1.11,2.04,1.9,4.26,3.07,6.26c1.42,2.45,3.09,4.74,4.62,7.12c1.15,1.79,2.09,3.75,3.42,5.39c2.7,3.33,5.41,6.68,8.45,9.68
		c5.06,4.98,7.45,11.88,12.64,16.8c2.73,2.58,4.76,5.91,7.09,8.91c0.94,1.21,1.82,2.47,2.76,3.67c2.08,2.65,4.3,5.19,6.26,7.92
		c2.86,3.99,5.5,8.13,8.29,12.15c3.12,4.49,7.76,7.77,10.12,12.87c0.48,1.03,1.22,1.38,2.49,0.57c1.86-1.18,3.98-1.96,5.97-2.95
		c0.37-0.18,0.69-0.49,0.99-0.78c0.94-0.93,1.76-2.01,2.8-2.8c2.82-2.12,5.8-4.02,8.58-6.18c2.45-1.9,4.72-4.03,7.06-6.08
		c0.25-0.22,0.45-0.56,0.58-0.88c0.41-1,0.67-2.08,1.18-3.02c1.68-3.09,3.85-5.98,5.06-9.23c1.21-3.26,3.12-5.69,5.67-7.84
		c0.54-0.45,0.62-1.45,0.88-2.21c0.16-0.46,0.18-0.97,0.38-1.4c1.36-2.99,2.81-5.94,4.1-8.96c0.48-1.12,0.59-2.39,0.9-3.59
		c0.54-2.06,0.53-4.68,1.83-6.01c1.34-1.36,1.07-2.6,1.34-3.95c0.14-0.7,0.17-1.45,0.45-2.09c2.06-4.61,3.53-9.35,4.3-14.38
		c0.36-2.34,1.7-4.33,1.51-7.08c-0.2-3.06,1.42-6.21,1.99-9.36c0.75-4.09,1.21-8.22,1.87-12.33c0.18-1.13,0.62-2.21,0.88-3.33
		c0.26-1.14,0.66-2.3,0.62-3.44c-0.14-4.06-0.45-8.11-0.68-12.17c-0.14-2.45,0.13-5-0.5-7.31c-1.15-4.22-2.67-8.29-1.73-12.79
		c0.17-0.79-0.09-1.71-0.29-2.54c-0.69-2.88-1.7-5.71-2.09-8.62c-0.27-2.03,0.27-4.16,0.46-6.25c0.27-2.95-1.65-5.19-2.57-7.75
		c-1.11-3.06-3.11-5.15-6.74-4.84c-0.26,0.02-0.55-0.15-0.79-0.23c-0.52,0.69-0.98,1.31-1.46,1.96c0.81,1.08,1.57,2.09,2.46,3.26
		c-1.17,0.05-2.04,0.06-2.91,0.12c-2.09,0.14-4.17,0.3-6.26,0.43c-1.24,0.08-2.48,0.15-3.72,0.14c-1.1-0.01-2.29-0.44-3.28-0.15
		c-4.38,1.3-8.75,0.11-13.1,0.25c-2.92,0.09-5.47-0.36-7.77-2.17c-0.97-0.77-1.96-1.58-3.08-2.08c-0.7-0.32-1.65-0.09-3.05-0.12
		c1.05,1.28,1.6,1.94,2.28,2.77c-1.33-0.2-2.44-0.25-3.48-0.54c-3.8-1.07-8.02-0.76-11.31-3.57c-0.65-0.56-1.74-0.71-2.65-0.84
		c-1.72-0.24-3.45-0.32-5.08-0.47c2.46,4.74,8.48,5.73,12.01,9.89c-1.55,0.38-2.85,0.69-4.57,1.11c2.02,1.33,3.63,2.4,5.2,3.43
		c-0.79,0.28-1.67,0.58-2.98,1.04c3.3,1.09,5.89,2.94,9.03,1.51c0.36-0.16,1.02,0.06,1.41,0.31c3.86,2.4,6.45,6.07,9.11,9.57
		c3.29,4.33,6.23,8.93,9.19,13.5c0.97,1.5,1.66,3.21,2.24,4.91c0.14,0.41-0.57,1.33-1.11,1.69c-0.44,0.3-1.2,0.13-2.28,0.19
		c0.96,0.6,1.53,0.97,2.15,1.35c-1.17,0.78-2.25,1.5-2.98,1.99c-1.28-0.79-2.43-1.5-3.59-2.22c-0.21,0.12-0.43,0.23-0.64,0.35
		c0.15,1.32,0.08,2.73,0.53,3.94c0.42,1.14,1.4,2.08,2.13,3.11c-0.07,0.18-0.13,0.37-0.2,0.55c-4.29-1.69-8.63-3.28-12.86-5.11
		c-1.72-0.75-3.12-2.72-4.81-2.93c-4.24-0.52-5.82-3.32-7.08-6.71c-0.1-0.26-0.27-0.49-0.75-1.33c-0.36,1.67-0.59,2.78-0.72,3.39
		c-4.13-2.55-8.33-5.55-12.89-7.85c-6.59-3.33-10.23-8.92-12.98-15.33c-1.02-2.39-1.48-5.02-2.4-7.46
		c-0.69-1.82-1.71-3.51-2.58-5.25c-0.14,0.06-0.28,0.12-0.41,0.18c-0.06,2.94-0.13,5.88-0.19,8.76c-0.21-0.26-0.47-0.57-0.85-1.01
		c0.13,1.89,0.25,3.58,0.39,5.61c-3.53-3.4-6.77-6.52-10.08-9.7c-0.28,0.28-0.65,0.66-1.17,1.18c-1.02-1.89-1.94-3.61-2.82-5.24
		c-0.7,0.57-1.19,0.96-1.95,1.58c-1.33-1.57-2.59-3.06-3.87-4.58c-0.25,0.4-0.43,0.67-1.07,1.67c-1.24-7.16-6.11-11.73-9.11-17.48
		c-0.51,0.56-1.04,1.13-1.61,1.76c0.3-2.66,0.6-5.13,0.86-7.61c0.03-0.24-0.06-0.59-0.23-0.74
		C281.3,284.75,279.37,283.08,277.38,281.34z M178.1,483.38c3.24,3.5,6.05,6.55,8.88,9.58c0.18,0.2,0.51,0.26,0.78,0.38
		c1.32,0.59,2.69,1.07,3.94,1.78c6.27,3.54,12.56,6.74,19.92,7.82c5.78,0.84,11.67,1.86,17.03,4.57c0.29,0.15,0.7,0.02,1.05,0.06
		c2.65,0.3,5.32,0.51,7.95,0.94c2.51,0.41,4.97,1.07,7.46,1.62c1.78,0.39,3.56,0.79,5.35,1.15c1.56,0.31,3.14,0.86,4.7,0.79
		c3.08-0.13,6.14-0.78,9.22-0.9c1.71-0.06,3.7,0.11,5.09,0.96c1.31,0.8,2.3,1,3.64,0.61c5.07-1.49,10.26-0.97,15.42-0.88
		c0.5,0.01,1.13,0.08,1.46,0.39c1.25,1.13,2.26,0.56,3.35-0.22c3.3-2.36,7.12-3.25,10.99-2.76c2.37,0.31,3.88-0.25,5.31-1.89
		c0.22-0.25,0.63-0.36,0.97-0.5c2.72-1.12,5.44-2.23,8.42-3.46c-4.51-5.15-8.79-10.04-13.08-14.93
		c-5.61-6.39-11.26-12.75-16.85-19.16c-5.3-6.07-10.57-12.18-15.83-18.29c-4.5-5.23-8.95-10.49-13.45-15.72
		c-0.84-0.98-1.81-1.85-2.67-2.71c-9.4,8.1-18.58,16.02-27.92,24.06c0.06,0.11,0.31,0.58,0.55,1.03c-0.81-0.09-1.68-0.48-2.15-0.2
		c-2.69,1.64-5.29,3.45-7.92,5.19c-2.86,1.9-5.62,3.99-8.62,5.65c-4.37,2.42-8.89,4.59-13.39,6.77c-4.01,1.93-8.05,3.79-12.13,5.55
		C183.31,481.65,180.94,482.37,178.1,483.38z M268.08,275.19c0.88,4.78,2.8,6.28,7.15,5.67
		C273.92,277.58,270.46,277.23,268.08,275.19z M289.05,280.28c-2.08-0.86-3.84-1.59-5.59-2.32c-0.1,0.24-0.2,0.47-0.29,0.71
		C285.06,279.08,285.85,282.18,289.05,280.28z"/>
	<g>
		<path class="st0" d="M210.1,585.59l-4.62-1.24l-1.24-25.19l-8.17,30.43l-7.68-2.06l13.37-49.77l7.82,2.1l1.82,31.52l17.44-26.34
			l8.1,2.18l-13.37,49.77l-7.96-2.14l8.17-30.43L210.1,585.59z"/>
		<path class="st0" d="M236.57,598.61l4.46-51.34l22.52,1.95l-0.65,7.48l-14.01-1.22l-1.22,14.08l11.73,1.02l-0.65,7.48l-11.73-1.02
			l-1.29,14.81l14.23,1.24l-0.65,7.48L236.57,598.61z"/>
		<path class="st0" d="M293.76,558.63l1.81,29.69c0.47,7.79-4.48,11.19-12.27,11.66l-13.15,0.8l-3.14-51.44l13.15-0.8
			C287.95,548.07,293.29,550.84,293.76,558.63z M280.33,556.06l-4.34,0.26l2.22,36.45l4.34-0.26c2.79-0.17,4.64-1.32,4.42-4.99
			l-1.65-27.04C285.09,556.8,283.12,555.89,280.33,556.06z"/>
		<path class="st0" d="M307.32,597.31l-9.26-50.69l8.4-1.53l9.26,50.69L307.32,597.31z"/>
		<path class="st0" d="M339.29,577.71l-9.01,2.76l1.6,11.53l-7.89,2.41l-5.93-52.1l10.28-3.15l24.38,46.45l-8.31,2.54L339.29,577.71
			z M336.16,571.27l-10.15-20.85l3.25,22.96L336.16,571.27z"/>
	</g>
	<g>
		<path class="st0" d="M112.5,248.35c7.66,4.84,7.37,11.6,2.61,19.12l-0.09,0.14c-4.75,7.52-10.65,10.74-18.39,5.85l-29.8-18.82
			c-7.38-4.66-7.37-11.6-2.61-19.12l0.09-0.14c4.75-7.52,11.01-10.52,18.39-5.85l9.08,5.74l-5.2,8.23l-7.81-4.93
			c-3.48-2.2-5.62-1.17-7.28,1.46c-1.66,2.63-1.67,5,1.81,7.2l27.25,17.21c3.48,2.19,5.62,1.17,7.28-1.46c1.66-2.62,1.67-5-1.81-7.2
			l-9.01-5.69l5.2-8.23L112.5,248.35z"/>
		<path class="st0" d="M92.11,199.46l0.46-0.49c6.09-6.49,12.68-8.36,19.16-2.27l25.69,24.13c6.49,6.09,5.03,12.78-1.06,19.27
			l-0.46,0.49c-6.09,6.49-12.68,8.36-19.16,2.27l-25.69-24.13C84.51,212.58,86.02,205.94,92.11,199.46z M129.91,234.48
			c2.18-2.32,2.82-4.72-0.24-7.59l-23.49-22.06c-3.06-2.87-5.41-2.09-7.59,0.24c-2.18,2.32-2.82,4.72,0.24,7.59l23.49,22.06
			C125.37,237.6,127.72,236.81,129.91,234.48z"/>
		<path class="st0" d="M166.97,198.63c5.31,7.34,2.65,13.41-4.56,18.62l-0.27,0.2c-7.21,5.21-13.75,5.9-19.11-1.51l-27.53-38.08
			l7.89-5.7l26.64,36.86c2.46,3.4,4.64,3.27,7.23,1.4c2.58-1.87,3.39-3.9,0.93-7.3l-26.64-36.86l7.89-5.7L166.97,198.63z"/>
		<path class="st0" d="M178.59,205.31l-24.45-53.41l8.85-4.05l26.34,27.9l-15.12-33.03l8.09-3.7l24.45,53.41l-8.39,3.84
			l-27.57-29.37l15.89,34.71L178.59,205.31z"/>
		<path class="st0" d="M225.23,135.79l-9.52,2.42l12.36,48.64l-9.44,2.4l-12.36-48.64l-9.52,2.42l-2.11-8.3l28.47-7.23
			L225.23,135.79z"/>
		<path class="st0" d="M241.19,184.4l-7.12-58.31l9.66-1.18l7.12,58.31L241.19,184.4z"/>
		<path class="st0" d="M257.39,182.14l1.47-58.73l9.73,0.24l11.43,36.64l0.91-36.33l8.89,0.22l-1.47,58.73l-9.23-0.23l-11.88-38.5
			l-0.95,38.18L257.39,182.14z"/>
		<path class="st0" d="M325.75,178.77c-1.99,8.84-8.46,10.83-17.14,8.88l-0.66-0.15c-8.68-1.95-13.69-6.44-11.68-15.36l7.74-34.39
			c1.92-8.52,8.46-10.83,17.14-8.88l0.66,0.15c8.68,1.95,13.6,6.85,11.68,15.36l-1.84,8.19l-9.5-2.14l1.51-6.71
			c0.92-4.1-0.95-5.72-4.06-6.42c-3.11-0.7-5.5-0.03-6.42,4.06l-7.07,31.44c-0.92,4.09,0.95,5.72,4.06,6.42
			c3.11,0.7,5.5,0.03,6.42-4.06l1.91-8.52l-5.57-1.25l1.81-8.02l15.06,3.39L325.75,178.77z"/>
		<path class="st0" d="M371.17,199.64c-4.2,8.03-10.96,8.28-18.84,4.15l-0.15-0.08c-7.88-4.12-11.57-9.75-7.33-17.85l16.34-31.22
			c4.05-7.73,10.96-8.28,18.84-4.15l0.15,0.08c7.88,4.12,11.37,10.12,7.33,17.85l-4.98,9.52l-8.62-4.51l4.28-8.18
			c1.91-3.64,0.71-5.69-2.04-7.13s-5.12-1.26-7.02,2.38l-14.94,28.55c-1.91,3.64-0.71,5.69,2.04,7.13c2.75,1.44,5.12,1.26,7.02-2.38
			l4.94-9.44l8.62,4.51L371.17,199.64z"/>
		<path class="st0" d="M418.22,175.34l0.52,0.42c6.96,5.54,9.35,11.96,3.81,18.91l-21.96,27.56c-5.54,6.96-12.33,6.05-19.29,0.51
			l-0.53-0.42c-6.96-5.54-9.35-11.96-3.81-18.91l21.96-27.56C404.52,168.83,411.26,169.8,418.22,175.34z M386.37,215.84
			c2.49,1.99,4.93,2.43,7.55-0.85l20.08-25.2c2.62-3.28,1.64-5.56-0.85-7.55c-2.49-1.99-4.93-2.43-7.55,0.85l-20.08,25.2
			C382.91,211.57,383.88,213.85,386.37,215.84z"/>
		<path class="st0" d="M425.09,249.88c-6.89,5.88-13.15,3.72-18.92-3.04l-0.22-0.25c-5.78-6.77-6.99-13.23-0.04-19.17l35.73-30.51
			l6.32,7.4l-34.58,29.53c-3.19,2.72-2.89,4.89-0.81,7.32s4.16,3.07,7.35,0.34l34.58-29.53l6.32,7.4L425.09,249.88z"/>
		<path class="st0" d="M474.4,265.16l-9.69,5.54c-7.72,4.42-13.7,1.07-18.11-6.66l-2.71-4.73l-19.74,11.29l-4.83-8.45l50.99-29.16
			l7.54,13.18C482.27,253.89,482.13,260.74,474.4,265.16z M468.26,257.45c3.64-2.08,3.58-4.56,2-7.33l-2.54-4.44l-16.39,9.37
			l2.54,4.44c1.58,2.77,3.69,4.08,7.33,2L468.26,257.45z"/>
	</g>
	<path class="st0" d="M173.69,555.8l-2.78-13.54c-0.14-0.69-0.82-1.14-1.51-1l-13.54,2.78c-0.69,0.14-1.14,0.82-1,1.51l2.78,13.54
		c0.14,0.69,0.82,1.14,1.51,1l13.54-2.78C173.38,557.17,173.83,556.5,173.69,555.8z"/>
	<circle class="st0" cx="127.14" cy="524.3" r="4.66"/>
	<circle class="st0" cx="113.2" cy="509.89" r="4.66"/>
	<circle class="st0" cx="81.83" cy="465.34" r="4.66"/>
	<path class="st0" d="M103.84,481.9l-13.68-2.03c-0.7-0.1-1.35,0.38-1.46,1.08l-2.03,13.68c-0.1,0.7,0.38,1.35,1.08,1.46l13.68,2.03
		c0.7,0.1,1.35-0.38,1.46-1.08l2.03-13.68C105.03,482.66,104.54,482.01,103.84,481.9z"/>
	<path class="st0" d="M68.45,390.8l-11.12-8.21c-0.57-0.42-1.37-0.3-1.79,0.27l-8.21,11.12c-0.42,0.57-0.3,1.37,0.27,1.79
		l11.12,8.21c0.57,0.42,1.37,0.3,1.79-0.27l8.21-11.12C69.14,392.03,69.02,391.22,68.45,390.8z"/>
	<circle class="st0" cx="60.7" cy="318.31" r="4.66"/>
	<circle class="st0" cx="57.15" cy="341.19" r="4.66"/>
	<circle class="st0" cx="56.04" cy="365.53" r="4.66"/>
	<path class="st0" d="M79.26,295.3l-6.09-12.41c-0.31-0.64-1.08-0.9-1.72-0.59l-12.41,6.09c-0.64,0.31-0.9,1.08-0.59,1.72
		l6.09,12.41c0.31,0.64,1.08,0.9,1.72,0.59l12.41-6.09C79.31,296.7,79.57,295.93,79.26,295.3z"/>
	<circle class="st0" cx="143.69" cy="538.25" r="4.66"/>
	<circle class="st0" cx="71.16" cy="443.19" r="4.66"/>
	<circle class="st0" cx="64.2" cy="421.05" r="4.66"/>
	<path class="st0" d="M468.39,289.68l-7.26,11.77c-0.37,0.6-0.18,1.39,0.42,1.76l11.77,7.26c0.6,0.37,1.39,0.18,1.76-0.42
		l7.26-11.77c0.37-0.6,0.18-1.39-0.42-1.76l-11.77-7.26C469.55,288.89,468.76,289.07,468.39,289.68z"/>
	<circle class="st0" cx="480.68" cy="344.52" r="4.66"/>
	<circle class="st0" cx="480.95" cy="364.57" r="4.66"/>
	<circle class="st0" cx="473.24" cy="418.51" r="4.66"/>
	<path class="st0" d="M468.58,391.36l8.56,10.86c0.44,0.56,1.25,0.65,1.8,0.21l10.86-8.56c0.56-0.44,0.65-1.25,0.21-1.8l-8.56-10.86
		c-0.44-0.56-1.25-0.65-1.8-0.21l-10.86,8.56C468.23,389.99,468.14,390.8,468.58,391.36z"/>
	<path class="st0" d="M431.89,481.95l2.47,13.6c0.13,0.7,0.79,1.16,1.49,1.03l13.6-2.47c0.7-0.13,1.16-0.79,1.03-1.49l-2.47-13.6
		c-0.13-0.7-0.79-1.16-1.49-1.03l-13.6,2.47C432.22,480.58,431.76,481.25,431.89,481.95z"/>
	<circle class="st0" cx="387.83" cy="540.04" r="4.66"/>
	<circle class="st0" cx="406.11" cy="525.81" r="4.66"/>
	<circle class="st0" cx="423.59" cy="508.85" r="4.66"/>
	<circle class="st0" cx="478.19" cy="323.02" r="4.66"/>
	<circle class="st0" cx="465.83" cy="441.95" r="4.66"/>
	<circle class="st0" cx="455.71" cy="462.84" r="4.66"/>
</g>
</svg>
