<?xml version="1.0" encoding="utf-8"?>
<!-- Generator: Adobe Illustrator 23.0.0, SVG Export Plug-In . SVG Version: 6.00 Build 0)  -->
<svg version="1.1" id="Layer_1" xmlns="http://www.w3.org/2000/svg" xmlns:xlink="http://www.w3.org/1999/xlink" x="0px" y="0px"
	 viewBox="0 0 577 538" style="enable-background:new 0 0 577 538;" xml:space="preserve">
<style type="text/css">
	.st0{opacity:0.4;}
	.st1{fill:#1A1A1A;}
</style>
<g class="st0">
	<path class="st1" d="M373.97,509.52c-134.18,58.87-291.23-2.41-350.1-136.58S26.27,81.7,160.45,22.84s291.23,2.41,350.1,136.58
		S508.15,450.65,373.97,509.52z M166.07,35.64C38.96,91.41-19.09,240.2,36.68,367.32c55.77,127.12,204.56,185.16,331.67,129.4
		s185.16-204.56,129.4-331.67C441.98,37.92,293.19-20.12,166.07,35.64z"/>
	<path class="st1" d="M110.74,207.71c-1.28-2.69,0-5.26,1.02-7.84c0.67-1.69,1.52-3.31,2.14-5.02c1.18-3.25,3.09-5.9,5.96-7.86
		c0.4-0.27,0.92-0.71,0.95-1.11c0.36-3.73,1.99-6.99,4.02-9.99c3.09-4.58,5.44-9.75,10.13-13.09c0.88-0.62,1.86-1.11,2.73-1.74
		c0.75-0.55,1.76-1.09,2.04-1.86c2.12-5.68,7.33-8.54,11.23-12.58c0.5-0.52,1.07-0.97,1.56-1.51c1.14-1.26,2.17-2.54,4.25-2.15
		c0.98,0.19,1.48-0.68,2.16-1.57c1.34-1.73,3.45-2.88,5.28-4.22c0.27-0.2,0.69-0.18,1.03-0.26c0.11-1.53,2.34-4.1,3.61-4.72
		c1.79-0.87,3.48-1.96,5.14-3.07c1.73-1.15,3.33-2.48,5.05-3.66c0.78-0.54,1.66-0.98,2.55-1.32c1.28-0.49,2.61-0.84,4.28-1.36
		c0.81-1.08,1.9-2.67,3.17-4.1c0.36-0.41,1.39-0.62,1.9-0.41c1.29,0.52,1.64-0.22,2.22-1.08c0.61-0.9,1.39-1.75,2.26-2.39
		c1.36-0.99,2.81-1.87,4.32-2.63c1.09-0.55,2.42-1.32,3.46-1.11c2.36,0.49,3.57-0.73,5.16-2.05c1.44-1.2,3.41-1.93,5.26-2.45
		c3.8-1.07,7.7-1.77,11.52-2.79c2.53-0.68,4.97-1.68,7.48-2.46c0.83-0.26,1.76-0.5,2.59-0.38c3.89,0.55,7.18-1.55,10.78-2.25
		c1.8-0.35,3.63-0.72,5.44-0.74c3.13-0.03,6.32-0.1,9.38,0.41c2.56,0.43,4.73,1.39,7.63,0.42c2.09-0.7,4.91,0.77,7.41,1.26
		c3.38,0.67,6.79,1.23,10.14,2.02c1.66,0.39,3.4,0.95,4.76,1.92c1.3,0.92,2.15,0.22,3.24-0.02c3.76-0.85,7.13,0.64,10.59,1.79
		c2.39,0.79,4.94,1.07,7.4,1.66c0.84,0.2,1.65,0.62,2.42,1.03c4.08,2.15,8.06,3.94,12.94,4.4c4.3,0.4,9.2,1.39,12.12,5.67
		c0.26,0.38,0.94,0.83,1.27,0.73c3.06-0.9,4.38,1.64,6.24,3.06c0.78,0.6,1.32,1.64,2.58,0.62c0.25-0.2,1.22,0.24,1.7,0.6
		c3.16,2.36,6.27,4.79,9.44,7.15c0.69,0.52,1.59,0.75,2.31,1.23c1.5,0.98,3.46,1.39,3.84,3.73c0.11,0.67,1.51,1.46,2.41,1.6
		c2.21,0.35,3.67,1.57,5.06,3.17c0.89,1.02,2.07,1.8,3.15,2.65c3.53,2.75,6.15,6.19,7.98,10.25c0.23,0.51,0.55,1.2,0.99,1.36
		c2.71,1,3.98,3.26,5.35,5.56c0.91,1.54,2.51,2.66,3.5,4.17c1.6,2.45,3.48,4.91,4.27,7.64c0.8,2.78,2.62,4.44,4.35,6.38
		c1.5,1.68,2.83,3.5,4.21,5.28c0.58,0.75,1.1,1.54,1.6,2.34c0.21,0.34,0.52,0.85,0.4,1.11c-1.22,2.74,1.2,3.6,2.44,5.18
		c1.84,2.35,5.08,4.23,4.84,7.44c-0.22,2.87,1.18,4.51,2.49,6.5c0.54,0.82,0.94,1.77,1.2,2.72c1.08,4.03,2.09,8.08,3.11,12.12
		c0.8,3.16,2.12,6.26,0.66,9.62c-0.27,0.62-0.11,1.94,0.34,2.29c2.97,2.29,2.41,5.84,3.22,8.84c0.6,2.21,0.36,4.65,0.59,6.97
		c0.17,1.74,0.61,3.45,0.72,5.19c0.25,3.69,0.35,7.39,0.55,11.09c0.17,3.17,0.41,6.34,0.56,9.51c0.07,1.45-0.04,2.91,0.01,4.37
		c0.04,0.9,0.24,1.78,0.36,2.68c0.07,0.57,0.39,1.33,0.14,1.69c-2.01,2.88-0.04,5.96-0.55,8.95c-0.53,3.08-0.49,6.27-0.59,9.41
		c-0.04,1.15,0.55,2.38,0.31,3.45c-0.48,2.11-1.15,4.22-2.12,6.15c-0.68,1.34-0.93,2.48-0.99,4.02c-0.11,2.78-0.9,5.6-1.79,8.27
		c-0.92,2.75-2.13,5.43-3.53,7.96c-1.13,2.03-2.74,3.78-4.13,5.66c-0.21,0.28-0.52,0.66-0.46,0.93c0.93,4.44-3.08,5.48-5.3,7.74
		c-0.55,0.57-1.38,0.9-1.83,1.52c-1.12,1.56-0.8,2.89,0.89,3.81c4.17,2.27,8.42,4.38,12.53,6.73c5.61,3.21,10.98,6.88,16.72,9.83
		c5.02,2.57,7.69,7.39,11.73,10.84c3.95,3.37,8.04,6.58,12.14,9.76c2.83,2.19,5.69,4.39,8.73,6.25c3.67,2.25,7.51,4.26,11.37,6.2
		c4.59,2.32,9.28,4.44,13.92,6.67c5.09,2.45,10.05,5.25,15.29,7.32c5.21,2.06,10.61,3.86,16.09,4.94c6.12,1.2,12.41,1.8,18.65,2.04
		c5.29,0.21,8.41,2.38,9.23,8.52c0.52,3.87,2.81,7.71,5.04,11.08c2.65,4.01,4.88,8.15,6.83,12.52c1.86,4.18,3.97,8.25,5.97,12.36
		c0.06,0.13,0.22,0.23,0.23,0.35c0.13,1.11,0.25,2.22,0.36,3.34c-1.04-0.09-2.2,0.09-3.09-0.31c-3.81-1.73-7.51-3.7-11.31-5.46
		c-8.58-3.95-17.22-7.79-25.8-11.75c-3.66-1.69-7.21-3.62-10.85-5.37c-6.2-3-12.43-5.93-18.64-8.91c-3.5-1.68-6.95-3.46-10.47-5.11
		c-7.5-3.51-15.05-6.94-22.55-10.46c-5.38-2.52-10.72-5.14-16.08-7.71c-9.99-4.78-19.97-9.58-29.97-14.32
		c-9.88-4.69-19.78-9.32-29.67-13.98c-3.58-1.68-7.14-3.39-10.74-5.03c-0.45-0.21-1.23-0.29-1.58-0.04c-2.02,1.45-3.95,3-5.91,4.53
		c-0.85,0.66-1.65,1.4-2.54,2c-1.29,0.86-3.4,0.68-3.56,2.94c-0.01,0.18-0.45,0.34-0.7,0.49c-3.58,2.15-7.04,4.56-10.79,6.36
		c-2.33,1.12-3.97,2.63-5.63,4.5c-1.25,1.42-3.15,2.31-4.88,3.23c-3.39,1.81-6.85,3.48-10.29,5.18c-1.05,0.52-2.1,1.11-3.22,1.44
		c-1.61,0.48-2.72,1.24-3.77,2.71c-0.86,1.2-2.81,1.66-4.33,2.35c-1.78,0.81-3.6,1.51-5.82,2.42c-1.01-0.59-2.55-1.31-2.9,1.37
		c-0.02,0.13-0.34,0.26-0.54,0.31c-3.38,0.86-6.73,1.87-10.15,2.52c-4.74,0.9-9.54,1.43-14.28,2.33c-1,0.19-1.74,1.44-2.74,1.92
		c-5.14,2.46-10.78,3.29-16.23,4.75c-0.27,0.07-0.68,0.15-0.84,0.02c-3.54-3.04-7.86-0.85-11.77-1.63
		c-3.93-0.79-8.17-0.03-12.27,0.02c-0.66,0.01-1.67,0.09-1.94-0.28c-1.65-2.26-3.97-1.61-6.17-1.7c-1.81-0.07-3.65-0.71-5.4-0.51
		c-4.22,0.5-8.15-1.06-11.48-2.79c-2.65-1.38-4.64-2.37-7.75-2.15c-2.77,0.2-5.61-1.48-8.49-1.8c-3.4-0.38-5.46-2.5-7.67-4.65
		c-0.54-0.53-1.39-0.77-2.12-1.05c-1.61-0.62-3.27-1.11-4.85-1.79c-2.81-1.21-5.58-2.53-8.36-3.8c-1.65-0.76-3.52-1.24-4.07-3.35
		c-0.03-0.13-0.15-0.28-0.27-0.34c-2-1-4.07-1.87-5.98-3.01c-2.45-1.46-4.78-3.11-7.13-4.72c-3.17-2.17-6.32-4.37-9.47-6.57
		c-0.48-0.33-1.06-0.63-1.35-1.09c-3.04-4.91-8.59-7.2-12.11-11.66c-1.51-1.92-3.76-3.24-5.47-5.03c-0.97-1.01-1.4-2.53-2.3-3.63
		c-1.18-1.44-2.6-2.67-3.89-4.02c-3.42-3.59-6.14-7.65-7.95-12.29c-0.13-0.33-0.25-0.92-0.44-0.95c-3.02-0.43-3.15-3.28-4.12-5.2
		c-1.43-2.83-3.97-4.94-4.55-8.41c-0.37-2.18-2.62-3.97-3.54-6.14c-1.17-2.73-1.97-5.63-2.68-8.53c-0.36-1.47-0.12-3.07-0.2-4.62
		c-0.02-0.35-0.16-0.76-0.38-1.02c-3.12-3.55-3.97-8.08-5.41-12.35c-0.65-1.92-1.72-3.82-1.84-5.77c-0.23-3.9-2.71-7.11-2.9-10.99
		c-0.16-3.28-0.57-6.54-0.94-9.81c-0.16-1.43-0.55-2.84-0.74-4.27c-0.27-1.93-0.86-3.8,0.37-5.76c0.83-1.32,1.12-3.01,1.5-4.56
		c0.12-0.47-0.09-1.36-0.43-1.54c-2.72-1.45-2-4.19-2.24-6.37c-0.67-5.95,0.73-11.67,2.74-17.23c0.37-1.02,1.16-1.89,1.77-2.83
		c0.65-1.02,1.64-1.88,0.15-3.15c-1.8-1.53-2.08-3.57-1.37-5.84c0.91-2.89,1.71-5.82,2.46-8.76c0.23-0.88,0.04-1.86,0.21-2.77
		c0.48-2.51,0.75-5.12,1.7-7.45C107.61,209.5,109.36,208.8,110.74,207.71z M133.59,195.2c-0.68,0.62-1.42,1.18-2.01,1.87
		c-3.12,3.64-3.4,8.97-7.25,12.19c-0.14,0.12-0.19,0.41-0.19,0.61c0.14,3.46-1.85,6.24-2.87,9.33c-1.44,4.35-2.45,8.84-3.72,13.25
		c-0.28,0.97-1.01,1.82-1.33,2.79c-0.28,0.85-0.69,2.07-0.32,2.66c1.6,2.51,0.87,5.09,0.68,7.7c-0.24,3.27-0.53,6.56-0.43,9.83
		c0.05,1.81,0.05,3.39-0.99,4.95c-0.3,0.46-0.25,1.74,0.07,1.92c1.77,1.02,1.04,2.76,1.4,4.17c0.05,0.2,0.01,0.47-0.08,0.65
		c-1.33,2.59-0.42,5.17-0.36,7.82c0.1,4.59,2.17,8.98,1.18,13.61c-0.08,0.39,0.1,0.89,0.29,1.26c1.56,2.97,2.34,6.13,2.4,9.49
		c0.01,0.85,0.33,1.7,0.55,2.54c0.91,3.59,2.39,7.14,2.57,10.76c0.14,2.91,1.6,5.1,2.5,7.51c1.27,3.42,4.2,6.21,3.72,10.3
		c-0.03,0.26,0.14,0.59,0.31,0.81c1.25,1.66,2.59,3.25,3.78,4.95c1.5,2.14,3.17,4.24,4.2,6.6c0.8,1.83,1.42,3.44,2.92,5.01
		c3.36,3.54,5.79,7.87,9.55,11.17c3.85,3.38,7.28,7.24,10.84,10.95c0.72,0.75,1.07,1.87,1.8,2.61c0.99,1.01,2.18,1.84,3.3,2.71
		c1.84,1.43,3.73,2.81,5.55,4.27c2.74,2.19,5.49,4.38,8.15,6.67c1.01,0.87,1.67,2.17,2.71,3c1.92,1.54,3.98,2.9,6,4.31
		c0.66,0.46,1.33,0.95,2.08,1.22c2.18,0.79,4.36,1.69,6.62,2.17c3.89,0.83,5.82,4.73,9.76,5.66c4.02,0.95,7.84,2.72,11.72,4.22
		c1.33,0.51,2.53,1.38,3.86,1.9c1.05,0.4,2.54,1.05,3.26,0.62c1.54-0.92,2.48-0.22,3.6,0.48c0.79,0.49,1.6,0.96,2.12,1.28
		c0.26-3.14,0.48-6.21,0.77-9.27c0.57-6.23,0.77-12.53,1.9-18.65c1-5.39,2.73-10.71,4.73-15.83c2.54-6.48,4.06-13.31,7.13-19.61
		c1.91-3.92,3.11-8.17,4.85-12.17c1.66-3.82,3.64-7.49,5.41-11.26c0.5-1.07,0.75-2.27,1.06-3.25c-1.35-0.71-2.73-1.01-3.42-1.87
		c-2.93-3.64-5.67-7.43-8.45-11.2c-2-2.71-3.76-5.62-5.94-8.17c-4.18-4.88-8.61-9.56-12.91-14.34c-2.65-2.95-5.15-6.02-7.88-8.9
		c-5.75-6.07-11.62-12.03-17.42-18.05c-2.44-2.53-4.77-5.18-7.29-7.63c-5.79-5.62-11.63-11.19-17.52-16.72
		c-7.01-6.58-13.87-13.34-21.21-19.54c-6.87-5.81-14.28-10.99-21.45-16.45c-1.12-0.86-1.43-1.82-0.32-2.92
		c0.22-0.29,0.45-0.85,0.65-0.84c2.66,0.14,5.51-0.19,7.94,0.66c5.94,2.09,12.01,1.72,18.02,1.51c5.45-0.19,10.87-1.15,16.3-1.83
		c5.8-0.73,11.63-1.35,17.13-3.5c2.45-0.96,4.9-1.94,7.32-2.98c3.05-1.3,6.25-2.38,9.07-4.08c4.37-2.64,8.5-5.68,12.68-8.64
		c1.57-1.11,2.5-0.61,3.43,0.8c0.39,0.59,1.03,1.29,1.66,1.41c2.72,0.51,4.69-0.99,6.39-2.84c0.29-0.32,0.26-1.36-0.05-1.73
		c-2.76-3.38-5.76-6.41-10.08-7.93c-4.35-1.53-8.57-3.43-12.83-5.21c-0.37-0.16-0.62-0.62-0.92-0.94c0.8-0.28,1.25-0.14,1.69,0.04
		c3.39,1.41,6.8,2.78,10.16,4.25c4.43,1.92,8.9,3.81,11.84,7.96c0.63,0.89,1.71,1.64,1.91,2.6c0.19,0.89-0.52,1.97-0.98,3.43
		c5.07-0.84,9.89-1.63,13.8-2.27c0.65-3.02,1.13-5.2,1.6-7.38c0.16,0.03,0.31,0.07,0.47,0.1c0.13,0.58,0.26,1.17,0.35,1.59
		c1.48-0.78,2.85-1.46,4.17-2.23c0.78-0.45,1.43-1.17,2.24-1.53c1.44-0.64,2.98-1.04,4.43-1.64c2.52-1.05,4.93-2.41,7.51-3.21
		c3.04-0.94,6.28-0.94,9.31-2.38c2.14-1.01,4.79-1.03,7.24-1.23c0.74-0.06,1.56,0.77,2.34,1.19c-0.04,0.09-0.09,0.19-0.13,0.28
		c0.68,0.37,1.37,0.74,2.45,1.32c2.7-1.65,5.77-3.72,9.01-5.45c2.21-1.18,4.62-2.11,7.05-2.75c2.73-0.72,5.57-0.98,8.07-1.4
		c-0.38,0.84-1.03,2.26-1.83,4c1.45-0.26,2.55-0.46,3.66-0.66c2.94,1.79-1.45,3.08-0.42,4.96c0.24-0.1,0.57-0.13,0.73-0.32
		c1.61-1.87,3.06-3.91,4.82-5.62c2.47-2.41,4.45-5.97,8.91-4.67c0.26,0.08,0.58-0.03,0.87-0.07c3.52-0.51,7.02-1.29,10.56-1.45
		c2.8-0.13,5.63,0.66,8.45,0.72c1.91,0.04,3.84-0.46,5.76-0.71c0.03-0.22,0.07-0.44,0.1-0.66c-1.02-0.89-1.98-1.85-3.06-2.65
		c-3.03-2.26-6.1-4.47-9.19-6.64c-0.57-0.4-1.4-0.41-1.99-0.79c-2.11-1.36-4.17-2.8-6.23-4.22c-0.85-0.58-1.58-1.45-2.51-1.77
		c-3.71-1.25-7.64-1.97-10.59-4.89c-0.38-0.38-1.05-0.51-1.61-0.66c-3.15-0.85-6.3-1.69-9.47-2.5c-1.56-0.39-3.13-0.77-4.72-1.02
		c-4.36-0.68-8.42-2.08-12.11-4.57c-0.51-0.34-1.43-0.63-1.88-0.4c-1.86,0.94-3.64,0.54-5.52,0.17c-2.34-0.46-4.73-0.63-7.09-0.96
		c-3.08-0.43-6.22-0.63-9.21-1.42c-1.97-0.52-3.66-2.17-5.76-0.33c-0.28,0.25-0.99,0.01-1.51-0.03c-4.23-0.27-8.46-0.55-12.7-0.81
		c-0.44-0.03-0.88,0.08-1.32,0.07c-1.55,0-3.11-0.15-4.65-0.01c-1.53,0.14-3.44,0.09-4.45,0.97c-1.34,1.18-2.5,1.53-4.13,1.3
		c-0.66-0.09-1.4,0.11-2.05,0.33c-3.63,1.26-7.24,2.58-10.85,3.88c-1.16,0.42-2.29,0.88-3.46,1.27c-1.88,0.62-3.9,1.92-5.64,1.63
		c-2.49-0.42-3.88,0.83-5.67,1.84c-3.32,1.86-6.46,4.17-10.46,4.57c-0.53,0.05-1.31,0.79-1.41,1.32c-0.36,1.92-1.85,2.19-3.3,2.67
		c-1.01,0.34-2.47,0.61-2.85,1.35c-1.17,2.34-3.5,3.01-5.35,4.36c-3.51,2.56-8.42,3.24-10.41,7.82c-0.1,0.24-0.44,0.38-0.68,0.55
		c-2.33,1.68-4.67,3.34-6.97,5.06c-0.32,0.24-0.4,0.77-0.62,1.15c-0.54,0.93-1.03,1.89-1.66,2.76c-4.67,6.46-12.43,9.59-17.19,16.01
		c-2.52,3.39-5.32,6.57-8.05,9.81c-0.67,0.8-1.65,1.34-2.28,2.16c-0.65,0.84-1.56,1.94-1.44,2.8c0.29,2.13-0.77,3.64-2.03,4.77
		C132.22,192.75,132.01,192.87,133.59,195.2z M242.25,186.56c-1.28,4.05-2.85,5.03-6.71,4.57c-2.96-0.35-4.14,0.68-3.6,3.48
		c0.39,1.99,1.11,3.94,1.86,5.84c0.84,2.12,2.41,4.08,2.72,6.24c0.7,4.91,3.51,8.65,6.06,12.57c1.43,2.21,3.18,4.24,4.4,6.56
		c1.35,2.54,2.05,5.43,3.41,7.95c1.59,2.95,3.54,5.72,5.45,8.49c1.89,2.75,3.93,5.41,5.89,8.12c2.9,4.02,5.64,8.17,8.72,12.05
		c2.18,2.75,5.1,4.93,7.15,7.75c3.46,4.76,8.23,7.98,12.62,11.66c1.95,1.64,4.21,2.91,6.24,4.48c1.84,1.42,3.45,3.13,5.32,4.5
		c2.28,1.67,4.73,3.1,7.09,4.67c1.78,1.18,3.42,2.59,5.3,3.56c3.81,1.97,7.64,3.95,11.63,5.47c6.63,2.53,11.6,7.89,18.32,10.3
		c3.54,1.27,6.73,3.5,10.07,5.31c1.35,0.73,2.66,1.53,4.01,2.25c2.97,1.59,6.02,3.03,8.91,4.74c4.22,2.5,8.3,5.23,12.48,7.8
		c4.66,2.86,10.22,4,14.44,7.72c0.85,0.75,1.67,0.77,2.51-0.48c1.23-1.83,2.86-3.4,4.29-5.1c0.26-0.31,0.44-0.72,0.59-1.11
		c0.49-1.23,0.8-2.55,1.44-3.69c1.73-3.07,3.69-6.01,5.37-9.11c1.48-2.73,2.71-5.59,4.02-8.4c0.14-0.31,0.19-0.69,0.18-1.03
		c-0.03-1.08-0.22-2.17-0.13-3.24c0.29-3.5,1.12-7.02,0.92-10.49c-0.2-3.47,0.57-6.46,2.04-9.46c0.31-0.63-0.01-1.58-0.08-2.38
		c-0.04-0.48-0.23-0.96-0.22-1.44c0.05-3.28,0.19-6.57,0.16-9.85c-0.01-1.22-0.42-2.43-0.62-3.65c-0.33-2.1-1.4-4.5-0.73-6.24
		c0.68-1.79-0.07-2.81-0.36-4.16c-0.15-0.7-0.43-1.4-0.42-2.09c0.04-5.05-0.52-9.98-1.84-14.9c-0.61-2.29-0.18-4.64-1.46-7.09
		c-1.42-2.72-1.2-6.25-1.94-9.37c-0.96-4.04-2.19-8.02-3.24-12.04c-0.29-1.1-0.32-2.27-0.53-3.4c-0.22-1.15-0.32-2.37-0.81-3.4
		c-1.76-3.66-3.67-7.25-5.51-10.87c-1.11-2.18-1.89-4.63-3.4-6.49c-2.75-3.4-5.78-6.52-6.72-11.01c-0.17-0.79-0.77-1.53-1.29-2.21
		c-1.79-2.36-3.85-4.54-5.37-7.05c-1.06-1.75-1.43-3.92-2.09-5.91c-0.94-2.81-3.6-4.09-5.47-6.06c-2.24-2.36-4.92-3.47-8.12-1.72
		c-0.23,0.13-0.56,0.08-0.81,0.11c-0.19,0.84-0.37,1.59-0.55,2.38c1.18,0.66,2.28,1.28,3.57,2c-1.05,0.51-1.84,0.87-2.62,1.27
		c-1.86,0.96-3.7,1.95-5.56,2.91c-1.1,0.57-2.21,1.13-3.35,1.62c-1.01,0.43-2.28,0.51-3.06,1.18c-3.48,2.95-7.96,3.61-11.9,5.49
		c-2.63,1.26-5.15,1.87-7.98,1.14c-1.2-0.31-2.43-0.66-3.65-0.67c-0.77-0.01-1.55,0.58-2.84,1.11c1.48,0.75,2.24,1.14,3.21,1.62
		c-1.3,0.35-2.33,0.75-3.4,0.9c-3.91,0.54-7.65,2.52-11.79,1.27c-0.82-0.25-1.88,0.05-2.76,0.3c-1.67,0.47-3.29,1.09-4.84,1.62
		c4.16,3.36,10.07,1.84,14.97,4.23c-1.27,0.97-2.33,1.78-3.74,2.85c2.39,0.41,4.29,0.73,6.13,1.05c-0.62,0.57-1.3,1.2-2.31,2.15
		c3.46-0.33,6.57,0.32,8.87-2.25c0.26-0.29,0.96-0.35,1.42-0.28c4.5,0.65,8.35,2.96,12.19,5.1c4.75,2.65,9.29,5.68,13.84,8.67
		c1.49,0.98,2.81,2.27,4.02,3.59c0.29,0.32,0.01,1.44-0.34,1.99c-0.28,0.45-1.05,0.6-2.01,1.09c1.12,0.17,1.79,0.27,2.51,0.38
		c-0.75,1.18-1.45,2.28-1.93,3.02c-1.48-0.21-2.83-0.4-4.18-0.59c-0.15,0.19-0.3,0.38-0.45,0.58c0.67,1.15,1.17,2.47,2.07,3.4
		c0.85,0.88,2.12,1.35,3.2,1.99c0.01,0.19,0.03,0.39,0.04,0.58c-4.61,0.18-9.22,0.47-13.83,0.48c-1.87,0.01-3.95-1.24-5.58-0.75
		c-4.1,1.23-6.67-0.7-9.18-3.3c-0.19-0.2-0.45-0.34-1.22-0.91c0.34,1.67,0.57,2.78,0.7,3.39c-4.81-0.67-9.86-1.74-14.96-2.01
		c-7.37-0.4-12.96-4.06-18.04-8.82c-1.9-1.78-3.37-4-5.2-5.87c-1.36-1.39-2.97-2.52-4.47-3.77c-0.1,0.11-0.2,0.22-0.31,0.33
		c1.12,2.72,2.25,5.43,3.35,8.1c-0.3-0.15-0.66-0.33-1.18-0.59c0.88,1.68,1.67,3.18,2.61,4.98c-4.6-1.7-8.82-3.25-13.13-4.84
		c-0.14,0.37-0.33,0.87-0.6,1.55c-1.69-1.32-3.23-2.52-4.69-3.66c-0.42,0.8-0.7,1.36-1.15,2.23c-1.85-0.91-3.6-1.76-5.38-2.64
		c-0.07,0.47-0.12,0.78-0.31,1.96c-4.01-6.06-10.31-8.28-15.36-12.35c-0.24,0.72-0.49,1.45-0.77,2.26
		c-0.79-2.56-1.52-4.94-2.27-7.31c-0.07-0.23-0.3-0.51-0.51-0.58C247.21,188.1,244.78,187.35,242.25,186.56z M232.51,411.46
		c4.38,1.91,8.17,3.57,11.98,5.2c0.25,0.11,0.58,0.03,0.87,0.03c1.44,0.01,2.89-0.1,4.32,0.05c7.17,0.72,14.21,1.13,21.38-0.84
		c5.63-1.55,11.44-2.98,17.43-2.66c0.32,0.02,0.65-0.26,0.99-0.37c2.55-0.79,5.08-1.67,7.66-2.33c2.46-0.63,4.99-1.02,7.48-1.51
		c1.79-0.36,3.58-0.7,5.36-1.09c1.55-0.34,3.23-0.47,4.62-1.16c2.77-1.36,5.31-3.19,8.08-4.52c1.54-0.74,3.43-1.38,5.04-1.17
		c1.52,0.2,2.51-0.01,3.58-0.91c4.04-3.4,9.01-5.01,13.77-7c0.46-0.19,1.07-0.38,1.5-0.23c1.59,0.53,2.29-0.4,2.98-1.55
		c2.07-3.49,5.21-5.84,8.95-6.94c2.3-0.67,3.45-1.79,4.1-3.87c0.1-0.32,0.43-0.58,0.69-0.84c2.04-2.12,4.08-4.23,6.32-6.55
		c-6.2-2.9-12.08-5.66-17.98-8.41c-7.71-3.6-15.43-7.16-23.13-10.78c-7.3-3.43-14.57-6.9-21.84-10.39
		c-6.22-2.98-12.41-6.01-18.63-8.99c-1.16-0.56-2.4-0.96-3.54-1.41c-5.35,11.19-10.58,22.13-15.9,33.25
		c0.1,0.08,0.51,0.41,0.92,0.73c-0.78,0.24-1.73,0.24-2.05,0.68c-1.81,2.59-3.46,5.28-5.17,7.94c-1.86,2.89-3.55,5.91-5.63,8.63
		c-3.03,3.97-6.29,7.78-9.54,11.58c-2.89,3.38-5.85,6.7-8.88,9.96C236.58,407.78,234.7,409.39,232.51,411.46z M231.26,184.66
		c2.72,4.02,5.09,4.62,8.82,2.32C237.57,184.51,234.26,185.57,231.26,184.66z M252.51,180.89c-2.25,0.05-4.15,0.08-6.05,0.12
		c0.01,0.26,0.01,0.51,0.02,0.77C248.38,181.4,250.34,183.92,252.51,180.89z"/>
	<g>
		<path class="st1" d="M302.88,492.2l-4.73,0.72l-11.25-22.57l4.74,31.15l-7.86,1.2l-7.75-50.95l8.01-1.22l14.33,28.13l5.39-31.13
			l8.3-1.26l7.75,50.95l-8.15,1.24l-4.74-31.15L302.88,492.2z"/>
		<path class="st1" d="M332.34,493.49l-16.54-48.8l21.4-7.26l2.41,7.11l-13.32,4.51l4.54,13.39l11.16-3.78l2.41,7.11l-11.15,3.78
			l4.77,14.08l13.53-4.58l2.41,7.11L332.34,493.49z"/>
		<path class="st1" d="M368.65,433.9l13.59,26.46c3.56,6.94,0.39,12.05-6.55,15.61l-11.72,6.02l-23.54-45.84l11.72-6.02
			C359.09,426.56,365.09,426.96,368.65,433.9z M355.32,436.94l-3.86,1.98l16.68,32.48l3.86-1.98c2.49-1.28,3.72-3.07,2.04-6.34
			l-12.37-24.1C359.98,435.71,357.81,435.66,355.32,436.94z"/>
		<path class="st1" d="M396.62,463.87l-28.85-42.7l7.08-4.78l28.85,42.7L396.62,463.87z"/>
		<path class="st1" d="M418.01,433.08l-7.15,6.15l6.1,9.91l-6.25,5.38l-26.36-45.33l8.15-7.01l40.99,32.74l-6.59,5.67L418.01,433.08
			z M412.56,428.45l-17.67-15.01l12.2,19.72L412.56,428.45z"/>
	</g>
	<g>
		<path class="st1" d="M78.01,222.58c8.96,1.36,11.4,7.66,10.08,16.46l-0.02,0.17c-1.33,8.8-5.44,14.12-14.49,12.75l-34.85-5.26
			c-8.63-1.3-11.4-7.66-10.08-16.46l0.03-0.17c1.33-8.8,5.86-14.05,14.49-12.75l10.62,1.6l-1.45,9.62l-9.13-1.38
			c-4.07-0.61-5.61,1.19-6.08,4.26c-0.46,3.07,0.48,5.25,4.55,5.87l31.87,4.81c4.07,0.61,5.61-1.19,6.08-4.26
			c0.46-3.07-0.48-5.25-4.55-5.86l-10.54-1.59l1.45-9.63L78.01,222.58z"/>
		<path class="st1" d="M39.7,186l0.22-0.63c2.97-8.39,8.25-12.75,16.64-9.78l33.22,11.77c8.39,2.97,9.74,9.68,6.77,18.07l-0.22,0.63
			c-2.97,8.39-8.25,12.75-16.64,9.78l-33.22-11.77C38.01,201.07,36.73,194.39,39.7,186z M88.38,202.89
			c1.07-3.01,0.69-5.45-3.27-6.86l-30.37-10.76c-3.95-1.4-5.79,0.26-6.86,3.27c-1.06,3-0.69,5.45,3.27,6.86l30.37,10.76
			C85.48,207.56,87.31,205.9,88.38,202.89z"/>
		<path class="st1" d="M107.92,155.17c7.81,4.59,7.81,11.21,3.31,18.88l-0.17,0.29c-4.51,7.67-10.22,10.93-18.1,6.29l-40.51-23.82
			l4.93-8.39l39.2,23.05c3.62,2.13,5.57,1.13,7.18-1.62c1.62-2.75,1.54-4.94-2.08-7.06l-39.2-23.05l4.93-8.39L107.92,155.17z"/>
		<path class="st1" d="M121.24,156.62L77.4,117.54l6.48-7.27l35.33,14.97l-27.12-24.18L98,94.42l43.84,39.08l-6.14,6.89
			l-37.04-15.82l28.5,25.4L121.24,156.62z"/>
		<path class="st1" d="M136.02,74.22l-7.74,6.04l30.86,39.58l-7.68,5.99L120.6,86.24l-7.74,6.04l-5.26-6.75l23.17-18.06
			L136.02,74.22z"/>
		<path class="st1" d="M170.16,112.32l-29.95-50.54l8.38-4.96l29.95,50.54L170.16,112.32z"/>
		<path class="st1" d="M184.09,103.74l-22.25-54.38l9.01-3.69l25.18,28.96l-13.76-33.63l8.23-3.37l22.25,54.38l-8.55,3.5
			l-26.35-30.48l14.46,35.34L184.09,103.74z"/>
		<path class="st1" d="M245.34,73.2c1.73,8.9-3.39,13.31-12.13,15.01l-0.66,0.13c-8.73,1.7-15.12-0.39-16.87-9.37l-6.73-34.6
			c-1.67-8.57,3.4-13.31,12.13-15.01l0.66-0.13c8.73-1.7,15.21,0.81,16.87,9.37l1.6,8.24l-9.56,1.86l-1.31-6.75
			c-0.8-4.12-3.17-4.86-6.3-4.25c-3.13,0.61-5.05,2.18-4.25,6.3l6.15,31.63c0.8,4.12,3.17,4.86,6.3,4.25
			c3.13-0.61,5.05-2.18,4.25-6.3l-1.67-8.57l-5.6,1.09l-1.57-8.07l15.16-2.95L245.34,73.2z"/>
		<path class="st1" d="M295.32,74.06c-0.62,9.04-6.71,11.99-15.59,11.37l-0.17-0.01c-8.87-0.61-14.51-4.28-13.88-13.4l2.42-35.16
			c0.6-8.71,6.71-11.98,15.58-11.37l0.17,0.01c8.87,0.61,14.48,4.7,13.88,13.4l-0.74,10.71l-9.71-0.67l0.63-9.21
			c0.28-4.1-1.64-5.5-4.74-5.71c-3.1-0.21-5.19,0.9-5.48,5l-2.21,32.14c-0.28,4.1,1.64,5.5,4.74,5.71c3.1,0.21,5.19-0.9,5.48-5
			l0.73-10.63l9.71,0.67L295.32,74.06z"/>
		<path class="st1" d="M328.63,32.9l0.65,0.17c8.6,2.28,13.37,7.19,11.09,15.79l-9.04,34.06c-2.28,8.6-8.86,10.5-17.46,8.22
			l-0.65-0.17c-8.6-2.28-13.37-7.19-11.09-15.79l9.04-34.06C313.48,32.44,320.04,30.62,328.63,32.9z M315.75,82.78
			c3.08,0.82,5.49,0.24,6.57-3.81l8.26-31.14c1.08-4.06-0.73-5.75-3.81-6.57c-3.08-0.82-5.49-0.24-6.57,3.81l-8.26,31.14
			C310.86,80.27,312.67,81.96,315.75,82.78z"/>
		<path class="st1" d="M364.88,98.4c-3.95,8.16-10.54,8.69-18.55,4.82l-0.3-0.15c-8.01-3.87-11.72-9.3-7.74-17.54l20.46-42.3
			l8.76,4.24l-19.81,40.94c-1.83,3.78-0.68,5.64,2.19,7.03s5.04,1.14,6.87-2.64l19.81-40.94l8.76,4.24L364.88,98.4z"/>
		<path class="st1" d="M416.17,92.58l-6.65,8.96c-5.3,7.15-12.11,6.48-19.26,1.18l-4.38-3.25l-13.54,18.27l-7.82-5.8l34.98-47.18
			l12.2,9.04C418.85,79.1,421.47,85.43,416.17,92.58z M407.45,87.99c2.5-3.37,1.45-5.61-1.12-7.51l-4.11-3.05L390.98,92.6l4.11,3.05
			c2.56,1.9,5.01,2.25,7.51-1.12L407.45,87.99z"/>
	</g>
	<path class="st1" d="M257.56,479.55l-7.99-11.28c-0.41-0.58-1.21-0.71-1.79-0.31l-11.28,7.99c-0.58,0.41-0.71,1.21-0.31,1.79
		l7.99,11.28c0.41,0.58,1.21,0.71,1.79,0.31l11.28-7.99C257.83,480.93,257.97,480.13,257.56,479.55z"/>
	<circle class="st1" cx="202.28" cy="469.41" r="4.66"/>
	<circle class="st1" cx="183.72" cy="461.81" r="4.66"/>
	<circle class="st1" cx="137.09" cy="433.61" r="4.66"/>
	<path class="st1" d="M163.91,439.94l-13.34,3.63c-0.68,0.19-1.09,0.89-0.9,1.57l3.63,13.34c0.19,0.68,0.89,1.09,1.57,0.9
		l13.34-3.63c0.68-0.19,1.09-0.89,0.9-1.57l-3.63-13.34C165.3,440.16,164.59,439.75,163.91,439.94z"/>
	<path class="st1" d="M94.9,370.73l-13.49-3.05c-0.69-0.16-1.38,0.28-1.53,0.97l-3.05,13.49c-0.16,0.69,0.28,1.38,0.97,1.53
		l13.49,3.05c0.69,0.16,1.38-0.28,1.53-0.97l3.05-13.49C96.02,371.58,95.59,370.89,94.9,370.73z"/>
	<circle class="st1" cx="58.68" cy="307.46" r="4.66"/>
	<circle class="st1" cx="64.62" cy="329.84" r="4.66"/>
	<circle class="st1" cx="73.39" cy="352.57" r="4.66"/>
	<path class="st1" d="M66.43,278.93l-10.56-8.92c-0.54-0.46-1.35-0.39-1.81,0.15l-8.92,10.56c-0.46,0.54-0.39,1.35,0.15,1.81
		l10.56,8.92c0.54,0.46,1.35,0.39,1.81-0.15l8.92-10.56C67.04,280.2,66.97,279.39,66.43,278.93z"/>
	<circle class="st1" cx="223.04" cy="475.53" r="4.66"/>
	<circle class="st1" cx="118.43" cy="417.62" r="4.66"/>
	<circle class="st1" cx="103.16" cy="400.14" r="4.66"/>
	<path class="st1" d="M420.51,117.45l-1.92,13.69c-0.1,0.7,0.39,1.35,1.09,1.45l13.69,1.92c0.7,0.1,1.35-0.39,1.45-1.09l1.92-13.69
		c0.1-0.7-0.39-1.35-1.09-1.45l-13.69-1.92C421.26,116.26,420.61,116.75,420.51,117.45z"/>
	<circle class="st1" cx="453.81" cy="162.73" r="4.66"/>
	<circle class="st1" cx="462.11" cy="180.99" r="4.66"/>
	<circle class="st1" cx="476.72" cy="233.48" r="4.66"/>
	<path class="st1" d="M461.54,210.49l12.2,6.5c0.63,0.33,1.4,0.1,1.73-0.53l6.5-12.2c0.33-0.63,0.1-1.4-0.53-1.73l-12.2-6.5
		c-0.63-0.33-1.4-0.1-1.73,0.53l-6.5,12.2C460.68,209.38,460.91,210.16,461.54,210.49z"/>
	<path class="st1" d="M464.34,308.18l7.73,11.47c0.4,0.59,1.19,0.74,1.78,0.35l11.47-7.73c0.59-0.4,0.74-1.19,0.35-1.78l-7.73-11.47
		c-0.4-0.59-1.19-0.74-1.78-0.35l-11.47,7.73C464.1,306.8,463.94,307.6,464.34,308.18z"/>
	<circle class="st1" cx="447.33" cy="379.08" r="4.66"/>
	<circle class="st1" cx="458.35" cy="358.71" r="4.66"/>
	<circle class="st1" cx="467.55" cy="336.15" r="4.66"/>
	<circle class="st1" cx="442.89" cy="144.05" r="4.66"/>
	<circle class="st1" cx="479.35" cy="257.92" r="4.66"/>
	<circle class="st1" cx="478.48" cy="281.11" r="4.66"/>
</g>
</svg>
