<?xml version="1.0" encoding="utf-8"?>
<!-- Generator: Adobe Illustrator 23.0.0, SVG Export Plug-In . SVG Version: 6.00 Build 0)  -->
<svg version="1.1" xmlns="http://www.w3.org/2000/svg" xmlns:xlink="http://www.w3.org/1999/xlink" x="0px" y="0px"
	 viewBox="0 0 1920 1080" style="enable-background:new 0 0 1920 1080;" xml:space="preserve">
<style type="text/css">
	.st0{display:none;}
</style>
<g id="Layer_1" class="st0">
	
		<image style="display:inline;overflow:visible;" width="1600" height="593" xlink:href="C:\Users\mad_l\OneDrive\Desktop\spokane-istock_000054856522_medium.jpg"  transform="matrix(2.62 0 0 2.62 -769 135)">
	</image>
</g>
<g id="Layer_2">
	<path d="M1988.3,819.3h-22.6V805l-67.9-9.5h-50.1v23.8h-122.8l-4.8,22.6h-11.9v13.1h39.3l-2.4,16.7h-7.2v4.8h6v19.1h-4.8v6h3.6
		v19.1h-3.6v7.2h3.6v10.7h-3.6v13.1h3.6v19.1h-3.6v4.8h3.6v15.5h-3.6v7.2h3.6v16.7c0,0-4.8-4.8-6-9.5c0,0-2.4,8.3-6,9.5l2.4,1.2
		c0,0-1.2,4.8-3.6,4.8l3.6,1.2c0,0-1.2,3.6-3.6,3.6c0,0,1.2,7.2-7.2,7.2c0,0-6-15.5-6-21.5c0,0,0,17.9-3.6,20.3c0,0-9.5,0-11.9-9.5
		c0,0-1.2,13.1-4.8,14.3h-9.5v13.1h-3.6v-6l-6-3.6v-17.9h3.6v-6h-33.4l-8.3-17.9l-4.8,9.5l-8.3-22.6l-10.7,22.6v-10.7h-14.3v16.7
		l-14.3-1.2v-11.9h-6v11.9h-6v-6h-3.6l1.2-56h-4.8v15.5h-6v-15.5h-6v15.5h-6v-15.5h-7.2l1.2,56h-3.6v4.8l-3.6-1.2v-4.8h-9.5v-3.6
		h-21.5v9.5h-6v-9.5h-21.5v9.5h-28.6v-9.5h-7.2v11.9h-6v-9.5h-22.6v7.2h-6v6h-4.8v9.5h-3.6v2.4h-3.6v-10.7h-4.8v-6h-8.3v8.3v4.8
		h-7.2v-19.1h-6v13.1h-4.8v-13.1h-7.2v15.5H1347v-14.3h-3.6v-10.7h-3.6v10.7h-4.8v14.3h-4.8v-16.7h3.6v-4.8h-6v-6h-4.8v-19.1h-4.8
		v16.7h-13.1V826.5h4.8v-7.2h-29.8h-2.4v7.2h4.8v154.9h-35.8v-3.6h-8.3l2.4-147.8h3.6v-6h-28.6v7.2h3.6v134.7h-22.6v9.5h-6v9.5h-8.3
		h-22.6v6h-32.2v-34.6h2.4V954h3.6v-3.6h3.6v-6h-13.1v-3.6h-7.2v-26.2h7.2v-4.8h-4.8l-15.5-20.7l-0.3-7.3l-2.2,0.1l-0.5-21.6h3.6v-6
		l-10.7-10.7v-34h-7.7v34.6l-10.1,10.1v6h3.6V882l-2.7,0l0,6.8l-20.8,20.8h-3.3v3.9h6v23.8h-6v4.8h-16.7v6h4.8v3.6h3.6v3.6h2.4v66.7
		h-34.6v-60.8h4.8v-3.6h3.6V954h4.8v-7.2h-17.9v-4.8h-6v-22.6h6v-4.8h-3.6l-19.1-23.8v-6h-2.4v-20.3h4.8v-7.2l-9.5-7.2v-35.8H968
		v35.8l-9.5,6v8.3h3.6v19.1h-3.6v7.2l-19.1,22.6h-3.6v4.8h4.8v22.6h-6v3.6h-15.5v7.2h4.8v3.6h3.6v4.8h3.6v67.9h-25v11.9h-25v-21.5
		h-8.3v7.2h-7.2v-6h-6v-3.6h-7.2v4.8h-17.9v-7.2h-4.8v7.2h-11.9v-8.3h-32.2v-8.3h-21.5v-9.5h-15.5h-14.3v-8.3h-11.9v8.3h-14.3v-4.8
		h-6v-20.3h4.8v-6h-8.3V929h-124v-89.4h-51.3l-13.1-13.1h-17.9l-6.6,6.6h-28v-57.8h-4.8v50.1h-15.5v8.3h-52.4v8.3h-78.7V861h-28.6
		v-46.5H34.7v54.8h-70.3v-42.9H-243v-17.9h-20.3v16.7h-44.1v-67.9h-56v-29.8h-166.9v16.7h-60.8v17.9h-14.3v23.8h-10.7V805H-628v236
		h-66.7l-22.6-22.6l-23.8,22.6v6h-13.1v-8.3h-62v16.7h-6v-8.3h-23.8v-81.1h-7.2v-4.8h-25v-10.7h-17.9v15.5h-41.7V954h-10.7v-17.9
		h-38.1v8.3h-11.9v20.3h-22.6v-8.3h-11.9v-40.5h-6v7.2h-6v-21.5h-4.8v-22.6h-3.6v8.3h-3.6v-22.6h-6v6h-4.8v-6h-4.8v7.2h-10.7
		l-6-14.3v-28.6h20.3v-4.8l-20.3-9.5h-3.6v42.9l-6,13.1v14.3h-4.8v-8.3h-3.6v8.3h-3.6v-8.3h-3.6v7.2h-6v-7.2h-3.6v7.2h-6v-7.2h-4.8
		v39.3h-3.6v8.3h-4.8v-8.3h-3.6v8.3h-6v-8.3h-3.6v8.3h-3.6v-8.3h-4.8v8.3h-3.6v-8.3h-3.6v-27.4h7.2v-4.8h-9.5v-4.8h-9.5v-71.5h-33.4
		V277l-8.9-527.4l3213.4-17.9L1988.3,819.3z"/>
</g>
</svg>
